SplineFontDB: 3.0
FontName: Nunito-Regular
FullName: Nunito Regular
FamilyName: Nunito
Weight: Regular
Copyright: Digitized data Copyright (c) 2011-2013, vernon adams.
Version: 2.0
ItalicAngle: 0
UnderlinePosition: 0
UnderlineWidth: 0
Ascent: 1638
Descent: 410
UFOAscent: 2030
UFODescent: -675
LayerCount: 2
Layer: 0 0 "Back"  1
Layer: 1 0 "Fore"  0
FSType: 0
OS2Version: 0
OS2_WeightWidthSlopeOnly: 0
OS2_UseTypoMetrics: 1
CreationTime: 1393440890
ModificationTime: 1393441297
PfmFamily: 17
TTFWeight: 400
TTFWidth: 5
LineGap: 0
VLineGap: 0
OS2TypoAscent: 1999
OS2TypoAOffset: 0
OS2TypoDescent: 572
OS2TypoDOffset: 0
OS2TypoLinegap: 0
OS2WinAscent: 1999
OS2WinAOffset: 0
OS2WinDescent: -572
OS2WinDOffset: 0
HheadAscent: 1999
HheadAOffset: 0
HheadDescent: -572
HheadDOffset: 0
OS2Vendor: 'NeWT'
Lookup: 258 0 0 "kernHorizontalKerninglookup0"  {"kernHorizontalKerninglookup0 subtable"  } ['kern' ('DFLT' <'dflt' > ) ]
Lookup: 258 0 0 "kernHorizontalKerninginLatinloo"  {"kernHorizontalKerninginLatinloo subtable"  } ['kern' ('latn' <'dflt' > ) ]
MarkAttachClasses: 1
DEI: 91125
LangName: 1033 "" "" "" "" "" "Version 2.0" "" "Nunito is a trademark of Vernon Adams and may be registered in certain jurisdictions." "newtypography" "Vernon Adams" "" "newtypography.co.uk" "newtypography.co.uk" "Copyright (c) 2013, vernon adams.+AAoACgAA-This Font Software is licensed under the SIL Open Font License, Version 1.1.+AAoA-This license is copied below, and is also available with a FAQ at:+AAoA-http://scripts.sil.org/OFL+AAoA" "http://scripts.sil.org/OFL" "" "" "" "Nunito-Regular" 
PickledData: "(dp1
S'com.typemytype.robofont.foreground.layerStrokeColor'
p2
(F0.5
I0
F0.5
F0.69999999999999996
tp3
sS'com.typemytype.robofont.guides'
p4
((dp5
S'angle'
p6
I0
sS'name'
p7
NsS'magnetic'
p8
I5
sS'isGlobal'
p9
I1
sS'y'
I1013
sS'x'
I587
s(dp10
g6
I0
sg7
Nsg8
I5
sg9
I1
sS'y'
I903
sS'x'
I595
s(dp11
g6
I0
sg7
Nsg8
I5
sg9
I1
sS'y'
I120
sS'x'
I780
s(dp12
g6
I0
sg7
Nsg8
I5
sg9
I1
sS'y'
S'-22'
p13
sS'x'
I907

StartChar: A
Encoding: 65 65 0
Width: 1428
VWidth: 0
GlyphClass: 2
Flags: W
PickledData: "(dp1
S'b'
(dp2
sS'anchors'
p3
(tsS'lib'
p4
(dp5
sS'unicodes'
p6
(tsS'y'
I1232
sS'width'
p7
I1445
sS'points'
p8
(dp9
sS'contours'
p10
(dp11
sS'components'
p12
(tsS'segmentType'
p13
S'line'
p14
sS'x'
I718
sS'com.typemytype.robofont.layerData'
p15
(dp16
S'b'
(dp17
S'name'
p18
S'A'
sg4
(dp19
sg6
(tsg7
I1414
sg10
((dp20
g8
((dp21
g13
S'line'
p22
sS'x'
I403
sS'smooth'
p23
I0
sS'y'
I502
s(dp24
g13
S'line'
p25
sS'x'
I703
sg23
I0
sS'y'
I1275
s(dp26
g13
S'line'
p27
sS'x'
I705
sg23
I0
sS'y'
I1275
s(dp28
g13
S'line'
p29
sS'x'
I1004
sg23
I0
sS'y'
I502
stp30
s(dp31
g8
((dp32
g13
S'curve'
p33
sS'x'
I150
sg23
I1
sS'y'
I0
s(dp34
S'y'
I0
sS'x'
I181
sg23
I0
s(dp35
S'y'
I15
sS'x'
I214
sg23
I0
s(dp36
g13
S'curve'
p37
sS'x'
I229
sg23
I1
sS'y'
I53
s(dp38
g13
S'line'
p39
sS'x'
I356
sg23
I0
sS'y'
I373
s(dp40
g13
S'line'
p41
sS'x'
I1051
sg23
I0
sS'y'
I373
s(dp42
g13
S'line'
p43
sS'x'
I1179
sg23
I1
sS'y'
I53
s(dp44
S'y'
I17
sS'x'
I1193
sg23
I0
s(dp45
S'y'
I0
sS'x'
I1228
sg23
I0
s(dp46
g13
S'curve'
p47
sS'x'
I1260
sg23
I1
sS'y'
I0
s(dp48
S'y'
I0
sS'x'
I1306
sg23
I0
s(dp49
S'y'
I31
sS'x'
I1354
sg23
I0
s(dp50
g13
S'curve'
p51
sS'x'
I1354
sg23
I1
sS'y'
I80
s(dp52
S'y'
I87
sS'x'
I1354
sg23
I0
s(dp53
S'y'
I97
sS'x'
I1352
sg23
I0
s(dp54
g13
S'curve'
p55
sS'x'
I1349
sg23
I0
sS'y'
I108
s(dp56
g13
S'line'
p57
sS'x'
I871
sg23
I1
sS'y'
I1288
s(dp58
S'y'
I1420
sS'x'
I817
sg23
I0
s(dp59
S'y'
I1430
sS'x'
I777
sg23
I0
s(dp60
g13
S'curve'
p61
sS'x'
I710
sg23
I1
sS'y'
I1430
s(dp62
S'y'
I1430
sS'x'
I644
sg23
I0
s(dp63
S'y'
I1413
sS'x'
I596
sg23
I0
s(dp64
g13
S'curve'
p65
sS'x'
I542
sg23
I1
sS'y'
I1280
s(dp66
g13
S'line'
p67
sS'x'
I66
sg23
I1
sS'y'
I108
s(dp68
S'y'
I97
sS'x'
I62
sg23
I0
s(dp69
S'y'
I87
sS'x'
I60
sg23
I0
s(dp70
g13
S'curve'
p71
sS'x'
I60
sg23
I1
sS'y'
I78
s(dp72
S'y'
I32
sS'x'
I60
sg23
I0
s(dp73
S'y'
I0
sS'x'
I106
sg23
I0
stp74
stp75
sg12
(tsg3
(tsssg18
S'A'
s."
AnchorPoint: "ogonek" 1266 19 basechar 0
AnchorPoint: "top" 713 1438 basechar 0
LayerCount: 2
Fore
SplineSet
1176 60 m 258
 1194 13 1231 -6 1268 -6 c 256
 1318 -6 1369 29 1369 82 c 256
 1369 93 1366 106 1361 119 c 258
 886 1298 l 258
 837 1420 784 1438 714 1438 c 256
 644 1438 591 1420 542 1298 c 258
 67 119 l 258
 62 106 59 94 59 82 c 256
 59 30 109 -6 159 -6 c 256
 196 -6 234 13 252 60 c 258
 370 364 l 257
 1058 364 l 257
 1176 60 l 258
1001 509 m 257
 427 509 l 257
 714 1248 l 257
 1001 509 l 257
EndSplineSet
EndChar

StartChar: AE
Encoding: 198 198 1
Width: 1967
VWidth: 0
GlyphClass: 2
Flags: W
PickledData: "(dp1
S'com.typemytype.robofont.layerData'
p2
(dp3
S'b'
(dp4
S'name'
p5
S'AE'
p6
sS'lib'
p7
(dp8
sS'unicodes'
p9
(tsS'width'
p10
I1976
sS'contours'
p11
(tsS'components'
p12
(tsS'anchors'
p13
(tsss."
AnchorPoint: "top" 1291 1449 basechar 0
LayerCount: 2
Fore
SplineSet
509 512 m 257
 963 1288 l 257
 966 1288 l 257
 1084 512 l 257
 509 512 l 257
1255 0 m 258
 1850 0 l 258
 1901 1 1923 35 1923 71 c 256
 1923 113 1891 160 1834 160 c 258
 1336 160 l 257
 1255 655 l 257
 1800 655 l 258
 1850 655 1873 689 1873 726 c 256
 1873 769 1842 814 1784 814 c 258
 1232 814 l 257
 1160 1270 l 257
 1833 1270 l 258
 1883 1270 1905 1304 1905 1340 c 256
 1905 1383 1873 1429 1816 1429 c 258
 995 1429 l 258
 920 1429 859 1408 781 1265 c 257
 68 122 l 258
 59 104 53 89 53 75 c 256
 53 28 91 -1 137 -1 c 256
 173 -1 211 17 234 62 c 257
 428 367 l 257
 1102 367 l 257
 1154 62 l 258
 1161 13 1208 0 1255 0 c 258
EndSplineSet
EndChar

StartChar: B
Encoding: 66 66 13
Width: 1318
VWidth: 0
GlyphClass: 2
Flags: W
PickledData: "(dp1
S'b'
(dp2
sS'anchors'
p3
(tsS'lib'
p4
(dp5
sS'unicodes'
p6
(tsS'y'
I1260
sS'width'
p7
I1395
sS'points'
p8
(dp9
sS'contours'
p10
(dp11
sS'components'
p12
(tsS'segmentType'
p13
S'curve'
p14
sS'x'
I676
sS'com.typemytype.robofont.layerData'
p15
(dp16
S'b'
(dp17
S'name'
p18
S'B'
sg4
(dp19
sg6
(tsg7
I1292
sg10
((dp20
g8
((dp21
g13
S'curve'
p22
sS'x'
I266
sS'smooth'
p23
I1
sS'y'
I0
s(dp24
g13
S'line'
p25
sS'x'
I1035
sg23
I1
sS'y'
I0
s(dp26
S'y'
I0
sS'x'
I1084
sg23
I0
s(dp27
S'y'
I36
sS'x'
I1108
sg23
I0
s(dp28
g13
S'curve'
p29
sS'x'
I1108
sg23
I1
sS'y'
I73
s(dp30
S'y'
I109
sS'x'
I1108
sg23
I0
s(dp31
S'y'
I145
sS'x'
I1084
sg23
I0
s(dp32
g13
S'curve'
p33
sS'x'
I1035
sg23
I1
sS'y'
I145
s(dp34
g13
S'line'
p35
sS'x'
I353
sg23
I0
sS'y'
I145
s(dp36
g13
S'line'
p37
sS'x'
I353
sg23
I0
sS'y'
I662
s(dp38
g13
S'line'
p39
sS'x'
I975
sg23
I1
sS'y'
I662
s(dp40
S'y'
I662
sS'x'
I1024
sg23
I0
s(dp41
S'y'
I698
sS'x'
I1049
sg23
I0
s(dp42
g13
S'curve'
p43
sS'x'
I1049
sg23
I1
sS'y'
I734
s(dp44
S'y'
I770
sS'x'
I1049
sg23
I0
s(dp45
S'y'
I806
sS'x'
I1026
sg23
I0
s(dp46
g13
S'curve'
p47
sS'x'
I975
sg23
I1
sS'y'
I806
s(dp48
g13
S'line'
p49
sS'x'
I353
sg23
I0
sS'y'
I806
s(dp50
g13
S'line'
p51
sS'x'
I353
sg23
I0
sS'y'
I1281
s(dp52
g13
S'line'
p53
sS'x'
I1007
sg23
I1
sS'y'
I1281
s(dp54
S'y'
I1281
sS'x'
I1056
sg23
I0
s(dp55
S'y'
I1317
sS'x'
I1080
sg23
I0
s(dp56
g13
S'curve'
p57
sS'x'
I1080
sg23
I1
sS'y'
I1354
s(dp58
S'y'
I1390
sS'x'
I1080
sg23
I0
s(dp59
S'y'
I1426
sS'x'
I1056
sg23
I0
s(dp60
g13
S'curve'
p61
sS'x'
I1007
sg23
I1
sS'y'
I1426
s(dp62
g13
S'line'
p63
sS'x'
I261
sg23
I1
sS'y'
I1426
s(dp64
S'y'
I1426
sS'x'
I213
sg23
I0
s(dp65
S'y'
I1383
sS'x'
I178
sg23
I0
s(dp66
g13
S'curve'
p67
sS'x'
I178
sg23
I1
sS'y'
I1340
s(dp68
g13
S'line'
p69
sS'x'
I178
sg23
I1
sS'y'
I86
s(dp70
S'y'
I41
sS'x'
I178
sg23
I0
s(dp71
S'y'
I0
sS'x'
I222
sg23
I0
stp72
stp73
sg12
(tsg3
(tsssg18
S'B'
s."
AnchorPoint: "top" 654 1438 basechar 0
LayerCount: 2
Fore
SplineSet
377 813 m 257
 377 1274 l 257
 671 1274 l 258
 836 1274 974 1246 974 1061 c 256
 974 883 873 813 650 813 c 258
 377 813 l 257
377 157 m 257
 377 658 l 257
 628 658 l 258
 884 658 1020 609 1020 408 c 256
 1020 205 913 157 700 157 c 258
 377 157 l 257
276 0 m 258
 741 0 l 258
 1078 0 1230 188 1230 383 c 256
 1230 600 1093 720 882 743 c 257
 882 747 l 257
 1075 772 1170 910 1170 1073 c 256
 1170 1289 1026 1429 679 1429 c 258
 276 1429 l 258
 221 1429 177 1387 177 1332 c 258
 177 97 l 258
 177 43 221 0 276 0 c 258
EndSplineSet
EndChar

StartChar: C
Encoding: 67 67 14
Width: 1354
VWidth: 0
GlyphClass: 2
Flags: W
PickledData: "(dp1
S'b'
(dp2
sS'anchors'
p3
(tsS'lib'
p4
(dp5
sS'unicodes'
p6
(tsS'width'
p7
I1354
sS'contours'
p8
(tsS'components'
p9
(tsS'com.typemytype.robofont.layerData'
p10
(dp11
S'b'
(dp12
S'name'
p13
S'C'
sg4
(dp14
sg6
(tsg7
F1353.8900000000001
sg8
(tsg9
(tsg3
(tsssg13
S'C'
s."
AnchorPoint: "bot" 770 6 basechar 0
AnchorPoint: "top" 785 1438 basechar 0
LayerCount: 2
Fore
SplineSet
784 -22 m 256
 971 -22 1092 31 1178 87 c 256
 1214 110 1228 138 1228 165 c 256
 1228 206 1194 242 1153 242 c 256
 1141 242 1128 238 1115 231 c 256
 1031 183 945 140 814 140 c 256
 475 140 337 401 337 712 c 256
 337 1023 477 1288 808 1288 c 256
 977 1288 1053 1237 1098 1216 c 256
 1109 1211 1120 1208 1131 1208 c 256
 1174 1208 1206 1247 1206 1288 c 256
 1206 1314 1193 1340 1162 1357 c 256
 1092 1396 978 1450 801 1450 c 256
 373 1450 123 1120 123 709 c 256
 123 299 362 -22 784 -22 c 256
EndSplineSet
EndChar

StartChar: D
Encoding: 68 68 20
Width: 1509
VWidth: 0
GlyphClass: 2
Flags: W
PickledData: "(dp1
S'b'
(dp2
sS'anchors'
p3
(tsS'lib'
p4
(dp5
sS'unicodes'
p6
(tsS'width'
p7
I1535
sS'contours'
p8
(tsS'components'
p9
(tsS'com.typemytype.robofont.layerData'
p10
(dp11
S'b'
(dp12
S'name'
p13
S'D'
sg4
(dp14
sg6
(tsg7
I1499
sg8
((dp15
S'points'
p16
((dp17
S'segmentType'
p18
S'curve'
p19
sS'x'
I266
sS'smooth'
p20
I1
sS'y'
I0
s(dp21
g18
S'line'
p22
sS'x'
I1035
sg20
I1
sS'y'
I0
s(dp23
S'y'
I0
sS'x'
I1084
sg20
I0
s(dp24
S'y'
I34
sS'x'
I1108
sg20
I0
s(dp25
g18
S'curve'
p26
sS'x'
I1108
sg20
I1
sS'y'
I71
s(dp27
S'y'
I107
sS'x'
I1108
sg20
I0
s(dp28
S'y'
I141
sS'x'
I1084
sg20
I0
s(dp29
g18
S'curve'
p30
sS'x'
I1035
sg20
I1
sS'y'
I141
s(dp31
g18
S'line'
p32
sS'x'
I356
sg20
I0
sS'y'
I141
s(dp33
g18
S'line'
p34
sS'x'
I356
sg20
I0
sS'y'
I665
s(dp35
g18
S'line'
p36
sS'x'
I975
sg20
I1
sS'y'
I665
s(dp37
S'y'
I665
sS'x'
I1024
sg20
I0
s(dp38
S'y'
I698
sS'x'
I1049
sg20
I0
s(dp39
g18
S'curve'
p40
sS'x'
I1049
sg20
I1
sS'y'
I734
s(dp41
S'y'
I770
sS'x'
I1049
sg20
I0
s(dp42
S'y'
I803
sS'x'
I1026
sg20
I0
s(dp43
g18
S'curve'
p44
sS'x'
I975
sg20
I1
sS'y'
I803
s(dp45
g18
S'line'
p46
sS'x'
I356
sg20
I0
sS'y'
I803
s(dp47
g18
S'line'
p48
sS'x'
I356
sg20
I0
sS'y'
I1285
s(dp49
g18
S'line'
p50
sS'x'
I1007
sg20
I1
sS'y'
I1285
s(dp51
S'y'
I1285
sS'x'
I1056
sg20
I0
s(dp52
S'y'
I1319
sS'x'
I1080
sg20
I0
s(dp53
g18
S'curve'
p54
sS'x'
I1080
sg20
I1
sS'y'
I1356
s(dp55
S'y'
I1392
sS'x'
I1080
sg20
I0
s(dp56
S'y'
I1426
sS'x'
I1056
sg20
I0
s(dp57
g18
S'curve'
p58
sS'x'
I1007
sg20
I1
sS'y'
I1426
s(dp59
g18
S'line'
p60
sS'x'
I261
sg20
I1
sS'y'
I1426
s(dp61
S'y'
I1426
sS'x'
I213
sg20
I0
s(dp62
S'y'
I1383
sS'x'
I178
sg20
I0
s(dp63
g18
S'curve'
p64
sS'x'
I178
sg20
I1
sS'y'
I1340
s(dp65
g18
S'line'
p66
sS'x'
I178
sg20
I1
sS'y'
I86
s(dp67
S'y'
I41
sS'x'
I178
sg20
I0
s(dp68
S'y'
I0
sS'x'
I222
sg20
I0
stp69
stp70
sg9
(tsg3
(tsssg13
S'D'
s."
AnchorPoint: "mid" 300 729 basechar 0
AnchorPoint: "top" 768 1438 basechar 0
LayerCount: 2
Fore
SplineSet
379 163 m 257
 379 1271 l 257
 604 1271 l 258
 991 1271 1177 1123 1177 717 c 256
 1177 352 1041 163 638 163 c 258
 379 163 l 257
278 3 m 258
 628 3 l 258
 1108 3 1387 249 1387 714 c 256
 1387 1181 1121 1432 619 1432 c 258
 278 1432 l 258
 222 1432 177 1388 177 1334 c 258
 177 101 l 258
 177 47 222 3 278 3 c 258
EndSplineSet
EndChar

StartChar: Dcroat
Encoding: 272 272 22
Width: 1505
VWidth: 0
GlyphClass: 2
Flags: W
LayerCount: 2
Fore
SplineSet
74 658 m 258
 543 658 l 258
 594 658 625 684 625 724 c 256
 625 766 594 793 543 793 c 258
 77 793 l 258
 27 793 -6 766 -6 724 c 256
 -6 684 25 658 74 658 c 258
EndSplineSet
Refer: 20 68 N 1 0 0 1 0 0 2
EndChar

StartChar: uni0394
Encoding: 916 916 23
Width: 1226
VWidth: 0
GlyphClass: 2
Flags: W
LayerCount: 2
Fore
SplineSet
207 104 m 257
 611 1232 l 257
 1021 104 l 257
 207 104 l 257
8 0 m 257
 1219 0 l 257
 699 1382 l 258
 682 1422 648 1441 613 1441 c 256
 578 1441 543 1421 528 1382 c 258
 8 0 l 257
EndSplineSet
EndChar

StartChar: E
Encoding: 69 69 24
Width: 1241
VWidth: 0
GlyphClass: 2
Flags: W
PickledData: "(dp1
S'b'
(dp2
sS'anchors'
p3
(tsS'lib'
p4
(dp5
sS'unicodes'
p6
(tsS'width'
p7
I1258
sS'contours'
p8
(tsS'components'
p9
(tsS'com.typemytype.robofont.layerData'
p10
(dp11
S'b'
(dp12
S'name'
p13
S'E'
sg4
(dp14
sg6
(tsg7
I1234
sg8
(tsg9
(tsg3
(tsssg13
S'E'
s."
AnchorPoint: "bot" 660 0 basechar 0
AnchorPoint: "ogonek" 820 9 basechar 0
AnchorPoint: "top" 651 1438 basechar 0
LayerCount: 2
Fore
SplineSet
277 0 m 258
 1039 0 l 258
 1093 0 1119 40 1119 80 c 256
 1119 120 1093 161 1039 161 c 258
 379 161 l 257
 379 656 l 257
 979 656 l 258
 1033 656 1060 695 1060 735 c 256
 1060 774 1035 813 979 813 c 258
 379 813 l 257
 379 1268 l 257
 1013 1268 l 258
 1067 1268 1093 1309 1093 1349 c 256
 1093 1389 1067 1429 1013 1429 c 258
 272 1429 l 258
 217 1429 177 1381 177 1331 c 258
 177 98 l 258
 177 46 226 0 277 0 c 258
EndSplineSet
EndChar

StartChar: Eng
Encoding: 330 330 33
Width: 1512
VWidth: 0
GlyphClass: 2
Flags: W
PickledData: "(dp1
S'com.typemytype.robofont.layerData'
p2
(dp3
S'b'
(dp4
S'name'
p5
S'Eng'
p6
sS'lib'
p7
(dp8
sS'unicodes'
p9
(tsS'width'
p10
I1495
sS'contours'
p11
(tsS'components'
p12
(tsS'anchors'
p13
(tsss."
LayerCount: 2
Fore
SplineSet
636 -411 m 256
 752 -437 855 -453 944 -453 c 256
 1199 -453 1341 -326 1341 49 c 258
 1341 1340 l 258
 1341 1399 1294 1429 1248 1429 c 256
 1200 1429 1155 1399 1155 1340 c 258
 1155 290 l 257
 427 1350 l 258
 389 1405 333 1429 290 1429 c 256
 227 1429 176 1382 176 1300 c 258
 176 89 l 258
 176 29 222 0 269 0 c 256
 316 0 363 30 363 89 c 258
 363 1126 l 257
 1155 -7 l 257
 1155 -216 1101 -308 932 -308 c 256
 863 -308 775 -293 664 -264 c 256
 655 -262 645 -260 637 -260 c 256
 589 -260 558 -297 558 -334 c 256
 558 -366 581 -399 636 -411 c 256
EndSplineSet
EndChar

StartChar: Euro
Encoding: 8364 8364 36
Width: 1398
VWidth: 0
GlyphClass: 2
Flags: HW
LayerCount: 2
Fore
SplineSet
839 -22 m 0
 1026 -22 1147 31 1233 87 c 0
 1269 110 1283 138 1283 165 c 0
 1283 206 1249 242 1208 242 c 0
 1196 242 1183 238 1170 231 c 0
 1086 183 1000 140 869 140 c 0
 609.979337671 140 468.30391604 292.373670756 415.871252769 503 c 1
 958 503 l 2
 993 503 1010 531 1010 560 c 0
 1010 590 992 621 957 621 c 2
 396.147564664 621 l 1
 393.36193261 650.701966239 392 681.104256197 392 712 c 0
 392 726.439805409 392.301807438 740.780445517 392.910527048 755 c 1
 958 755 l 2
 993 755 1010 783 1010 812 c 0
 1010 842 992 872 957 872 c 2
 405.511611853 872 l 1
 447.70362959 1108.70821546 590.739115085 1288 863 1288 c 0
 1032 1288 1108 1237 1153 1216 c 0
 1164 1211 1175 1208 1186 1208 c 0
 1229 1208 1261 1247 1261 1288 c 0
 1261 1314 1248 1340 1217 1357 c 0
 1147 1396 1033 1450 856 1450 c 0
 486.368692019 1450 249.498215134 1203.87036932 191.766080299 872 c 1
 60 872 l 2
 29 872 12 842 12 812 c 0
 12 783 28 755 60 755 c 2
 179.056306871 755 l 1
 178.35337773 739.789982844 178 724.452238614 178 709 c 0
 178 679.165614525 179.265506502 649.80248461 181.774942672 621 c 1
 60 621 l 2
 29 621 12 590 12 560 c 0
 12 531 28 503 60 503 c 2
 199.695542223 503 l 1
 267.33713216 196.399772652 490.914425278 -22 839 -22 c 0
EndSplineSet
EndChar

StartChar: F
Encoding: 70 70 37
Width: 1151
VWidth: 0
GlyphClass: 2
Flags: W
PickledData: "(dp1
S'b'
(dp2
sS'anchors'
p3
(tsS'lib'
p4
(dp5
sS'unicodes'
p6
(tsS'width'
p7
I1175
sS'contours'
p8
(tsS'components'
p9
(tsS'com.typemytype.robofont.layerData'
p10
(dp11
S'b'
(dp12
S'name'
p13
S'F'
sg4
(dp14
sg6
(tsg7
I1142
sg8
((dp15
S'points'
p16
((dp17
S'segmentType'
p18
S'curve'
p19
sS'x'
I266
sS'smooth'
p20
I1
sS'y'
I0
s(dp21
g18
S'line'
p22
sS'x'
I1035
sg20
I1
sS'y'
I0
s(dp23
S'y'
I0
sS'x'
I1084
sg20
I0
s(dp24
S'y'
I34
sS'x'
I1108
sg20
I0
s(dp25
g18
S'curve'
p26
sS'x'
I1108
sg20
I1
sS'y'
I71
s(dp27
S'y'
I107
sS'x'
I1108
sg20
I0
s(dp28
S'y'
I141
sS'x'
I1084
sg20
I0
s(dp29
g18
S'curve'
p30
sS'x'
I1035
sg20
I1
sS'y'
I141
s(dp31
g18
S'line'
p32
sS'x'
I353
sg20
I0
sS'y'
I141
s(dp33
g18
S'line'
p34
sS'x'
I353
sg20
I0
sS'y'
I665
s(dp35
g18
S'line'
p36
sS'x'
I975
sg20
I1
sS'y'
I665
s(dp37
S'y'
I665
sS'x'
I1024
sg20
I0
s(dp38
S'y'
I698
sS'x'
I1049
sg20
I0
s(dp39
g18
S'curve'
p40
sS'x'
I1049
sg20
I1
sS'y'
I734
s(dp41
S'y'
I770
sS'x'
I1049
sg20
I0
s(dp42
S'y'
I803
sS'x'
I1026
sg20
I0
s(dp43
g18
S'curve'
p44
sS'x'
I975
sg20
I1
sS'y'
I803
s(dp45
g18
S'line'
p46
sS'x'
I353
sg20
I0
sS'y'
I803
s(dp47
g18
S'line'
p48
sS'x'
I353
sg20
I0
sS'y'
I1285
s(dp49
g18
S'line'
p50
sS'x'
I1007
sg20
I1
sS'y'
I1285
s(dp51
S'y'
I1285
sS'x'
I1056
sg20
I0
s(dp52
S'y'
I1319
sS'x'
I1080
sg20
I0
s(dp53
g18
S'curve'
p54
sS'x'
I1080
sg20
I1
sS'y'
I1356
s(dp55
S'y'
I1392
sS'x'
I1080
sg20
I0
s(dp56
S'y'
I1426
sS'x'
I1056
sg20
I0
s(dp57
g18
S'curve'
p58
sS'x'
I1007
sg20
I1
sS'y'
I1426
s(dp59
g18
S'line'
p60
sS'x'
I261
sg20
I1
sS'y'
I1426
s(dp61
S'y'
I1426
sS'x'
I213
sg20
I0
s(dp62
S'y'
I1383
sS'x'
I178
sg20
I0
s(dp63
g18
S'curve'
p64
sS'x'
I178
sg20
I1
sS'y'
I1340
s(dp65
g18
S'line'
p66
sS'x'
I178
sg20
I1
sS'y'
I86
s(dp67
S'y'
I41
sS'x'
I178
sg20
I0
s(dp68
S'y'
I0
sS'x'
I222
sg20
I0
stp69
stp70
sg9
(tsg3
(tsssg13
S'F'
s."
LayerCount: 2
Fore
SplineSet
277 0 m 256
 328 0 379 31 379 97 c 258
 379 661 l 257
 947 661 l 258
 1001 661 1028 700 1028 741 c 256
 1028 780 1001 819 947 819 c 258
 379 819 l 257
 379 1268 l 257
 974 1268 l 258
 1028 1268 1054 1309 1054 1349 c 256
 1054 1389 1028 1429 974 1429 c 258
 273 1429 l 258
 221 1429 176 1389 176 1331 c 258
 176 97 l 258
 176 32 226 0 277 0 c 256
EndSplineSet
EndChar

StartChar: G
Encoding: 71 71 38
Width: 1460
VWidth: 0
GlyphClass: 2
Flags: W
PickledData: "(dp1
S'b'
(dp2
sS'anchors'
p3
(tsS'lib'
p4
(dp5
sS'unicodes'
p6
(tsS'width'
p7
I1538
sS'contours'
p8
(tsS'components'
p9
(tsS'com.typemytype.robofont.layerData'
p10
(dp11
S'b'
(dp12
S'name'
p13
S'G'
sg4
(dp14
sg6
(tsg7
I1448
sg8
((dp15
S'points'
p16
((dp17
S'segmentType'
p18
S'curve'
p19
sS'x'
I783
sS'smooth'
p20
I1
sS'y'
S'-22'
p21
s(dp22
S'y'
S'-22'
p23
sS'x'
I965
sg20
I0
s(dp24
S'y'
I34
sS'x'
I1086
sg20
I0
s(dp25
g18
S'curve'
p26
sS'x'
I1166
sg20
I1
sS'y'
I86
s(dp27
S'y'
I154
sS'x'
I1270
sg20
I0
s(dp28
S'y'
I258
sS'x'
I1186
sg20
I0
s(dp29
g18
S'curve'
p30
sS'x'
I1112
sg20
I1
sS'y'
I214
s(dp31
S'y'
I162
sS'x'
I1024
sg20
I0
s(dp32
S'y'
I120
sS'x'
I939
sg20
I0
s(dp33
g18
S'curve'
p34
sS'x'
I806
sg20
I1
sS'y'
I120
s(dp35
S'y'
I120
sS'x'
I446
sg20
I0
s(dp36
S'y'
I406
sS'x'
I316
sg20
I0
s(dp37
g18
S'curve'
p38
sS'x'
I316
sg20
I1
sS'y'
I706
s(dp39
S'y'
I1005
sS'x'
I316
sg20
I0
s(dp40
S'y'
I1296
sS'x'
I450
sg20
I0
s(dp41
g18
S'curve'
p42
sS'x'
I801
sg20
I1
sS'y'
I1296
s(dp43
S'y'
I1296
sS'x'
I980
sg20
I0
s(dp44
S'y'
I1246
sS'x'
I1053
sg20
I0
s(dp45
g18
S'curve'
p46
sS'x'
I1094
sg20
I1
sS'y'
I1225
s(dp47
S'y'
I1184
sS'x'
I1174
sg20
I0
s(dp48
S'y'
I1300
sS'x'
I1231
sg20
I0
s(dp49
g18
S'curve'
p50
sS'x'
I1156
sg20
I1
sS'y'
I1343
s(dp51
S'y'
I1372
sS'x'
I1106
sg20
I0
s(dp52
S'y'
I1438
sS'x'
I995
sg20
I0
s(dp53
g18
S'curve'
p54
sS'x'
I797
sg20
I1
sS'y'
I1438
s(dp55
S'y'
I1438
sS'x'
I359
sg20
I0
s(dp56
S'y'
I1093
sS'x'
I128
sg20
I0
s(dp57
g18
S'curve'
p58
sS'x'
I128
sg20
I1
sS'y'
I704
s(dp59
S'y'
I307
sS'x'
I128
sg20
I0
s(dp60
S'y'
S'-22'
p61
sS'x'
I350
sg20
I0
stp62
stp63
sg9
(tsg3
(tsssg13
S'G'
s."
AnchorPoint: "bot" 830 0 basechar 0
AnchorPoint: "top" 848 1429 basechar 0
LayerCount: 2
Fore
SplineSet
807 -22 m 256
 974 -22 1142 12 1264 53 c 256
 1308 67 1342 103 1342 163 c 258
 1342 663 l 258
 1342 717 1313 753 1259 753 c 258
 873 753 l 258
 825 753 801 709 801 674 c 256
 801 641 825 598 873 598 c 258
 1140 598 l 257
 1140 183 l 257
 1046 157 926 140 825 140 c 256
 484 140 337 378 337 717 c 256
 337 1052 494 1288 845 1288 c 256
 967 1288 1085 1258 1197 1226 c 256
 1202 1225 1214 1224 1217 1224 c 256
 1261 1224 1289 1268 1289 1308 c 256
 1289 1335 1275 1363 1243 1377 c 256
 1127 1425 986 1450 838 1450 c 256
 356 1450 123 1107 123 717 c 256
 123 228 411 -22 807 -22 c 256
EndSplineSet
EndChar

StartChar: H
Encoding: 72 72 44
Width: 1481
VWidth: 0
GlyphClass: 2
Flags: W
PickledData: "(dp1
S'b'
(dp2
sS'anchors'
p3
(tsS'lib'
p4
(dp5
sS'unicodes'
p6
(tsS'width'
p7
I1524
sS'contours'
p8
(tsS'components'
p9
(tsS'com.typemytype.robofont.layerData'
p10
(dp11
S'b'
(dp12
S'name'
p13
S'H'
sg4
(dp14
sg6
(tsg7
I1464
sg8
(tsg9
(tsg3
(tsssg13
S'H'
s."
AnchorPoint: "top" 763 1438 basechar 0
LayerCount: 2
Fore
SplineSet
277 1 m 256
 328 1 379 32 379 97 c 258
 379 661 l 257
 1102 661 l 257
 1102 97 l 258
 1102 33 1152 1 1202 1 c 256
 1254 1 1304 32 1304 97 c 258
 1304 1332 l 258
 1304 1397 1254 1429 1203 1429 c 256
 1152 1429 1102 1396 1102 1332 c 258
 1102 822 l 257
 379 822 l 257
 379 1332 l 258
 379 1397 329 1429 279 1429 c 256
 227 1429 177 1396 177 1332 c 258
 177 97 l 258
 177 33 226 1 277 1 c 256
EndSplineSet
EndChar

StartChar: Hbar
Encoding: 294 294 45
Width: 1477
VWidth: 0
GlyphClass: 2
Flags: W
PickledData: "(dp1
S'com.typemytype.robofont.layerData'
p2
(dp3
S'b'
(dp4
S'name'
p5
S'Hbar'
p6
sS'lib'
p7
(dp8
sS'unicodes'
p9
(tsS'width'
p10
I1464
sS'contours'
p11
(tsS'components'
p12
(tsS'anchors'
p13
(tsss."
LayerCount: 2
Fore
SplineSet
118 1023 m 258
 1361 1023 l 258
 1403 1023 1428 1044 1428 1076 c 256
 1428 1108 1403 1130 1361 1130 c 258
 118 1130 l 258
 78 1130 53 1108 53 1076 c 256
 53 1044 78 1023 118 1023 c 258
EndSplineSet
Refer: 44 72 N 1 0 0 1 0 0 2
EndChar

StartChar: I
Encoding: 73 73 47
Width: 605
VWidth: 0
GlyphClass: 2
Flags: W
PickledData: "(dp1
S'b'
(dp2
sS'anchors'
p3
(tsS'lib'
p4
(dp5
sS'unicodes'
p6
(tsS'width'
p7
I637
sS'contours'
p8
(tsS'components'
p9
(tsS'com.typemytype.robofont.layerData'
p10
(dp11
S'b'
(dp12
S'name'
p13
S'I'
sg4
(dp14
sg6
(tsg7
I592
sg8
(tsg9
(tsg3
(tsssg13
S'I'
s."
AnchorPoint: "ogonek" 304 23 basechar 0
AnchorPoint: "top" 308 1438 basechar 0
LayerCount: 2
Fore
SplineSet
302 1 m 256
 354 1 404 32 404 97 c 258
 404 1333 l 258
 404 1398 354 1430 304 1430 c 256
 253 1430 202 1397 202 1333 c 258
 202 97 l 258
 202 33 252 1 302 1 c 256
EndSplineSet
EndChar

StartChar: J
Encoding: 74 74 58
Width: 1018
VWidth: 0
GlyphClass: 2
Flags: W
PickledData: "(dp1
S'b'
(dp2
sS'anchors'
p3
(tsS'lib'
p4
(dp5
sS'unicodes'
p6
(tsS'width'
p7
I1126
sS'contours'
p8
(tsS'components'
p9
(tsS'com.typemytype.robofont.layerData'
p10
(dp11
S'b'
(dp12
S'name'
p13
S'J'
sg4
(dp14
sg6
(tsg7
I1003
sg8
(tsg9
(tsg3
(tsssg13
S'J'
s."
AnchorPoint: "top" 772 1438 basechar 0
LayerCount: 2
Fore
SplineSet
427 -25 m 256
 661 -25 874 103 874 442 c 258
 874 1334 l 258
 874 1398 825 1429 773 1429 c 256
 722 1429 671 1398 671 1334 c 258
 671 457 l 258
 671 233 586 144 424 144 c 256
 333 144 260 181 211 212 c 256
 188 229 168 235 151 235 c 256
 105 235 76 190 76 145 c 256
 76 115 87 92 109 77 c 256
 165 35 263 -25 427 -25 c 256
EndSplineSet
EndChar

StartChar: K
Encoding: 75 75 60
Width: 1271
VWidth: 0
GlyphClass: 2
Flags: W
PickledData: "(dp1
S'b'
(dp2
sS'anchors'
p3
(tsS'lib'
p4
(dp5
sS'unicodes'
p6
(tsS'width'
p7
I1329
sS'contours'
p8
(tsS'components'
p9
(tsS'com.typemytype.robofont.layerData'
p10
(dp11
S'b'
(dp12
S'name'
p13
S'K'
sg4
(dp14
sg6
(tsg7
I1210
sg8
(tsg9
(tsg3
(tsssg13
S'K'
s."
AnchorPoint: "bot" 654 0 basechar 0
AnchorPoint: "top" 640 1438 basechar 0
LayerCount: 2
Fore
SplineSet
276 0 m 256
 326 0 378 31 378 95 c 258
 378 709 l 257
 1013 42 l 258
 1038 15 1064 0 1092 0 c 256
 1145 0 1191 39 1191 92 c 256
 1191 111 1186 133 1168 152 c 258
 585 748 l 257
 1115 1290 l 258
 1132 1307 1137 1327 1137 1346 c 256
 1137 1393 1094 1429 1046 1429 c 256
 1019 1429 995 1416 971 1391 c 258
 378 765 l 257
 378 1333 l 258
 378 1397 327 1429 278 1429 c 256
 228 1429 177 1397 177 1333 c 258
 177 95 l 258
 177 31 226 0 276 0 c 256
EndSplineSet
EndChar

StartChar: L
Encoding: 76 76 62
Width: 1105
VWidth: 0
GlyphClass: 2
Flags: W
PickledData: "(dp1
S'b'
(dp2
sS'anchors'
p3
(tsS'lib'
p4
(dp5
sS'unicodes'
p6
(tsS'width'
p7
I1169
sS'contours'
p8
(tsS'components'
p9
(tsS'com.typemytype.robofont.layerData'
p10
(dp11
S'b'
(dp12
S'name'
p13
S'L'
sg4
(dp14
sg6
(tsg7
I1095
sg8
((dp15
S'points'
p16
((dp17
S'segmentType'
p18
S'curve'
p19
sS'x'
I266
sS'smooth'
p20
I1
sS'y'
I0
s(dp21
g18
S'line'
p22
sS'x'
I1035
sg20
I1
sS'y'
I0
s(dp23
S'y'
I0
sS'x'
I1084
sg20
I0
s(dp24
S'y'
I34
sS'x'
I1108
sg20
I0
s(dp25
g18
S'curve'
p26
sS'x'
I1108
sg20
I1
sS'y'
I71
s(dp27
S'y'
I107
sS'x'
I1108
sg20
I0
s(dp28
S'y'
I141
sS'x'
I1084
sg20
I0
s(dp29
g18
S'curve'
p30
sS'x'
I1035
sg20
I1
sS'y'
I141
s(dp31
g18
S'line'
p32
sS'x'
I356
sg20
I0
sS'y'
I141
s(dp33
g18
S'line'
p34
sS'x'
I356
sg20
I0
sS'y'
I665
s(dp35
g18
S'line'
p36
sS'x'
I975
sg20
I1
sS'y'
I665
s(dp37
S'y'
I665
sS'x'
I1024
sg20
I0
s(dp38
S'y'
I698
sS'x'
I1049
sg20
I0
s(dp39
g18
S'curve'
p40
sS'x'
I1049
sg20
I1
sS'y'
I734
s(dp41
S'y'
I770
sS'x'
I1049
sg20
I0
s(dp42
S'y'
I803
sS'x'
I1026
sg20
I0
s(dp43
g18
S'curve'
p44
sS'x'
I975
sg20
I1
sS'y'
I803
s(dp45
g18
S'line'
p46
sS'x'
I356
sg20
I0
sS'y'
I803
s(dp47
g18
S'line'
p48
sS'x'
I356
sg20
I0
sS'y'
I1285
s(dp49
g18
S'line'
p50
sS'x'
I1007
sg20
I1
sS'y'
I1285
s(dp51
S'y'
I1285
sS'x'
I1056
sg20
I0
s(dp52
S'y'
I1319
sS'x'
I1080
sg20
I0
s(dp53
g18
S'curve'
p54
sS'x'
I1080
sg20
I1
sS'y'
I1356
s(dp55
S'y'
I1392
sS'x'
I1080
sg20
I0
s(dp56
S'y'
I1426
sS'x'
I1056
sg20
I0
s(dp57
g18
S'curve'
p58
sS'x'
I1007
sg20
I1
sS'y'
I1426
s(dp59
g18
S'line'
p60
sS'x'
I261
sg20
I1
sS'y'
I1426
s(dp61
S'y'
I1426
sS'x'
I213
sg20
I0
s(dp62
S'y'
I1383
sS'x'
I178
sg20
I0
s(dp63
g18
S'curve'
p64
sS'x'
I178
sg20
I1
sS'y'
I1340
s(dp65
g18
S'line'
p66
sS'x'
I178
sg20
I1
sS'y'
I86
s(dp67
S'y'
I41
sS'x'
I178
sg20
I0
s(dp68
S'y'
I0
sS'x'
I222
sg20
I0
stp69
stp70
sg9
(tsg3
(tsssg13
S'L'
s."
AnchorPoint: "mid" 277 712 basechar 0
AnchorPoint: "bot" 662 0 basechar 0
AnchorPoint: "caron.alt" 417 1005 basechar 0
AnchorPoint: "top" 428 1449 basechar 0
LayerCount: 2
Fore
SplineSet
279 0 m 258
 1008 0 l 258
 1062 0 1089 40 1089 80 c 256
 1089 120 1063 161 1008 161 c 258
 379 161 l 257
 379 1332 l 258
 379 1397 329 1429 279 1429 c 256
 227 1429 177 1396 177 1332 c 258
 177 100 l 258
 177 44 224 0 279 0 c 258
EndSplineSet
EndChar

StartChar: Lslash
Encoding: 321 321 67
Width: 1157
VWidth: 0
GlyphClass: 2
Flags: HW
LayerCount: 2
Fore
SplineSet
534 850 m 2
 554.418072438 863.548502677 562.906363326 883.104313624 562.906363326 902.705103462 c 0
 562.906363326 938.392045035 534.768457644 974.228087506 499.263477101 974.228087506 c 0
 488.338154994 974.228087506 476.715267336 970.834883395 465 963 c 2
 379 908.393316195 l 1
 379 1332 l 2
 379 1397 329 1429 279 1429 c 0
 227 1429 177 1396 177 1332 c 2
 177 780.131105398 l 1
 76 716 l 2
 53.6246084245 701.0359935 44.2462686364 679.304435283 44.2462686364 658.073083688 c 0
 44.2462686364 623.216664944 69.5238901941 589.708462835 104.066255624 589.708462835 c 0
 115.549682066 589.708462835 128.057043193 593.411771943 141 602 c 2
 177 624.717557252 l 1
 177 100 l 2
 177 44 224 0 279 0 c 2
 1008 0 l 2
 1062 0 1089 40 1089 80 c 0
 1089 120 1063 161 1008 161 c 2
 379 161 l 1
 379 752.188295165 l 1
 534 850 l 2
EndSplineSet
EndChar

StartChar: M
Encoding: 77 77 68
Width: 1906
VWidth: 0
GlyphClass: 2
Flags: W
PickledData: "(dp1
S'b'
(dp2
sS'anchors'
p3
(tsS'lib'
p4
(dp5
sS'unicodes'
p6
(tsS'width'
p7
I1984
sS'contours'
p8
(tsS'components'
p9
(tsS'com.typemytype.robofont.layerData'
p10
(dp11
S'b'
(dp12
S'name'
p13
S'M'
sg4
(dp14
sg6
(tsg7
I1899
sg8
(tsg9
(tsg3
(tsssg13
S'M'
s."
AnchorPoint: "top" 977 1438 basechar 0
LayerCount: 2
Fore
SplineSet
951 37 m 256
 996 37 1045 67 1071 126 c 258
 1537 1172 l 257
 1537 83 l 258
 1537 35 1583 11 1630 11 c 256
 1676 11 1723 35 1723 83 c 258
 1723 1267 l 258
 1723 1347 1649 1403 1570 1403 c 256
 1508 1403 1442 1369 1405 1284 c 258
 951 276 l 257
 497 1284 l 258
 459 1369 393 1403 331 1403 c 256
 252 1403 179 1347 179 1267 c 258
 179 83 l 258
 179 35 226 11 272 11 c 256
 319 11 365 35 365 83 c 258
 365 1172 l 257
 831 126 l 258
 857 67 906 37 951 37 c 256
EndSplineSet
EndChar

StartChar: N
Encoding: 78 78 69
Width: 1515
VWidth: 0
GlyphClass: 2
Flags: W
PickledData: "(dp1
S'b'
(dp2
sS'anchors'
p3
(tsS'lib'
p4
(dp5
sS'unicodes'
p6
(tsS'width'
p7
I1557
sS'contours'
p8
(tsS'components'
p9
(tsS'com.typemytype.robofont.layerData'
p10
(dp11
S'b'
(dp12
S'name'
p13
S'N'
sg4
(dp14
sg6
(tsg7
I1499
sg8
(tsg9
(tsg3
(tsssg13
S'N'
s."
AnchorPoint: "bot" 783 0 basechar 0
AnchorPoint: "top" 797 1438 basechar 0
LayerCount: 2
Fore
SplineSet
268 0 m 256
 315 0 362 30 362 89 c 258
 362 1126 l 257
 1093 66 l 258
 1124 21 1175 0 1217 0 c 256
 1284 0 1340 47 1340 129 c 258
 1340 1340 l 258
 1340 1399 1293 1429 1247 1429 c 256
 1199 1429 1154 1399 1154 1340 c 258
 1154 290 l 257
 426 1350 l 258
 388 1405 332 1429 289 1429 c 256
 226 1429 175 1382 175 1300 c 258
 175 89 l 258
 175 29 221 0 268 0 c 256
EndSplineSet
EndChar

StartChar: O
Encoding: 79 79 74
Width: 1599
VWidth: 0
GlyphClass: 2
Flags: W
PickledData: "(dp1
S'b'
(dp2
sS'anchors'
p3
(tsS'com.typemytype.robofont.layerData'
p4
(dp5
S'b'
(dp6
S'name'
p7
S'O'
sS'lib'
p8
(dp9
sS'unicodes'
p10
(tsS'width'
p11
I1597
sS'contours'
p12
(tsS'components'
p13
(tsg3
(tsssg10
(tsg7
S'O'
sg11
I1604
sg12
(tsg13
(tsg8
(dp14
sS'com.typemytype.robofont.guides'
p15
(ts."
AnchorPoint: "top" 801 1438 basechar 0
LayerCount: 2
Fore
SplineSet
800 -22 m 256
 1222 -22 1476 266 1476 714 c 256
 1476 1162 1222 1450 800 1450 c 256
 378 1450 123 1162 123 714 c 256
 123 266 378 -22 800 -22 c 256
800 140 m 256
 505 140 337 361 337 714 c 256
 337 1066 504 1288 800 1288 c 256
 1095 1288 1262 1066 1262 714 c 256
 1262 361 1095 140 800 140 c 256
EndSplineSet
EndChar

StartChar: OE
Encoding: 338 338 75
Width: 1998
VWidth: 0
GlyphClass: 2
Flags: W
LayerCount: 2
Fore
SplineSet
731 126 m 256
 444 126 317 405 317 715 c 256
 317 1026 447 1301 731 1301 c 256
 944 1301 1059 1280 1065 1279 c 257
 1065 154 l 257
 1061 151 932 129 731 126 c 256
722 -28 m 256
 848 -28 1073 -1 1086 -1 c 258
 1796 -1 l 258
 1849 -1 1876 38 1876 78 c 256
 1876 118 1849 158 1796 158 c 258
 1262 158 l 257
 1262 655 l 257
 1737 655 l 258
 1792 655 1820 694 1820 734 c 256
 1820 774 1792 814 1737 814 c 258
 1262 814 l 257
 1262 1270 l 257
 1771 1270 l 258
 1825 1270 1853 1310 1853 1350 c 256
 1853 1390 1825 1429 1771 1429 c 258
 1100 1429 l 258
 1085 1429 865 1455 733 1455 c 256
 347 1455 114 1165 114 714 c 256
 114 264 348 -28 722 -28 c 256
EndSplineSet
EndChar

StartChar: Omega
Encoding: 8486 8486 83
Width: 1497
VWidth: 0
GlyphClass: 2
Flags: W
LayerCount: 2
Fore
SplineSet
266 0 m 258
 744 0 l 257
 547 298 351 638 351 891 c 256
 351 1117 484 1273 835 1273 c 256
 1187 1273 1320 1118 1320 891 c 256
 1320 639 1124 299 927 0 c 257
 1405 0 l 258
 1442 0 1461 37 1461 75 c 256
 1461 111 1442 148 1405 148 c 258
 1137 148 l 257
 1350 394 1515 688 1515 930 c 256
 1515 1220 1375 1460 835 1460 c 256
 341 1460 156 1217 156 930 c 256
 156 688 318 401 533 148 c 257
 266 148 l 258
 228 148 210 111 210 75 c 256
 210 37 228 0 266 0 c 258
EndSplineSet
EndChar

StartChar: Oslash
Encoding: 216 216 84
Width: 1599
VWidth: 0
GlyphClass: 2
Flags: W
PickledData: "(dp1
S'com.typemytype.robofont.layerData'
p2
(dp3
S'b'
(dp4
S'name'
p5
S'Oslash'
p6
sS'lib'
p7
(dp8
sS'unicodes'
p9
(tsS'width'
p10
I1597
sS'contours'
p11
(tsS'components'
p12
(tsS'anchors'
p13
(tsss."
LayerCount: 2
Fore
SplineSet
281 -135 m 256
 304 -135 323 -123 345 -94 c 258
 450.999 61.2026 l 257
 548.571 7.10492 665.847 -22 800 -22 c 256
 1222 -22 1476 266 1476 714 c 256
 1476 950.174 1405.41 1141.88 1276.83 1270.37 c 257
 1392 1439 l 258
 1406 1460 1413 1481 1413 1499 c 256
 1413 1535 1384 1559 1352 1559 c 256
 1331 1559 1307 1551 1289 1523 c 258
 1173.34 1352.36 l 257
 1071.26 1415.7 945.633 1450 800 1450 c 256
 378 1450 123 1162 123 714 c 256
 123 463.006 203.041 262.233 347.647 134.192 c 257
 235 -32 l 258
 225 -47 220 -62 220 -76 c 256
 220 -110 248 -135 281 -135 c 256
1162.93 1103.61 m 257
 1227.77 1006.07 1262 873.359 1262 714 c 256
 1262 361 1095 140 800 140 c 256
 702.987 140 619.709 163.9 551.624 208.536 c 257
 1162.93 1103.61 l 257
1071.7 1202.42 m 257
 457.076 295.635 l 257
 378.716 394.971 337 538.097 337 714 c 256
 337 1066 504 1288 800 1288 c 256
 908.545 1288 999.76 1257.94 1071.7 1202.42 c 257
EndSplineSet
EndChar

StartChar: P
Encoding: 80 80 87
Width: 1234
VWidth: 0
GlyphClass: 2
Flags: W
PickledData: "(dp1
S'b'
(dp2
sS'anchors'
p3
(tsS'lib'
p4
(dp5
sS'unicodes'
p6
(tsS'width'
p7
I1319
sS'contours'
p8
(tsS'components'
p9
(tsS'com.typemytype.robofont.layerData'
p10
(dp11
S'b'
(dp12
S'name'
p13
S'P'
sg4
(dp14
sg6
(tsg7
I1201
sg8
((dp15
S'points'
p16
((dp17
S'segmentType'
p18
S'curve'
p19
sS'x'
I266
sS'smooth'
p20
I1
sS'y'
I0
s(dp21
g18
S'line'
p22
sS'x'
I1035
sg20
I1
sS'y'
I0
s(dp23
S'y'
I0
sS'x'
I1084
sg20
I0
s(dp24
S'y'
I34
sS'x'
I1108
sg20
I0
s(dp25
g18
S'curve'
p26
sS'x'
I1108
sg20
I1
sS'y'
I71
s(dp27
S'y'
I107
sS'x'
I1108
sg20
I0
s(dp28
S'y'
I141
sS'x'
I1084
sg20
I0
s(dp29
g18
S'curve'
p30
sS'x'
I1035
sg20
I1
sS'y'
I141
s(dp31
g18
S'line'
p32
sS'x'
I356
sg20
I0
sS'y'
I141
s(dp33
g18
S'line'
p34
sS'x'
I356
sg20
I0
sS'y'
I665
s(dp35
g18
S'line'
p36
sS'x'
I975
sg20
I1
sS'y'
I665
s(dp37
S'y'
I665
sS'x'
I1024
sg20
I0
s(dp38
S'y'
I698
sS'x'
I1049
sg20
I0
s(dp39
g18
S'curve'
p40
sS'x'
I1049
sg20
I1
sS'y'
I734
s(dp41
S'y'
I770
sS'x'
I1049
sg20
I0
s(dp42
S'y'
I803
sS'x'
I1026
sg20
I0
s(dp43
g18
S'curve'
p44
sS'x'
I975
sg20
I1
sS'y'
I803
s(dp45
g18
S'line'
p46
sS'x'
I356
sg20
I0
sS'y'
I803
s(dp47
g18
S'line'
p48
sS'x'
I356
sg20
I0
sS'y'
I1285
s(dp49
g18
S'line'
p50
sS'x'
I1007
sg20
I1
sS'y'
I1285
s(dp51
S'y'
I1285
sS'x'
I1056
sg20
I0
s(dp52
S'y'
I1319
sS'x'
I1080
sg20
I0
s(dp53
g18
S'curve'
p54
sS'x'
I1080
sg20
I1
sS'y'
I1356
s(dp55
S'y'
I1392
sS'x'
I1080
sg20
I0
s(dp56
S'y'
I1426
sS'x'
I1056
sg20
I0
s(dp57
g18
S'curve'
p58
sS'x'
I1007
sg20
I1
sS'y'
I1426
s(dp59
g18
S'line'
p60
sS'x'
I261
sg20
I1
sS'y'
I1426
s(dp61
S'y'
I1426
sS'x'
I213
sg20
I0
s(dp62
S'y'
I1383
sS'x'
I178
sg20
I0
s(dp63
g18
S'curve'
p64
sS'x'
I178
sg20
I1
sS'y'
I1340
s(dp65
g18
S'line'
p66
sS'x'
I178
sg20
I1
sS'y'
I86
s(dp67
S'y'
I41
sS'x'
I178
sg20
I0
s(dp68
S'y'
I0
sS'x'
I222
sg20
I0
stp69
stp70
sg9
(tsg3
(tsssg13
S'P'
s."
AnchorPoint: "top" 648 1438 basechar 0
LayerCount: 2
Fore
SplineSet
379 769 m 257
 379 1269 l 257
 694 1269 l 258
 909 1269 1007 1206 1007 1022 c 256
 1007 834 900 769 683 769 c 258
 379 769 l 257
278 0 m 256
 329 0 379 31 379 96 c 258
 379 615 l 257
 684 615 l 258
 989 615 1206 714 1206 1022 c 256
 1206 1323 1014 1429 702 1429 c 258
 279 1429 l 258
 221 1429 177 1384 177 1329 c 258
 177 96 l 258
 177 32 227 0 278 0 c 256
EndSplineSet
EndChar

StartChar: Q
Encoding: 81 81 88
Width: 1599
VWidth: 0
GlyphClass: 2
Flags: W
PickledData: "(dp1
S'b'
(dp2
sS'anchors'
p3
(tsS'lib'
p4
(dp5
sS'unicodes'
p6
(tsS'width'
p7
I1604
sS'contours'
p8
(tsS'components'
p9
(tsS'com.typemytype.robofont.layerData'
p10
(dp11
S'b'
(dp12
S'name'
p13
S'Q'
sg4
(dp14
sg6
(tsg7
I1597
sg8
(tsg9
(tsg3
(tsssg13
S'Q'
s."
LayerCount: 2
Fore
SplineSet
1304 -221 m 256
 1344 -221 1380 -186 1380 -141 c 256
 1380 -114 1366 -87 1333 -71 c 258
 1005 77 l 257
 725 32 l 257
 1269 -213 l 258
 1281 -219 1293 -221 1304 -221 c 256
EndSplineSet
Refer: 74 79 N 1 0 0 1 0 0 2
EndChar

StartChar: R
Encoding: 82 82 89
Width: 1365
VWidth: 0
GlyphClass: 2
Flags: W
PickledData: "(dp1
S'b'
(dp2
sS'anchors'
p3
(tsS'com.typemytype.robofont.layerData'
p4
(dp5
S'b'
(dp6
S'name'
p7
S'R'
sS'lib'
p8
(dp9
sS'unicodes'
p10
(tsS'width'
p11
I1363
sS'contours'
p12
((dp13
S'points'
p14
((dp15
S'segmentType'
p16
S'curve'
p17
sS'x'
I267
sS'smooth'
p18
I1
sS'y'
I0
s(dp19
S'y'
I0
sS'x'
I311
sg18
I0
s(dp20
S'y'
I27
sS'x'
I356
sg18
I0
s(dp21
g16
S'curve'
p22
sS'x'
I356
sg18
I1
sS'y'
I84
s(dp23
g16
S'line'
p24
sS'x'
I356
sg18
I0
sS'y'
I628
s(dp25
g16
S'line'
p26
sS'x'
I669
sg18
I1
sS'y'
I628
s(dp27
S'y'
I628
sS'x'
I962
sg18
I0
s(dp28
S'y'
I722
sS'x'
I1182
sg18
I0
s(dp29
g16
S'curve'
p30
sS'x'
I1182
sg18
I1
sS'y'
I1026
s(dp31
S'y'
I1324
sS'x'
I1182
sg18
I0
s(dp32
S'y'
I1426
sS'x'
I993
sg18
I0
s(dp33
g16
S'curve'
p34
sS'x'
I684
sg18
I1
sS'y'
I1426
s(dp35
g16
S'line'
p36
sS'x'
I268
sg18
I1
sS'y'
I1426
s(dp37
S'y'
I1426
sS'x'
I217
sg18
I0
s(dp38
S'y'
I1387
sS'x'
I178
sg18
I0
s(dp39
g16
S'curve'
p40
sS'x'
I178
sg18
I1
sS'y'
I1339
s(dp41
g16
S'line'
p42
sS'x'
I178
sg18
I1
sS'y'
I84
s(dp43
S'y'
I28
sS'x'
I178
sg18
I0
s(dp44
S'y'
I0
sS'x'
I222
sg18
I0
stp45
s(dp46
g14
((dp47
g16
S'line'
p48
sS'x'
I356
sg18
I0
sS'y'
I764
s(dp49
g16
S'line'
p50
sS'x'
I356
sg18
I0
sS'y'
I1285
s(dp51
g16
S'line'
p52
sS'x'
I684
sg18
I1
sS'y'
I1285
s(dp53
S'y'
I1285
sS'x'
I914
sg18
I0
s(dp54
S'y'
I1210
sS'x'
I1008
sg18
I0
s(dp55
g16
S'curve'
p56
sS'x'
I1008
sg18
I1
sS'y'
I1026
s(dp57
S'y'
I838
sS'x'
I1008
sg18
I0
s(dp58
S'y'
I764
sS'x'
I901
sg18
I0
s(dp59
g16
S'curve'
p60
sS'x'
I670
sg18
I1
sS'y'
I764
stp61
stp62
sS'components'
p63
(tsg3
(tsssg10
(tsg7
S'R'
sg11
I1408
sg12
(tsg63
(tsg8
(dp64
sS'com.typemytype.robofont.guides'
p65
(ts."
AnchorPoint: "bot" 717 0 basechar 0
AnchorPoint: "top" 682 1438 basechar 0
LayerCount: 2
Fore
SplineSet
379 809 m 257
 379 1269 l 257
 697 1269 l 258
 839 1269 1020 1258 1020 1051 c 256
 1020 841 846 809 670 809 c 258
 379 809 l 257
277 1 m 256
 327 1 379 32 379 97 c 258
 379 654 l 257
 713 654 l 258
 921 654 962 599 988 370 c 258
 1019 91 l 258
 1025 30 1080 1 1128 1 c 256
 1177 1 1223 35 1223 91 c 256
 1223 95 1223 100 1222 105 c 258
 1186 419 l 258
 1166 591 1087 704 920 740 c 257
 920 744 l 257
 1127 783 1222 911 1222 1070 c 256
 1222 1368 964 1429 712 1429 c 258
 278 1429 l 258
 222 1429 177 1385 177 1331 c 258
 177 97 l 258
 177 32 227 1 277 1 c 256
EndSplineSet
EndChar

StartChar: S
Encoding: 83 83 93
Width: 1286
VWidth: 0
GlyphClass: 2
Flags: W
PickledData: "(dp1
S'b'
(dp2
sS'anchors'
p3
(tsS'lib'
p4
(dp5
sS'unicodes'
p6
(tsS'width'
p7
I1317
sS'contours'
p8
(tsS'components'
p9
(tsS'com.typemytype.robofont.layerData'
p10
(dp11
S'b'
(dp12
S'name'
p13
S'S'
sg4
(dp14
sg6
(tsg7
I1274
sg8
(tsg9
(tsg3
(tsssg13
S'S'
s."
AnchorPoint: "bot" 642 6 basechar 0
AnchorPoint: "top" 652 1438 basechar 0
LayerCount: 2
Fore
SplineSet
636 -22 m 256
 963 -22 1173 127 1173 392 c 256
 1173 614 1032 706 817 776 c 258
 529 869 l 258
 399 912 334 966 334 1074 c 256
 334 1216 471 1288 664 1288 c 256
 823 1288 957 1219 1015 1181 c 256
 1030 1171 1045 1167 1059 1167 c 256
 1102 1167 1137 1208 1137 1248 c 256
 1137 1266 1130 1284 1114 1298 c 256
 1032 1371 849 1450 648 1450 c 256
 362 1450 140 1306 140 1068 c 256
 140 867 256 773 455 706 c 258
 742 610 l 258
 900 557 976 509 976 366 c 256
 976 213 829 140 645 140 c 256
 468 140 332 209 251 272 c 256
 243 278 235 280 226 280 c 256
 184 280 134 222 134 180 c 256
 134 168 137 158 146 150 c 256
 245 58 403 -22 636 -22 c 256
EndSplineSet
EndChar

StartChar: Sigma
Encoding: 931 931 99
Width: 1383
VWidth: 0
GlyphClass: 2
Flags: W
LayerCount: 2
Fore
SplineSet
271 -128 m 258
 1161 -127 l 258
 1212 -127 1238 -81 1238 -35 c 256
 1238 11 1212 57 1161 57 c 258
 350 57 l 257
 832 537 l 258
 876 580 899 617 899 654 c 256
 899 690 877 727 832 771 c 258
 351 1250 l 257
 1161 1250 l 258
 1212 1250 1238 1296 1238 1342 c 256
 1238 1388 1212 1434 1161 1434 c 258
 286 1434 l 258
 204 1434 141 1380 141 1305 c 256
 141 1263 161 1214 209 1166 c 258
 712 657 l 257
 209 131 l 258
 163 84 144 35 144 -7 c 256
 144 -76 197 -128 271 -128 c 258
EndSplineSet
EndChar

StartChar: T
Encoding: 84 84 100
Width: 1169
VWidth: 0
GlyphClass: 2
Flags: W
PickledData: "(dp1
S'b'
(dp2
sS'anchors'
p3
(tsS'lib'
p4
(dp5
sS'unicodes'
p6
(tsS'width'
p7
I1199
sS'contours'
p8
(tsS'components'
p9
(tsS'com.typemytype.robofont.layerData'
p10
(dp11
S'b'
(dp12
S'name'
p13
S'T'
sg4
(dp14
sg6
(tsg7
I1158
sg8
((dp15
S'points'
p16
((dp17
S'segmentType'
p18
S'curve'
p19
sS'x'
I581
sS'smooth'
p20
I1
sS'y'
I0
s(dp21
g18
S'line'
p22
sS'x'
I1350
sg20
I1
sS'y'
I0
s(dp23
S'y'
I0
sS'x'
I1399
sg20
I0
s(dp24
S'y'
I34
sS'x'
I1423
sg20
I0
s(dp25
g18
S'curve'
p26
sS'x'
I1423
sg20
I1
sS'y'
I71
s(dp27
S'y'
I107
sS'x'
I1423
sg20
I0
s(dp28
S'y'
I141
sS'x'
I1399
sg20
I0
s(dp29
g18
S'curve'
p30
sS'x'
I1350
sg20
I1
sS'y'
I141
s(dp31
g18
S'line'
p32
sS'x'
I671
sg20
I0
sS'y'
I141
s(dp33
g18
S'line'
p34
sS'x'
I671
sg20
I0
sS'y'
I665
s(dp35
g18
S'line'
p36
sS'x'
I1290
sg20
I1
sS'y'
I665
s(dp37
S'y'
I665
sS'x'
I1339
sg20
I0
s(dp38
S'y'
I698
sS'x'
I1364
sg20
I0
s(dp39
g18
S'curve'
p40
sS'x'
I1364
sg20
I1
sS'y'
I734
s(dp41
S'y'
I770
sS'x'
I1364
sg20
I0
s(dp42
S'y'
I803
sS'x'
I1341
sg20
I0
s(dp43
g18
S'curve'
p44
sS'x'
I1290
sg20
I1
sS'y'
I803
s(dp45
g18
S'line'
p46
sS'x'
I671
sg20
I0
sS'y'
I803
s(dp47
g18
S'line'
p48
sS'x'
I671
sg20
I0
sS'y'
I1285
s(dp49
g18
S'line'
p50
sS'x'
I1322
sg20
I1
sS'y'
I1285
s(dp51
S'y'
I1285
sS'x'
I1371
sg20
I0
s(dp52
S'y'
I1319
sS'x'
I1395
sg20
I0
s(dp53
g18
S'curve'
p54
sS'x'
I1395
sg20
I1
sS'y'
I1356
s(dp55
S'y'
I1392
sS'x'
I1395
sg20
I0
s(dp56
S'y'
I1426
sS'x'
I1371
sg20
I0
s(dp57
g18
S'curve'
p58
sS'x'
I1322
sg20
I1
sS'y'
I1426
s(dp59
g18
S'line'
p60
sS'x'
I576
sg20
I1
sS'y'
I1426
s(dp61
S'y'
I1426
sS'x'
I528
sg20
I0
s(dp62
S'y'
I1383
sS'x'
I493
sg20
I0
s(dp63
g18
S'curve'
p64
sS'x'
I493
sg20
I1
sS'y'
I1340
s(dp65
g18
S'line'
p66
sS'x'
I493
sg20
I1
sS'y'
I86
s(dp67
S'y'
I41
sS'x'
I493
sg20
I0
s(dp68
S'y'
I0
sS'x'
I537
sg20
I0
stp69
stp70
sg9
(tsg3
(tsssg13
S'T'
s."
AnchorPoint: "mid" 592 728 basechar 0
AnchorPoint: "bot" 587 6 basechar 0
AnchorPoint: "top" 601 1438 basechar 0
LayerCount: 2
Fore
SplineSet
587 0 m 256
 637 0 688 33 688 97 c 258
 688 1268 l 257
 1060 1268 l 258
 1115 1268 1143 1309 1143 1349 c 256
 1143 1389 1116 1429 1060 1429 c 258
 109 1429 l 258
 54 1429 26 1389 26 1349 c 256
 26 1308 54 1268 109 1268 c 258
 486 1268 l 257
 486 97 l 258
 486 33 536 0 587 0 c 256
EndSplineSet
EndChar

StartChar: Thorn
Encoding: 222 222 105
Width: 1293
VWidth: 0
GlyphClass: 2
Flags: W
LayerCount: 2
Fore
SplineSet
393 548 m 257
 393 1075 l 257
 676 1075 l 258
 863 1075 1019 1017 1019 813 c 256
 1019 607 862 548 671 548 c 258
 393 548 l 257
291 -1 m 256
 342 -1 393 30 393 96 c 258
 393 396 l 257
 651 396 l 258
 947 396 1228 491 1228 813 c 256
 1228 1130 952 1227 664 1227 c 258
 393 1227 l 257
 393 1342 l 258
 393 1406 342 1438 290 1438 c 256
 240 1438 189 1406 189 1342 c 258
 189 96 l 258
 189 31 240 -1 291 -1 c 256
EndSplineSet
EndChar

StartChar: U
Encoding: 85 85 106
Width: 1496
VWidth: 0
GlyphClass: 2
Flags: W
PickledData: "(dp1
S'b'
(dp2
sS'anchors'
p3
(tsS'lib'
p4
(dp5
sS'unicodes'
p6
(tsS'width'
p7
I1513
sS'contours'
p8
(tsS'components'
p9
(tsS'com.typemytype.robofont.layerData'
p10
(dp11
S'b'
(dp12
S'name'
p13
S'U'
sg4
(dp14
sg6
(tsg7
I1490
sg8
(tsg9
(tsg3
(tsssg13
S'U'
s."
AnchorPoint: "ogonek" 869 9 basechar 0
AnchorPoint: "top" 762 1438 basechar 0
LayerCount: 2
Fore
SplineSet
748 -22 m 256
 1046 -22 1314 146 1314 497 c 258
 1314 1334 l 258
 1314 1399 1264 1432 1214 1432 c 256
 1162 1432 1112 1399 1112 1334 c 258
 1112 502 l 258
 1112 253 930 140 748 140 c 256
 567 140 386 253 386 502 c 258
 386 1334 l 258
 386 1399 336 1432 285 1432 c 256
 233 1432 183 1399 183 1334 c 258
 183 497 l 258
 183 146 450 -22 748 -22 c 256
EndSplineSet
EndChar

StartChar: V
Encoding: 86 86 117
Width: 1310
VWidth: 0
GlyphClass: 2
Flags: W
PickledData: "(dp1
S'b'
(dp2
sS'anchors'
p3
(tsS'com.typemytype.robofont.layerData'
p4
(dp5
S'b'
(dp6
S'name'
p7
S'V'
sS'lib'
p8
(dp9
sS'unicodes'
p10
(tsS'width'
p11
I1289
sS'contours'
p12
((dp13
S'points'
p14
((dp15
S'segmentType'
p16
S'curve'
p17
sS'x'
I644
sS'smooth'
p18
I1
sS'y'
S'-5'
p19
s(dp20
S'y'
S'-5'
p21
sS'x'
I712
sg18
I0
s(dp22
S'y'
I38
sS'x'
I764
sg18
I0
s(dp23
g16
S'curve'
p24
sS'x'
I793
sg18
I1
sS'y'
I117
s(dp25
g16
S'line'
p26
sS'x'
I1243
sg18
I1
sS'y'
I1324
s(dp27
S'y'
I1335
sS'x'
I1247
sg18
I0
s(dp28
S'y'
I1342
sS'x'
I1248
sg18
I0
s(dp29
g16
S'curve'
p30
sS'x'
I1248
sg18
I1
sS'y'
I1351
s(dp31
S'y'
I1395
sS'x'
I1248
sg18
I0
s(dp32
S'y'
I1427
sS'x'
I1203
sg18
I0
s(dp33
g16
S'curve'
p34
sS'x'
I1160
sg18
I1
sS'y'
I1427
s(dp35
S'y'
I1427
sS'x'
I1125
sg18
I0
s(dp36
S'y'
I1408
sS'x'
I1090
sg18
I0
s(dp37
g16
S'curve'
p38
sS'x'
I1076
sg18
I1
sS'y'
I1369
s(dp39
g16
S'line'
p40
sS'x'
I651
sg18
I0
sS'y'
I192
s(dp41
g16
S'line'
p42
sS'x'
I650
sg18
I0
sS'y'
I190
s(dp43
g16
S'line'
p44
sS'x'
I214
sg18
I1
sS'y'
I1370
s(dp45
S'y'
I1407
sS'x'
I200
sg18
I0
s(dp46
S'y'
I1427
sS'x'
I170
sg18
I0
s(dp47
g16
S'curve'
p48
sS'x'
I135
sg18
I1
sS'y'
I1427
s(dp49
S'y'
I1427
sS'x'
I90
sg18
I0
s(dp50
S'y'
I1392
sS'x'
I43
sg18
I0
s(dp51
g16
S'curve'
p52
sS'x'
I43
sg18
I1
sS'y'
I1344
s(dp53
S'y'
I1336
sS'x'
I43
sg18
I0
s(dp54
S'y'
I1326
sS'x'
I44
sg18
I0
s(dp55
g16
S'curve'
p56
sS'x'
I48
sg18
I0
sS'y'
I1318
s(dp57
g16
S'line'
p58
sS'x'
I501
sg18
I1
sS'y'
I117
s(dp59
S'y'
I35
sS'x'
I532
sg18
I0
s(dp60
S'y'
S'-5'
p61
sS'x'
I581
sg18
I0
stp62
stp63
sS'components'
p64
(tsg3
(tsssg10
(tsg7
S'V'
sg11
I1365
sg12
(tsg64
(tsg8
(dp65
sS'com.typemytype.robofont.guides'
p66
(ts."
LayerCount: 2
Fore
SplineSet
661 -8 m 256
 737 -8 794 32 831 133 c 258
 1264 1311 l 258
 1268 1322 1270 1333 1270 1343 c 256
 1270 1396 1218 1432 1167 1432 c 256
 1130 1432 1093 1413 1077 1368 c 258
 661 212 l 257
 246 1368 l 258
 230 1413 193 1432 156 1432 c 256
 105 1432 52 1396 52 1343 c 256
 52 1333 54 1322 58 1311 c 258
 491 133 l 258
 528 32 585 -8 661 -8 c 256
EndSplineSet
EndChar

StartChar: W
Encoding: 87 87 118
Width: 2110
VWidth: 0
GlyphClass: 2
Flags: W
PickledData: "(dp1
S'b'
(dp2
sS'anchors'
p3
(tsS'lib'
p4
(dp5
sS'unicodes'
p6
(tsS'width'
p7
I2070
sS'contours'
p8
(tsS'components'
p9
(tsS'com.typemytype.robofont.layerData'
p10
(dp11
S'b'
(dp12
S'name'
p13
S'W'
sg4
(dp14
sg6
(tsg7
I2126
sg8
(tsg9
(tsg3
(tsssg13
S'W'
s."
AnchorPoint: "top" 1050 1438 basechar 0
LayerCount: 2
Fore
SplineSet
1711 110 m 258
 2038 1311 l 258
 2041 1322 2042 1332 2042 1341 c 256
 2042 1399 1992 1432 1943 1432 c 256
 1903 1432 1862 1410 1850 1363 c 258
 1551 196 l 257
 1192 1306 l 258
 1156 1413 1113 1430 1051 1430 c 256
 990 1430 944 1407 911 1306 c 258
 552 196 l 257
 253 1363 l 258
 241 1410 200 1432 160 1432 c 256
 111 1432 61 1399 61 1341 c 256
 61 1332 62 1322 65 1311 c 258
 392 110 l 258
 413 33 476 -4 539 -4 c 256
 603 -4 668 34 693 108 c 258
 1051 1200 l 257
 1410 108 l 258
 1435 33 1499 -4 1562 -4 c 256
 1627 -4 1691 35 1711 110 c 258
EndSplineSet
EndChar

StartChar: X
Encoding: 88 88 123
Width: 1287
VWidth: 0
GlyphClass: 2
Flags: W
PickledData: "(dp1
S'b'
(dp2
sS'anchors'
p3
(tsS'lib'
p4
(dp5
sS'unicodes'
p6
(tsS'width'
p7
I1322
sS'contours'
p8
(tsS'components'
p9
(tsS'com.typemytype.robofont.layerData'
p10
(dp11
S'b'
(dp12
S'name'
p13
S'X'
sg4
(dp14
sg6
(tsg7
I1274
sg8
((dp15
S'points'
p16
((dp17
S'segmentType'
p18
S'curve'
p19
sS'x'
I151
sS'smooth'
p20
I1
sS'y'
I0
s(dp21
S'y'
I0
sS'x'
I176
sg20
I0
s(dp22
S'y'
I12
sS'x'
I201
sg20
I0
s(dp23
g18
S'curve'
p24
sS'x'
I222
sg20
I1
sS'y'
I41
s(dp25
g18
S'line'
p26
sS'x'
I641
sg20
I0
sS'y'
I616
s(dp27
g18
S'line'
p28
sS'x'
I746
sg20
I0
sS'y'
I734
s(dp29
g18
S'line'
p30
sS'x'
I1175
sg20
I1
sS'y'
I1310
s(dp31
S'y'
I1325
sS'x'
I1186
sg20
I0
s(dp32
S'y'
I1338
sS'x'
I1190
sg20
I0
s(dp33
g18
S'curve'
p34
sS'x'
I1190
sg20
I1
sS'y'
I1353
s(dp35
S'y'
I1393
sS'x'
I1190
sg20
I0
s(dp36
S'y'
I1426
sS'x'
I1153
sg20
I0
s(dp37
g18
S'curve'
p38
sS'x'
I1110
sg20
I1
sS'y'
I1426
s(dp39
S'y'
I1426
sS'x'
I1083
sg20
I0
s(dp40
S'y'
I1414
sS'x'
I1058
sg20
I0
s(dp41
g18
S'curve'
p42
sS'x'
I1037
sg20
I1
sS'y'
I1385
s(dp43
g18
S'line'
p44
sS'x'
I648
sg20
I0
sS'y'
I844
s(dp45
g18
S'line'
p46
sS'x'
I542
sg20
I0
sS'y'
I732
s(dp47
g18
S'line'
p48
sS'x'
I84
sg20
I1
sS'y'
I121
s(dp49
S'y'
I106
sS'x'
I73
sg20
I0
s(dp50
S'y'
I91
sS'x'
I68
sg20
I0
s(dp51
g18
S'curve'
p52
sS'x'
I68
sg20
I1
sS'y'
I76
s(dp53
S'y'
I35
sS'x'
I68
sg20
I0
s(dp54
S'y'
I0
sS'x'
I108
sg20
I0
stp55
s(dp56
g16
((dp57
g18
S'curve'
p58
sS'x'
I1104
sg20
I1
sS'y'
I0
s(dp59
S'y'
I0
sS'x'
I1151
sg20
I0
s(dp60
S'y'
I40
sS'x'
I1200
sg20
I0
s(dp61
g18
S'curve'
p62
sS'x'
I1200
sg20
I1
sS'y'
I85
s(dp63
S'y'
I98
sS'x'
I1200
sg20
I0
s(dp64
S'y'
I113
sS'x'
I1195
sg20
I0
s(dp65
g18
S'curve'
p66
sS'x'
I1186
sg20
I0
sS'y'
I126
s(dp67
g18
S'line'
p68
sS'x'
I272
sg20
I0
sS'y'
I1385
s(dp69
S'y'
I1414
sS'x'
I252
sg20
I0
s(dp70
S'y'
I1426
sS'x'
I225
sg20
I0
s(dp71
g18
S'curve'
p72
sS'x'
I197
sg20
I1
sS'y'
I1426
s(dp73
S'y'
I1426
sS'x'
I149
sg20
I0
s(dp74
S'y'
I1388
sS'x'
I100
sg20
I0
s(dp75
g18
S'curve'
p76
sS'x'
I100
sg20
I1
sS'y'
I1343
s(dp77
S'y'
I1328
sS'x'
I100
sg20
I0
s(dp78
S'y'
I1315
sS'x'
I105
sg20
I0
s(dp79
g18
S'curve'
p80
sS'x'
I114
sg20
I0
sS'y'
I1303
s(dp81
g18
S'line'
p82
sS'x'
I1033
sg20
I0
sS'y'
I40
s(dp83
S'y'
I13
sS'x'
I1052
sg20
I0
s(dp84
S'y'
I0
sS'x'
I1076
sg20
I0
stp85
stp86
sg9
(tsg3
(tsssg13
S'X'
s."
LayerCount: 2
Fore
SplineSet
1034 39 m 258
 1054 11 1081 0 1109 -0 c 256
 1160 0 1212 40 1212 90 c 256
 1212 106 1206 124 1194 141 c 258
 767 724 l 257
 1197 1301 l 258
 1210 1318 1215 1336 1215 1352 c 256
 1215 1395 1177 1430 1132 1430 c 256
 1104 1430 1074 1417 1049 1384 c 258
 662 867 l 257
 281 1386 l 258
 259 1416 231 1429 204 1429 c 256
 151 1429 101 1381 101 1332 c 256
 101 1317 105 1302 116 1288 c 258
 534 719 l 257
 90 138 l 258
 76 120 70 101 70 83 c 256
 70 37 111 -2 158 -2 c 256
 185 -2 214 11 238 43 c 258
 637 579 l 257
 1034 39 l 258
EndSplineSet
EndChar

StartChar: Y
Encoding: 89 89 124
Width: 1285
VWidth: 0
GlyphClass: 2
Flags: W
PickledData: "(dp1
S'b'
(dp2
sS'anchors'
p3
(tsS'com.typemytype.robofont.layerData'
p4
(dp5
S'b'
(dp6
S'name'
p7
S'Y'
sS'lib'
p8
(dp9
sS'unicodes'
p10
(tsS'width'
p11
I1278
sS'contours'
p12
((dp13
S'points'
p14
((dp15
S'segmentType'
p16
S'curve'
p17
sS'x'
I641
sS'smooth'
p18
I1
sS'y'
I0
s(dp19
S'y'
I0
sS'x'
I685
sg18
I0
s(dp20
S'y'
I29
sS'x'
I730
sg18
I0
s(dp21
g16
S'curve'
p22
sS'x'
I730
sg18
I1
sS'y'
I85
s(dp23
g16
S'line'
p24
sS'x'
I730
sg18
I0
sS'y'
I1285
s(dp25
g16
S'line'
p26
sS'x'
I1115
sg18
I1
sS'y'
I1285
s(dp27
S'y'
I1285
sS'x'
I1164
sg18
I0
s(dp28
S'y'
I1319
sS'x'
I1190
sg18
I0
s(dp29
g16
S'curve'
p30
sS'x'
I1190
sg18
I1
sS'y'
I1355
s(dp31
S'y'
I1392
sS'x'
I1190
sg18
I0
s(dp32
S'y'
I1426
sS'x'
I1166
sg18
I0
s(dp33
g16
S'curve'
p34
sS'x'
I1115
sg18
I1
sS'y'
I1426
s(dp35
g16
S'line'
p36
sS'x'
I160
sg18
I1
sS'y'
I1426
s(dp37
S'y'
I1426
sS'x'
I111
sg18
I0
s(dp38
S'y'
I1392
sS'x'
I86
sg18
I0
s(dp39
g16
S'curve'
p40
sS'x'
I86
sg18
I1
sS'y'
I1355
s(dp41
S'y'
I1319
sS'x'
I86
sg18
I0
s(dp42
S'y'
I1285
sS'x'
I111
sg18
I0
s(dp43
g16
S'curve'
p44
sS'x'
I160
sg18
I1
sS'y'
I1285
s(dp45
g16
S'line'
p46
sS'x'
I552
sg18
I0
sS'y'
I1285
s(dp47
g16
S'line'
p48
sS'x'
I552
sg18
I1
sS'y'
I85
s(dp49
S'y'
I29
sS'x'
I552
sg18
I0
s(dp50
S'y'
I0
sS'x'
I596
sg18
I0
stp51
stp52
sS'components'
p53
(tsg3
(tsssg10
(tsg7
S'Y'
sg11
I1321
sg12
(tsg53
(tsg8
(dp54
sS'com.typemytype.robofont.guides'
p55
(ts."
AnchorPoint: "top" 664 1438 basechar 0
LayerCount: 2
Fore
SplineSet
541 98 m 258
 541 33 592 1 643 1 c 256
 694 1 744 33 744 97 c 258
 744 603 l 257
 1198 1303 l 258
 1209 1320 1213 1336 1213 1351 c 256
 1213 1395 1172 1429 1128 1429 c 256
 1100 1429 1071 1415 1050 1382 c 258
 654 755 l 257
 260 1379 l 258
 239 1413 208 1427 178 1427 c 256
 126 1427 75 1386 75 1336 c 256
 75 1321 79 1305 89 1290 c 258
 541 596 l 257
 541 98 l 258
EndSplineSet
EndChar

StartChar: Z
Encoding: 90 90 129
Width: 1174
VWidth: 0
GlyphClass: 2
Flags: W
PickledData: "(dp1
S'b'
(dp2
sS'anchors'
p3
(tsS'lib'
p4
(dp5
sS'unicodes'
p6
(tsS'width'
p7
I1222
sS'contours'
p8
(tsS'components'
p9
(tsS'com.typemytype.robofont.layerData'
p10
(dp11
S'b'
(dp12
S'name'
p13
S'Z'
sg4
(dp14
sg6
(tsg7
I1165
sg8
((dp15
S'points'
p16
((dp17
S'segmentType'
p18
S'curve'
p19
sS'x'
I266
sS'smooth'
p20
I1
sS'y'
I0
s(dp21
g18
S'line'
p22
sS'x'
I1035
sg20
I1
sS'y'
I0
s(dp23
S'y'
I0
sS'x'
I1084
sg20
I0
s(dp24
S'y'
I34
sS'x'
I1108
sg20
I0
s(dp25
g18
S'curve'
p26
sS'x'
I1108
sg20
I1
sS'y'
I71
s(dp27
S'y'
I107
sS'x'
I1108
sg20
I0
s(dp28
S'y'
I141
sS'x'
I1084
sg20
I0
s(dp29
g18
S'curve'
p30
sS'x'
I1035
sg20
I1
sS'y'
I141
s(dp31
g18
S'line'
p32
sS'x'
I356
sg20
I0
sS'y'
I141
s(dp33
g18
S'line'
p34
sS'x'
I356
sg20
I0
sS'y'
I665
s(dp35
g18
S'line'
p36
sS'x'
I975
sg20
I1
sS'y'
I665
s(dp37
S'y'
I665
sS'x'
I1024
sg20
I0
s(dp38
S'y'
I698
sS'x'
I1049
sg20
I0
s(dp39
g18
S'curve'
p40
sS'x'
I1049
sg20
I1
sS'y'
I734
s(dp41
S'y'
I770
sS'x'
I1049
sg20
I0
s(dp42
S'y'
I803
sS'x'
I1026
sg20
I0
s(dp43
g18
S'curve'
p44
sS'x'
I975
sg20
I1
sS'y'
I803
s(dp45
g18
S'line'
p46
sS'x'
I356
sg20
I0
sS'y'
I803
s(dp47
g18
S'line'
p48
sS'x'
I356
sg20
I0
sS'y'
I1285
s(dp49
g18
S'line'
p50
sS'x'
I1007
sg20
I1
sS'y'
I1285
s(dp51
S'y'
I1285
sS'x'
I1056
sg20
I0
s(dp52
S'y'
I1319
sS'x'
I1080
sg20
I0
s(dp53
g18
S'curve'
p54
sS'x'
I1080
sg20
I1
sS'y'
I1356
s(dp55
S'y'
I1392
sS'x'
I1080
sg20
I0
s(dp56
S'y'
I1426
sS'x'
I1056
sg20
I0
s(dp57
g18
S'curve'
p58
sS'x'
I1007
sg20
I1
sS'y'
I1426
s(dp59
g18
S'line'
p60
sS'x'
I261
sg20
I1
sS'y'
I1426
s(dp61
S'y'
I1426
sS'x'
I213
sg20
I0
s(dp62
S'y'
I1383
sS'x'
I178
sg20
I0
s(dp63
g18
S'curve'
p64
sS'x'
I178
sg20
I1
sS'y'
I1340
s(dp65
g18
S'line'
p66
sS'x'
I178
sg20
I1
sS'y'
I86
s(dp67
S'y'
I41
sS'x'
I178
sg20
I0
s(dp68
S'y'
I0
sS'x'
I222
sg20
I0
stp69
stp70
sg9
(tsg3
(tsssg13
S'Z'
s."
AnchorPoint: "top" 639 1438 basechar 0
LayerCount: 2
Fore
SplineSet
208 0 m 258
 1033 0 l 258
 1088 0 1114 40 1114 81 c 256
 1114 121 1088 161 1033 161 c 258
 328 161 l 257
 1098 1267 l 258
 1115 1292 1123 1317 1123 1340 c 256
 1123 1391 1085 1429 1025 1429 c 258
 184 1429 l 258
 130 1429 104 1389 104 1350 c 256
 104 1309 131 1268 184 1268 c 258
 886 1268 l 257
 116 163 l 258
 102 142 94 119 94 95 c 256
 94 46 129 0 208 0 c 258
EndSplineSet
EndChar

StartChar: a
Encoding: 97 97 133
Width: 1048
VWidth: 0
GlyphClass: 2
Flags: W
PickledData: "(dp1
S'b'
(dp2
sS'anchors'
p3
(tsS'lib'
p4
(dp5
sS'unicodes'
p6
(tsS'width'
p7
I1101
sS'contours'
p8
(tsS'components'
p9
(tsS'com.typemytype.robofont.layerData'
p10
(dp11
S'b'
(dp12
S'name'
p13
S'a'
sg4
(dp14
sg6
(tsg7
I1040
sg8
(tsg9
(tsg3
(tsssg13
S'a'
s."
AnchorPoint: "ogonek" 808 14 basechar 0
AnchorPoint: "top" 519 994 basechar 0
LayerCount: 2
Fore
SplineSet
440 102 m 256
 323 102 239 151 239 278 c 256
 240 439 336 469 728 469 c 257
 728 439 l 258
 728 236 587 102 440 102 c 256
421 -18 m 256
 595 -18 681 76 729 177 c 257
 729 81 l 258
 729 26 772 -1 816 -1 c 256
 861 -1 907 28 907 83 c 258
 907 666 l 258
 907 912 749 1013 517 1013 c 256
 357 1013 239 977 148 926 c 256
 129 915 120 898 120 880 c 256
 120 846 149 811 184 811 c 256
 192 811 200 812 208 816 c 256
 286 851 380 891 512 891 c 256
 642 891 728 830 728 682 c 258
 728 573 l 257
 244 573 68 535 68 270 c 256
 68 80 219 -18 421 -18 c 256
EndSplineSet
EndChar

StartChar: acute
Encoding: 180 180 137
Width: 569
VWidth: 0
GlyphClass: 4
Flags: W
AnchorPoint: "top" 116 1040 mark 0
LayerCount: 2
Fore
SplineSet
95 1202 m 256
 109 1202 123 1209 138 1220 c 258
 456 1468 l 258
 474 1481 482 1500 482 1518 c 256
 482 1565 433 1611 385 1611 c 256
 363 1611 343 1599 326 1579 c 258
 67 1280 l 258
 57 1267 54 1255 54 1245 c 256
 54 1220 71 1202 95 1202 c 256
EndSplineSet
EndChar

StartChar: ae
Encoding: 230 230 139
Width: 1709
VWidth: 0
GlyphClass: 2
Flags: W
PickledData: "(dp1
S'com.typemytype.robofont.layerData'
p2
(dp3
S'b'
(dp4
S'name'
p5
S'ae'
p6
sS'lib'
p7
(dp8
sS'unicodes'
p9
(tsS'width'
p10
I1734
sS'contours'
p11
(tsS'components'
p12
(tsS'anchors'
p13
(tsss."
AnchorPoint: "top" 861 997 basechar 0
LayerCount: 2
Fore
SplineSet
921 582 m 257
 933 749 1019 892 1182 892 c 256
 1344 892 1422 763 1434 582 c 257
 921 582 l 257
454 100 m 257
 339 103 246 160 246 283 c 256
 246 505 554 482 734 488 c 257
 734 398 l 257
 727 201 608 103 454 100 c 257
421 -27 m 256
 572 -27 742 36 818 194 c 257
 884 62 998 -27 1163 -27 c 256
 1360 -27 1564 69 1564 164 c 256
 1564 195 1543 220 1513 220 c 256
 1501 220 1488 216 1473 207 c 256
 1407 162 1309 112 1207 112 c 256
 998 112 921 266 918 461 c 257
 1539 461 l 258
 1585 461 1605 494 1605 527 c 256
 1597 807 1470 1022 1180 1022 c 256
 1032 1022 920 952 846 846 c 257
 794 968 684 1022 523 1022 c 256
 356 1022 224 976 148 891 c 256
 136 878 130 864 130 850 c 256
 130 818 158 789 191 789 c 256
 202 789 213 791 225 799 c 256
 305 844 379 882 516 882 c 256
 647 882 735 835 735 687 c 258
 735 609 l 257
 701 610 658 611 626 612 c 256
 291 612 68 521 68 276 c 256
 68 84 217 -27 421 -27 c 256
EndSplineSet
EndChar

StartChar: ampersand
Encoding: 38 38 144
Width: 1523
VWidth: 0
GlyphClass: 2
Flags: W
LayerCount: 2
Fore
SplineSet
610 953 m 257
 540 1024 455 1131 455 1227 c 256
 455 1328 542 1368 633 1368 c 256
 719 1368 806 1322 806 1227 c 256
 806 1111 694 1030 610 953 c 257
647 123 m 256
 466 123 295 234 295 430 c 256
 295 551 411 656 576 744 c 257
 1001 289 l 257
 907 189 797 123 647 123 c 256
989 1235 m 256
 989 1423 810 1507 651 1507 c 256
 448 1507 267 1415 267 1227 c 256
 267 1083 365 968 463 864 c 257
 275 762 98 633 98 405 c 256
 98 129 322 -28 652 -28 c 256
 849 -28 987 50 1105 181 c 257
 1254 20 l 258
 1272 -1 1292 -10 1313 -10 c 256
 1361 -10 1412 38 1412 88 c 256
 1412 107 1404 121 1387 141 c 258
 1231 308 l 257
 1351 506 1393 749 1393 855 c 256
 1393 904 1350 931 1308 931 c 256
 1271 931 1233 912 1228 865 c 256
 1223 719 1175 557 1112 428 c 257
 721 844 l 257
 860 946 989 1064 989 1235 c 256
EndSplineSet
EndChar

StartChar: uni02BC
Encoding: 700 700 146
Width: 600
VWidth: 0
GlyphClass: 4
Flags: W
AnchorPoint: "top.2" 246 114 mark 0
LayerCount: 2
Fore
SplineSet
189 181 m 258
 245 181 l 258
 272 181 287 193 298 224 c 258
 462 699 l 258
 463 703 465 710 465 717 c 256
 465 733 457 753 428 755 c 258
 322 755 l 258
 290 754 257 746 249 699 c 258
 165 224 l 258
 164 221 164 217 164 212 c 256
 164 199 168 182 189 181 c 258
EndSplineSet
EndChar

StartChar: approxequal
Encoding: 8776 8776 147
Width: 1182
VWidth: 0
GlyphClass: 2
Flags: W
LayerCount: 2
Fore
SplineSet
810 667 m 256
 899 667 974 727 974 844 c 256
 974 879 940 904 910 904 c 256
 827 904 851 816 803 816 c 256
 746 816 445 904 339 904 c 256
 273 904 170 856 170 727 c 256
 170 694 198 669 232 669 c 256
 246 669 260 670 272 679 c 256
 322 717 312 756 357 756 c 256
 420 751 712 667 810 667 c 256
810 301 m 256
 899 301 974 361 974 478 c 256
 974 513 940 538 910 538 c 256
 827 538 851 450 803 450 c 256
 746 450 445 538 339 538 c 256
 273 538 170 490 170 361 c 256
 170 328 198 304 232 304 c 256
 246 304 260 304 272 313 c 256
 322 350 312 390 357 390 c 256
 420 385 712 301 810 301 c 256
EndSplineSet
EndChar

StartChar: asciicircum
Encoding: 94 94 149
Width: 1333
VWidth: 0
GlyphClass: 2
Flags: W
LayerCount: 2
Fore
SplineSet
258 498 m 256
 286 498 312 514 327 549 c 258
 667 1232 l 257
 1005 549 l 258
 1021 516 1046 499 1075 499 c 256
 1114 499 1150 528 1150 568 c 256
 1150 578 1146 591 1140 604 c 258
 762 1342 l 258
 740 1385 707 1408 667 1408 c 256
 627 1408 594 1382 572 1342 c 258
 193 604 l 258
 187 591 183 578 183 567 c 256
 183 525 219 498 258 498 c 256
EndSplineSet
EndChar

StartChar: asciitilde
Encoding: 126 126 150
Width: 1333
VWidth: 0
GlyphClass: 2
Flags: W
LayerCount: 2
Fore
SplineSet
770 1174 m 256
 862 1174 914 1222 941 1301 c 256
 943 1306 943 1311 943 1316 c 256
 943 1344 919 1367 892 1367 c 256
 876 1367 858 1358 845 1337 c 256
 830 1312 805 1299 780 1299 c 256
 714 1299 624 1370 527 1370 c 256
 442 1370 388 1328 356 1248 c 256
 353 1240 351 1233 351 1226 c 256
 351 1198 377 1180 403 1180 c 256
 420 1180 438 1188 448 1205 c 256
 468 1237 495 1248 524 1248 c 256
 594 1248 686 1174 770 1174 c 256
EndSplineSet
EndChar

StartChar: asterisk
Encoding: 42 42 151
Width: 1084
VWidth: 0
GlyphClass: 2
Flags: W
LayerCount: 2
Fore
SplineSet
430 779 m 258
 541 980 l 257
 653 779 l 258
 667 753 686 743 706 743 c 256
 739 743 772 773 772 810 c 256
 772 821 769 833 762 845 c 258
 645 1036 l 257
 881 1028 l 258
 925 1028 946 1059 946 1091 c 256
 946 1123 925 1154 881 1154 c 258
 646 1145 l 257
 767 1339 l 258
 773 1350 776 1361 776 1372 c 256
 776 1408 746 1439 712 1439 c 256
 692 1439 671 1429 654 1402 c 258
 541 1197 l 257
 427 1403 l 258
 413 1428 393 1438 373 1438 c 256
 339 1438 306 1409 306 1372 c 256
 306 1361 309 1349 316 1337 c 258
 435 1145 l 257
 204 1154 l 258
 160 1154 138 1122 138 1091 c 256
 138 1059 160 1028 204 1028 c 258
 438 1036 l 257
 318 843 l 258
 311 832 308 820 308 809 c 256
 308 773 341 743 375 743 c 256
 395 743 415 753 430 779 c 258
EndSplineSet
EndChar

StartChar: at
Encoding: 64 64 152
Width: 1638
VWidth: 0
GlyphClass: 2
Flags: W
LayerCount: 2
Fore
SplineSet
710 430 m 256
 599 430 548 516 548 631 c 256
 548 827 679 1060 872 1060 c 256
 998 1060 1058 928 1058 928 c 257
 967 617 l 258
 934 506 814 430 710 430 c 256
808 -26 m 256
 911 -26 1018 -9 1129 25 c 256
 1155 32 1166 54 1166 76 c 256
 1166 104 1148 131 1111 131 c 256
 1102 131 1093 130 1085 127 c 256
 997 100 910 87 825 87 c 256
 487 87 196 301 196 726 c 256
 196 1151 563 1394 894 1394 c 256
 1168 1394 1415 1230 1415 868 c 256
 1415 644 1277 424 1126 424 c 256
 1085 424 1072 443 1072 475 c 256
 1072 502 1081 539 1095 584 c 258
 1243 1060 l 258
 1246 1068 1247 1076 1247 1085 c 256
 1247 1122 1216 1142 1183 1142 c 256
 1150 1142 1117 1125 1106 1088 c 258
 1097 1059 l 257
 1054 1146 962 1190 866 1190 c 256
 572 1190 384 889 384 619 c 256
 384 447 493 304 675 304 c 256
 774 304 866 346 929 420 c 257
 946 341 1024 305 1095 305 c 256
 1305 305 1552 548 1552 873 c 256
 1552 1310 1233 1512 892 1512 c 256
 490 1512 56 1235 56 737 c 256
 56 259 379 -26 808 -26 c 256
EndSplineSet
EndChar

StartChar: b
Encoding: 98 98 154
Width: 1190
VWidth: 0
GlyphClass: 2
Flags: W
PickledData: "(dp1
S'b'
(dp2
sS'anchors'
p3
(tsS'lib'
p4
(dp5
sS'unicodes'
p6
(tsS'width'
p7
I1203
sS'contours'
p8
(tsS'components'
p9
(tsS'com.typemytype.robofont.layerData'
p10
(dp11
S'b'
(dp12
S'name'
p13
S'b'
sg4
(dp14
sg6
(tsg7
I1181
sg8
((dp15
S'points'
p16
((dp17
S'segmentType'
p18
S'curve'
p19
sS'x'
I238
sS'smooth'
p20
I1
sS'y'
I1425
s(dp21
S'y'
I1425
sS'x'
I198
sg20
I0
s(dp22
S'y'
I1400
sS'x'
I158
sg20
I0
s(dp23
g18
S'curve'
p24
sS'x'
I158
sg20
I1
sS'y'
I1351
s(dp25
g18
S'line'
p26
sS'x'
I158
sg20
I1
sS'y'
I76
s(dp27
S'y'
I27
sS'x'
I158
sg20
I0
s(dp28
S'y'
I3
sS'x'
I197
sg20
I0
s(dp29
g18
S'curve'
p30
sS'x'
I237
sg20
I1
sS'y'
I3
s(dp31
S'y'
I3
sS'x'
I297
sg20
I0
s(dp32
S'y'
I38
sS'x'
I318
sg20
I0
s(dp33
g18
S'curve'
p34
sS'x'
I318
sg20
I1
sS'y'
I76
s(dp35
g18
S'line'
p36
sS'x'
I318
sg20
I0
sS'y'
I183
s(dp37
S'y'
I46
sS'x'
I384
sg20
I0
s(dp38
S'y'
S'-20'
p39
sS'x'
I516
sg20
I0
s(dp40
g18
S'curve'
p41
sS'x'
I666
sg20
I1
sS'y'
S'-20'
p42
s(dp43
S'y'
S'-20'
p44
sS'x'
I957
sg20
I0
s(dp45
S'y'
I225
sS'x'
I1095
sg20
I0
s(dp46
g18
S'curve'
p47
sS'x'
I1095
sg20
I1
sS'y'
I502
s(dp48
S'y'
I777
sS'x'
I1095
sg20
I0
s(dp49
S'y'
I1013
sS'x'
I939
sg20
I0
s(dp50
g18
S'curve'
p51
sS'x'
I650
sg20
I1
sS'y'
I1013
s(dp52
S'y'
I1013
sS'x'
I503
sg20
I0
s(dp53
S'y'
I942
sS'x'
I376
sg20
I0
s(dp54
g18
S'curve'
p55
sS'x'
I318
sg20
I0
sS'y'
I814
s(dp56
g18
S'line'
p57
sS'x'
I318
sg20
I1
sS'y'
I1351
s(dp58
S'y'
I1400
sS'x'
I318
sg20
I0
s(dp59
S'y'
I1425
sS'x'
I278
sg20
I0
stp60
s(dp61
g16
((dp62
g18
S'curve'
p63
sS'x'
I632
sg20
I1
sS'y'
I903
s(dp64
S'y'
I903
sS'x'
I859
sg20
I0
s(dp65
S'y'
I685
sS'x'
I935
sg20
I0
s(dp66
g18
S'curve'
p67
sS'x'
I935
sg20
I1
sS'y'
I496
s(dp68
S'y'
I316
sS'x'
I935
sg20
I0
s(dp69
S'y'
I93
sS'x'
I869
sg20
I0
s(dp70
g18
S'curve'
p71
sS'x'
I645
sg20
I0
sS'y'
I90
s(dp72
S'y'
I90
sS'x'
I395
sg20
I0
s(dp73
S'y'
I279
sS'x'
I319
sg20
I0
s(dp74
g18
S'curve'
p75
sS'x'
I319
sg20
I1
sS'y'
I501
s(dp76
S'y'
I701
sS'x'
I319
sg20
I0
s(dp77
S'y'
I903
sS'x'
I407
sg20
I0
stp78
stp79
sg9
(tsg3
(tsssg13
S'b'
s."
LayerCount: 2
Fore
SplineSet
644 106 m 256
 406 106 334 278 334 502 c 256
 334 695 417 890 635 890 c 256
 853 890 925 680 925 499 c 256
 925 327 862 108 644 106 c 256
676 -18 m 256
 963 -18 1106 227 1106 503 c 256
 1106 787 945 1013 660 1013 c 256
 513 1013 393 948 333 826 c 257
 333 1345 l 258
 333 1400 288 1429 242 1429 c 256
 197 1429 152 1400 152 1345 c 258
 152 87 l 258
 152 31 197 2 242 2 c 256
 303 2 333 36 333 86 c 258
 333 175 l 257
 399 44 526 -18 676 -18 c 256
EndSplineSet
EndChar

StartChar: backslash
Encoding: 92 92 155
Width: 599
VWidth: 0
GlyphClass: 2
Flags: W
LayerCount: 2
Fore
SplineSet
542 -101 m 256
 579 -101 615 -76 615 -32 c 256
 615 -23 614 -14 611 -4 c 258
 131 1447 l 258
 118 1484 88 1500 58 1500 c 256
 20 1500 -17 1474 -17 1431 c 256
 -17 1423 -15 1414 -12 1402 c 258
 472 -49 l 258
 484 -86 512 -101 542 -101 c 256
EndSplineSet
EndChar

StartChar: bar
Encoding: 124 124 156
Width: 455
VWidth: 0
GlyphClass: 2
Flags: W
LayerCount: 2
Fore
SplineSet
227 -422 m 256
 264 -422 301 -397 301 -347 c 258
 301 1407 l 258
 301 1456 265 1480 228 1480 c 256
 191 1480 154 1456 154 1407 c 258
 154 -347 l 258
 154 -397 190 -422 227 -422 c 256
EndSplineSet
EndChar

StartChar: braceleft
Encoding: 123 123 157
Width: 636
VWidth: 0
GlyphClass: 2
Flags: W
LayerCount: 2
Fore
SplineSet
430 -213 m 258
 553 -213 l 258
 597 -213 617 -180 618 -144 c 256
 618 -106 596 -73 554 -73 c 258
 496 -73 l 258
 432 -73 411 -15 411 86 c 258
 411 358 l 258
 411 544 292 618 262 631 c 257
 295 646 411 689 411 910 c 258
 411 1180 l 258
 411 1282 433 1339 495 1339 c 258
 551 1339 l 258
 595 1339 617 1371 617 1409 c 256
 617 1449 593 1479 551 1479 c 258
 430 1479 l 258
 325 1479 230 1381 230 1248 c 258
 230 947 l 258
 230 802 206 717 88 705 c 257
 38 704 14 669 14 630 c 256
 14 590 41 557 88 556 c 256
 208 544 230 459 230 317 c 258
 230 17 l 258
 230 -122 332 -213 430 -213 c 258
EndSplineSet
EndChar

StartChar: braceright
Encoding: 125 125 158
Width: 636
VWidth: 0
GlyphClass: 2
Flags: W
LayerCount: 2
Fore
SplineSet
81 -213 m 258
 203 -213 l 258
 307 -213 404 -117 404 19 c 258
 404 317 l 258
 404 461 427 545 548 557 c 257
 595 557 620 594 620 630 c 256
 620 672 592 705 546 705 c 257
 426 718 404 803 404 947 c 258
 404 1250 l 258
 404 1388 302 1479 203 1479 c 258
 81 1479 l 258
 37 1479 16 1445 16 1409 c 256
 16 1370 40 1339 83 1339 c 258
 139 1339 l 258
 201 1339 223 1280 223 1182 c 258
 223 906 l 258
 223 718 347 656 371 631 c 257
 340 616 223 543 223 358 c 258
 223 82 l 258
 223 -17 200 -73 140 -73 c 258
 81 -73 l 258
 37 -73 16 -108 16 -143 c 256
 16 -181 39 -213 81 -213 c 258
EndSplineSet
EndChar

StartChar: bracketleft
Encoding: 91 91 159
Width: 634
VWidth: 0
GlyphClass: 2
Flags: W
LayerCount: 2
Fore
SplineSet
263 -206 m 258
 457 -206 l 258
 503 -205 526 -171 526 -136 c 256
 526 -102 504 -69 457 -69 c 258
 352 -69 l 257
 352 1293 l 257
 457 1293 l 258
 503 1293 526 1328 526 1362 c 256
 526 1396 504 1429 457 1429 c 258
 263 1429 l 258
 211 1429 172 1389 172 1341 c 258
 172 -117 l 258
 172 -166 211 -206 263 -206 c 258
EndSplineSet
EndChar

StartChar: bracketright
Encoding: 93 93 160
Width: 634
VWidth: 0
GlyphClass: 2
Flags: W
LayerCount: 2
Fore
SplineSet
175 -206 m 258
 370 -206 l 258
 421 -206 461 -166 461 -117 c 258
 461 1341 l 258
 461 1389 421 1429 370 1429 c 258
 175 1429 l 258
 129 1429 107 1396 107 1362 c 256
 107 1328 130 1293 175 1293 c 258
 281 1293 l 257
 281 -69 l 257
 175 -69 l 258
 130 -69 107 -102 107 -136 c 256
 107 -171 130 -205 175 -206 c 258
EndSplineSet
EndChar

StartChar: breve
Encoding: 728 728 161
Width: 569
VWidth: 0
GlyphClass: 4
Flags: W
AnchorPoint: "top" 285 1040 mark 0
LayerCount: 2
Fore
SplineSet
285 1240 m 256
 415 1240 513 1297 558 1397 c 256
 562 1407 564 1417 564 1426 c 256
 564 1457 539 1476 509 1476 c 256
 488 1476 469 1466 455 1446 c 256
 412 1385 372 1364 285 1364 c 256
 198 1364 157 1385 115 1446 c 256
 101 1466 81 1476 61 1476 c 256
 31 1476 6 1457 6 1426 c 256
 6 1417 8 1407 12 1397 c 256
 57 1297 155 1240 285 1240 c 256
EndSplineSet
EndChar

StartChar: uni0311
Encoding: 785 785 162
Width: 569
VWidth: 0
GlyphClass: 4
Flags: W
AnchorPoint: "top" 286 1040 mark 0
LayerCount: 2
Fore
SplineSet
56 1263 m 256
 75 1263 92 1272 106 1291 c 256
 150 1354 194 1377 285 1377 c 256
 376 1377 418 1354 464 1291 c 256
 478 1272 495 1263 514 1263 c 256
 542 1263 566 1281 566 1309 c 256
 566 1317 564 1326 560 1335 c 256
 515 1435 417 1494 285 1494 c 256
 153 1494 55 1435 10 1335 c 256
 6 1326 4 1317 4 1309 c 256
 4 1281 28 1263 56 1263 c 256
EndSplineSet
EndChar

StartChar: brokenbar
Encoding: 166 166 163
Width: 455
VWidth: 0
GlyphClass: 2
Flags: W
LayerCount: 2
Fore
SplineSet
221 808 m 256
 270 808 293 846 293 893 c 258
 293 1442 l 258
 293 1494 266 1527 221 1527 c 256
 180 1527 148 1501 148 1454 c 258
 148 893 l 258
 148 840 175 808 221 808 c 256
219 -104 m 256
 269 -104 292 -66 292 -18 c 258
 292 521 l 258
 292 575 265 607 220 607 c 256
 180 607 147 579 147 535 c 258
 147 -18 l 258
 147 -72 174 -104 219 -104 c 256
EndSplineSet
EndChar

StartChar: bullet
Encoding: 8226 8226 164
Width: 1024
VWidth: 0
GlyphClass: 2
Flags: W
LayerCount: 2
Fore
SplineSet
510 358 m 256
 715 358 881 521 881 713 c 256
 881 911 715 1071 510 1071 c 256
 309 1071 143 911 143 713 c 256
 143 521 309 358 510 358 c 256
EndSplineSet
EndChar

StartChar: c
Encoding: 99 99 165
Width: 959
VWidth: 0
GlyphClass: 2
Flags: W
PickledData: "(dp1
S'b'
(dp2
sS'anchors'
p3
(tsS'lib'
p4
(dp5
sS'unicodes'
p6
(tsS'width'
p7
I992
sS'contours'
p8
(tsS'components'
p9
(tsS'com.typemytype.robofont.layerData'
p10
(dp11
S'b'
(dp12
S'name'
p13
S'c'
sg4
(dp14
sg6
(tsg7
F956.14099999999996
sg8
(tsg9
(tsg3
(tsssg13
S'c'
s."
AnchorPoint: "bot" 531 6 basechar 0
AnchorPoint: "top" 564 1004 basechar 0
LayerCount: 2
Fore
SplineSet
557 -19 m 256
 701 -19 804 22 861 68 c 256
 885 88 895 110 895 129 c 256
 895 159 871 183 840 183 c 256
 827 183 813 179 800 170 c 256
 738 127 659 106 571 106 c 256
 356 106 265 297 265 494 c 256
 265 740 398 891 586 891 c 256
 655 891 727 871 787 832 c 256
 801 823 816 819 829 819 c 256
 861 819 886 842 886 871 c 256
 886 889 876 910 852 929 c 256
 799 973 699 1013 577 1013 c 256
 277 1013 84 786 84 497 c 256
 84 208 260 -19 557 -19 c 256
EndSplineSet
EndChar

StartChar: caron
Encoding: 711 711 167
Width: 569
VWidth: 0
GlyphClass: 4
Flags: W
AnchorPoint: "top" 291 1040 mark 0
LayerCount: 2
Fore
SplineSet
285 1116 m 256
 315 1116 348 1132 374 1168 c 258
 563 1432 l 258
 574 1448 580 1464 580 1479 c 256
 580 1512 553 1538 520 1538 c 256
 498 1538 475 1526 454 1500 c 258
 285 1271 l 257
 114 1500 l 258
 93 1527 69 1538 47 1538 c 256
 14 1538 -13 1513 -13 1480 c 256
 -13 1465 -8 1450 4 1432 c 258
 194 1168 l 258
 219 1134 252 1116 285 1116 c 256
EndSplineSet
EndChar

StartChar: caron.alt
Encoding: 65536 -1 168
Width: 608
VWidth: 0
GlyphClass: 4
Flags: W
AnchorPoint: "caron.alt" -10 308 mark 0
LayerCount: 2
Fore
SplineSet
281 302 m 258
 324 302 l 258
 351 302 366 314 377 345 c 258
 515 748 l 258
 516 752 518 759 518 766 c 256
 518 782 510 802 481 804 c 258
 396 804 l 258
 364 803 331 795 323 748 c 258
 257 345 l 258
 256 342 256 338 256 333 c 256
 256 320 260 303 281 302 c 258
EndSplineSet
EndChar

StartChar: cedilla
Encoding: 184 184 173
Width: 569
VWidth: 0
GlyphClass: 4
Flags: W
AnchorPoint: "bot" 281 0 mark 0
LayerCount: 2
Fore
SplineSet
295 -400 m 256
 392 -400 493 -351 493 -249 c 256
 493 -135 405 -104 310 -103 c 256
 299 -103 290 -104 278 -105 c 257
 314 8 l 257
 248 8 l 257
 201 -124 l 258
 199 -131 198 -137 198 -143 c 256
 198 -161 210 -174 236 -174 c 256
 241 -174 247 -173 252 -173 c 256
 305 -173 360 -192 360 -245 c 256
 360 -297 337 -327 265 -327 c 256
 206 -327 155 -310 104 -292 c 256
 100 -291 95 -290 92 -290 c 256
 74 -290 63 -307 63 -325 c 256
 63 -370 185 -400 295 -400 c 256
EndSplineSet
EndChar

StartChar: cent
Encoding: 162 162 174
Width: 1035
VWidth: 0
GlyphClass: 2
Flags: W
PickledData: "(dp1
S'com.typemytype.robofont.layerData'
p2
(dp3
S'b'
(dp4
S'name'
p5
S'cent'
p6
sS'lib'
p7
(dp8
sS'unicodes'
p9
(tsS'width'
p10
I1046
sS'contours'
p11
(tsS'components'
p12
(tsS'anchors'
p13
(tsss."
LayerCount: 2
Fore
SplineSet
501 956 m 257
 609 957 l 257
 609 1213 l 258
 609 1250 583 1268 556 1268 c 256
 528 1268 501 1249 501 1213 c 258
 501 956 l 257
556 -268 m 256
 583 -268 609 -250 609 -213 c 258
 609 43 l 257
 501 44 l 257
 501 -213 l 258
 501 -249 528 -268 556 -268 c 256
EndSplineSet
Refer: 165 99 N 1 0 0 1 0 0 2
EndChar

StartChar: circumflex
Encoding: 710 710 175
Width: 569
VWidth: 0
GlyphClass: 4
Flags: W
AnchorPoint: "top" 294 1040 mark 0
LayerCount: 2
Fore
SplineSet
47 1155 m 256
 69 1155 95 1166 116 1193 c 258
 287 1422 l 257
 457 1193 l 258
 478 1167 502 1156 524 1156 c 256
 557 1156 583 1180 583 1212 c 256
 583 1228 577 1243 565 1260 c 258
 376 1524 l 258
 348 1560 318 1576 286 1576 c 256
 252 1576 221 1558 196 1524 c 258
 7 1260 l 258
 -6 1243 -11 1227 -11 1211 c 256
 -11 1179 14 1155 47 1155 c 256
EndSplineSet
EndChar

StartChar: colon
Encoding: 58 58 176
Width: 593
VWidth: 0
GlyphClass: 2
Flags: W
LayerCount: 2
Fore
SplineSet
296 794 m 256
 369 794 412 844 412 900 c 256
 412 957 367 1007 296 1007 c 256
 223 1007 180 955 180 900 c 256
 180 842 224 794 296 794 c 256
296 -2 m 256
 368 -2 412 50 412 106 c 256
 412 161 367 212 296 212 c 256
 223 212 180 159 180 106 c 256
 180 50 224 -2 296 -2 c 256
EndSplineSet
EndChar

StartChar: comma
Encoding: 44 44 177
Width: 593
VWidth: 0
GlyphClass: 2
Flags: W
PickledData: "(dp1
S'b'
(dp2
sS'anchors'
p3
(tsS'lib'
p4
(dp5
sS'unicodes'
p6
(tsS'width'
p7
I615
sS'contours'
p8
(tsS'components'
p9
(tsS'com.typemytype.robofont.layerData'
p10
(dp11
S'b'
(dp12
S'name'
p13
S'comma'
p14
sg4
(dp15
sg6
(tsg7
I584
sg8
(tsg9
(tsg3
(tsssg13
S'comma'
p16
s."
LayerCount: 2
Fore
SplineSet
154 -335 m 258
 210 -335 l 258
 237 -335 252 -323 263 -292 c 258
 427 183 l 258
 428 187 430 194 430 201 c 256
 430 217 422 237 393 239 c 258
 287 239 l 258
 255 238 222 230 214 183 c 258
 130 -292 l 258
 129 -295 129 -299 129 -304 c 256
 129 -317 133 -334 154 -335 c 258
EndSplineSet
EndChar

StartChar: uni0326
Encoding: 806 806 178
Width: 593
VWidth: 0
GlyphClass: 4
Flags: W
PickledData: "(dp1
S'b'
(dp2
sS'anchors'
p3
(tsS'lib'
p4
(dp5
sS'unicodes'
p6
(tsS'width'
p7
I615
sS'contours'
p8
(tsS'components'
p9
(tsS'com.typemytype.robofont.layerData'
p10
(dp11
S'b'
(dp12
S'name'
p13
S'uni0326'
p14
sg4
(dp15
sg6
(tsg7
I584
sg8
(tsg9
(tsg3
(tsssg13
S'uni0326'
p16
s."
AnchorPoint: "bot" 316 0 mark 0
LayerCount: 2
Fore
SplineSet
155 -606 m 258
 198 -606 l 258
 225 -606 240 -594 251 -563 c 258
 389 -160 l 258
 390 -156 392 -149 392 -142 c 256
 392 -126 384 -106 355 -104 c 258
 271 -104 l 258
 239 -105 206 -113 198 -160 c 258
 131 -563 l 258
 130 -566 130 -570 130 -575 c 256
 130 -588 134 -605 155 -606 c 258
EndSplineSet
EndChar

StartChar: uni0312
Encoding: 786 786 179
Width: 600
VWidth: 0
GlyphClass: 4
Flags: W
AnchorPoint: "top" 278 991 mark 0
LayerCount: 2
Fore
SplineSet
223 1208 m 258
 329 1208 l 258
 361 1209 394 1217 402 1264 c 258
 486 1739 l 258
 487 1742 487 1746 487 1751 c 256
 487 1764 483 1781 462 1782 c 258
 406 1782 l 258
 379 1782 364 1770 353 1739 c 258
 189 1264 l 258
 188 1260 186 1253 186 1246 c 256
 186 1230 194 1210 223 1208 c 258
EndSplineSet
EndChar

StartChar: copyright
Encoding: 169 169 180
Width: 1666
VWidth: 0
GlyphClass: 2
Flags: W
LayerCount: 2
Fore
SplineSet
842 119 m 256
 1225 119 1536 418 1536 787 c 256
 1536 1155 1225 1455 842 1455 c 256
 456 1455 143 1155 143 787 c 256
 143 418 456 119 842 119 c 256
842 235 m 256
 511 235 268 467 268 787 c 256
 268 1105 511 1338 842 1338 c 256
 1171 1338 1411 1105 1411 787 c 256
 1411 467 1171 235 842 235 c 256
852 395 m 256
 933 395 1110 432 1110 505 c 256
 1110 530 1091 552 1068 552 c 256
 1060 552 1054 550 1048 547 c 256
 989 516 932 498 872 498 c 256
 724 498 592 601 592 794 c 256
 592 993 716 1079 862 1079 c 256
 925 1079 994 1062 1055 1031 c 256
 1063 1028 1069 1026 1074 1026 c 256
 1102 1026 1120 1053 1120 1079 c 256
 1120 1148 925 1183 850 1183 c 256
 646 1183 464 1052 464 792 c 256
 464 532 652 395 852 395 c 256
EndSplineSet
EndChar

StartChar: currency
Encoding: 164 164 181
Width: 1175
VWidth: 0
GlyphClass: 2
Flags: W
LayerCount: 2
Fore
SplineSet
592 290 m 256
 391 290 290 446 290 603 c 256
 290 758 391 917 592 917 c 256
 794 917 895 758 895 603 c 256
 895 446 794 290 592 290 c 256
206 159 m 256
 219 159 232 164 244 175 c 258
 330 262 l 257
 398 214 486 185 592 185 c 256
 700 185 787 213 855 263 c 257
 943 175 l 258
 954 164 966 159 978 159 c 256
 1007 159 1033 183 1033 213 c 256
 1033 226 1029 239 1018 251 c 258
 931 335 l 257
 991 411 1022 506 1022 603 c 256
 1022 697 993 790 934 866 c 257
 1018 949 l 258
 1029 960 1033 974 1033 986 c 256
 1033 1015 1008 1040 980 1040 c 256
 966 1040 954 1035 942 1024 c 258
 859 940 l 257
 791 991 703 1022 592 1022 c 256
 482 1022 394 990 326 940 c 257
 244 1024 l 258
 232 1035 220 1040 206 1040 c 256
 178 1040 153 1015 153 987 c 256
 153 973 158 960 169 949 c 258
 251 866 l 257
 192 791 163 698 163 603 c 256
 163 506 193 411 254 335 c 257
 169 251 l 258
 158 239 153 227 153 213 c 256
 153 184 178 159 206 159 c 256
EndSplineSet
EndChar

StartChar: d
Encoding: 100 100 182
Width: 1190
VWidth: 0
GlyphClass: 2
Flags: W
PickledData: "(dp1
S'b'
(dp2
sS'anchors'
p3
(tsS'lib'
p4
(dp5
sS'unicodes'
p6
(tsS'width'
p7
I1207
sS'contours'
p8
(tsS'components'
p9
(tsS'com.typemytype.robofont.layerData'
p10
(dp11
S'b'
(dp12
S'name'
p13
S'd'
sg4
(dp14
sg6
(tsg7
I1181
sg8
(tsg9
(tsg3
(tsssg13
S'd'
s."
AnchorPoint: "mid" 892 1189 basechar 0
AnchorPoint: "caron.alt" 925 1004 basechar 0
LayerCount: 2
Fore
SplineSet
546 106 m 256
 328 108 265 327 265 499 c 256
 265 680 337 890 555 890 c 256
 773 890 856 695 856 502 c 256
 856 278 783 106 546 106 c 256
514 -18 m 256
 664 -18 791 44 857 175 c 257
 857 86 l 258
 857 36 887 2 948 2 c 256
 993 2 1038 31 1038 87 c 258
 1038 1345 l 258
 1038 1400 993 1429 948 1429 c 256
 902 1429 857 1400 857 1345 c 258
 857 826 l 257
 797 948 677 1013 530 1013 c 256
 245 1013 84 787 84 503 c 256
 84 227 227 -18 514 -18 c 256
EndSplineSet
EndChar

StartChar: dagger
Encoding: 8224 8224 183
Width: 1186
VWidth: 0
GlyphClass: 2
Flags: W
LayerCount: 2
Fore
SplineSet
593 0 m 256
 636 0 678 28 678 83 c 258
 678 973 l 257
 954 973 l 258
 1001 973 1025 1010 1025 1048 c 256
 1025 1084 1001 1121 954 1121 c 258
 678 1121 l 257
 678 1394 l 258
 678 1449 636 1478 593 1478 c 256
 550 1478 508 1451 508 1394 c 258
 508 1121 l 257
 227 1121 l 258
 182 1121 159 1084 159 1046 c 256
 159 1009 182 973 227 973 c 258
 508 973 l 257
 508 83 l 258
 508 28 550 0 593 0 c 256
EndSplineSet
EndChar

StartChar: daggerdbl
Encoding: 8225 8225 184
Width: 1186
VWidth: 0
GlyphClass: 2
Flags: W
LayerCount: 2
Fore
SplineSet
593 -1 m 256
 635 -1 676 27 676 82 c 258
 676 343 l 257
 952 343 l 258
 1000 343 1024 378 1024 416 c 256
 1024 451 1000 487 952 487 c 258
 676 487 l 257
 676 986 l 257
 952 986 l 258
 1000 986 1024 1021 1024 1059 c 256
 1024 1094 1000 1130 952 1130 c 258
 676 1130 l 257
 676 1394 l 258
 676 1451 635 1478 593 1478 c 256
 551 1478 510 1451 510 1394 c 258
 510 1130 l 257
 230 1130 l 258
 183 1130 159 1093 159 1058 c 256
 159 1022 183 986 230 986 c 258
 510 986 l 257
 510 487 l 257
 230 487 l 258
 183 487 159 450 159 415 c 256
 159 379 183 343 230 343 c 258
 510 343 l 257
 510 82 l 258
 510 27 551 -1 593 -1 c 256
EndSplineSet
EndChar

StartChar: uni030F
Encoding: 783 783 185
Width: 569
VWidth: 0
GlyphClass: 4
Flags: W
AnchorPoint: "top" 488 1048 mark 0
LayerCount: 2
Fore
SplineSet
627 1156 m 256
 652 1156 668 1174 669 1196 c 256
 668 1209 664 1220 654 1232 c 258
 396 1531 l 258
 376 1553 358 1563 336 1563 c 256
 288 1563 239 1517 239 1471 c 256
 239 1453 246 1435 263 1422 c 258
 579 1176 l 258
 596 1162 613 1156 627 1156 c 256
295 1156 m 256
 320 1156 337 1175 337 1197 c 256
 336 1209 333 1220 323 1232 c 258
 63 1531 l 258
 44 1553 27 1563 4 1563 c 256
 -43 1563 -93 1518 -93 1470 c 256
 -93 1453 -86 1435 -69 1422 c 258
 249 1174 l 258
 265 1161 282 1156 295 1156 c 256
EndSplineSet
EndChar

StartChar: degree
Encoding: 176 176 188
Width: 819
VWidth: 0
GlyphClass: 2
Flags: W
LayerCount: 2
Fore
SplineSet
410 821 m 256
 576 821 715 952 715 1115 c 256
 715 1278 576 1410 410 1410 c 256
 240 1410 105 1278 105 1115 c 256
 105 952 241 821 410 821 c 256
410 924 m 256
 295 924 211 1004 211 1115 c 256
 211 1224 293 1308 408 1308 c 256
 522 1308 609 1224 609 1115 c 256
 609 1004 523 924 410 924 c 256
EndSplineSet
EndChar

StartChar: dieresis
Encoding: 168 168 189
Width: 569
VWidth: 0
GlyphClass: 4
Flags: W
AnchorPoint: "top" 287 1040 mark 0
LayerCount: 2
Fore
SplineSet
480 1203 m 256
 548 1203 589 1252 589 1305 c 256
 589 1357 547 1405 480 1405 c 256
 410 1405 369 1356 369 1305 c 256
 369 1251 411 1203 480 1203 c 256
90 1203 m 256
 159 1203 200 1252 200 1305 c 256
 200 1356 159 1405 90 1405 c 256
 22 1405 -19 1356 -19 1305 c 256
 -19 1251 23 1203 90 1203 c 256
EndSplineSet
EndChar

StartChar: divide
Encoding: 247 247 190
Width: 1333
VWidth: 0
GlyphClass: 2
Flags: W
LayerCount: 2
Fore
SplineSet
667 848 m 256
 736 848 775 895 775 947 c 256
 775 997 736 1045 667 1045 c 256
 599 1045 559 997 559 947 c 256
 559 895 598 848 667 848 c 256
667 -14 m 256
 736 -14 775 33 775 85 c 256
 775 133 736 182 667 182 c 256
 599 182 559 133 559 85 c 256
 559 33 598 -14 667 -14 c 256
213 442 m 258
 1128 442 l 258
 1174 442 1196 477 1196 514 c 256
 1196 552 1174 588 1128 588 c 258
 213 588 l 258
 167 588 144 552 144 514 c 256
 144 477 167 442 213 442 c 258
EndSplineSet
EndChar

StartChar: dollar
Encoding: 36 36 191
Width: 1246
VWidth: 0
GlyphClass: 2
Flags: W
PickledData: "(dp1
S'com.typemytype.robofont.layerData'
p2
(dp3
S'b'
(dp4
S'name'
p5
S'dollar'
p6
sS'lib'
p7
(dp8
sS'unicodes'
p9
(tsS'width'
p10
I1274
sS'contours'
p11
(tsS'components'
p12
(tsS'anchors'
p13
(tsss."
LayerCount: 2
Fore
SplineSet
574 0 m 258
 574 -42 604 -62 635 -62 c 256
 667 -62 699 -41 699 0 c 258
 699 205.288 l 257
 887.49 223.729 1025.4 320.087 1025.4 507.298 c 256
 1025.4 645.397 954.286 740.233 745 791 c 257
 572 834 l 258
 430 869 397 888 397 970 c 256
 397 1072.74 498.487 1113.02 633.02 1113.02 c 256
 752.483 1113.02 849.403 1068.22 896 1051 c 256
 907.125 1047.04 917.367 1045.26 926.622 1045.26 c 256
 962.586 1045.26 983.637 1072.04 983.637 1101.05 c 256
 983.637 1122.95 971.638 1146.12 945 1160 c 256
 897.441 1185.48 805.887 1221.77 693 1232.75 c 257
 693 1438 l 258
 693 1479 661 1500 629 1500 c 256
 598 1500 568 1480 568 1438 c 258
 568 1234.2 l 257
 383.508 1221.56 228.985 1142.66 228.985 963.121 c 256
 228.985 781.431 345.52 740.122 531 693 c 258
 708 649 l 258
 824.924 620.282 872.24 575.228 872.24 495.254 c 256
 872.24 378.934 767.142 324 627 324 c 256
 506 325 408 366 337 410 c 256
 320.648 419.619 305.222 423.723 291.461 423.723 c 256
 255.501 423.723 230.915 395.695 230.915 364.792 c 256
 230.915 346.048 239.96 326.246 261 311 c 256
 323.87 264.954 441.627 215.772 574 204.418 c 257
 574 0 l 258
EndSplineSet
EndChar

StartChar: dotaccent
Encoding: 729 729 192
Width: 593
VWidth: 0
GlyphClass: 4
Flags: W
AnchorPoint: "top" 289 1031 mark 0
LayerCount: 2
Fore
SplineSet
288 1207 m 256
 361 1207 404 1257 404 1314 c 256
 404 1367 361 1420 288 1420 c 256
 215 1420 173 1367 173 1314 c 256
 173 1257 215 1207 288 1207 c 256
EndSplineSet
EndChar

StartChar: dotlessi
Encoding: 305 305 193
Width: 484
VWidth: 0
GlyphClass: 2
Flags: W
AnchorPoint: "top" 243 991 basechar 0
LayerCount: 2
Fore
SplineSet
240 0 m 256
 286 0 333 31 333 91 c 258
 333 904 l 258
 333 963 288 994 243 994 c 256
 197 994 152 963 152 904 c 258
 152 91 l 258
 152 29 195 0 240 0 c 256
EndSplineSet
EndChar

StartChar: uni0237
Encoding: 567 567 194
Width: 489
VWidth: 0
GlyphClass: 2
Flags: W
AnchorPoint: "top" 248 991 basechar 0
LayerCount: 2
Fore
SplineSet
-1 -379 m 256
 317 -379 338 -278 338 -28 c 258
 338 898 l 258
 338 962 298 993 248 993 c 256
 197 993 155 961 155 897 c 258
 155 -58 l 258
 155 -223 134 -239 -2 -240 c 256
 -45 -240 -66 -274 -66 -309 c 256
 -66 -344 -45 -379 -1 -379 c 256
EndSplineSet
EndChar

StartChar: e
Encoding: 101 101 195
Width: 1119
VWidth: 0
GlyphClass: 2
Flags: W
PickledData: "(dp1
S'b'
(dp2
sS'anchors'
p3
(tsS'lib'
p4
(dp5
sS'unicodes'
p6
(tsS'width'
p7
I1132
sS'contours'
p8
(tsS'components'
p9
(tsS'com.typemytype.robofont.layerData'
p10
(dp11
S'b'
(dp12
S'name'
p13
S'e'
sg4
(dp14
sg6
(tsg7
I1132
sg8
(tsg9
(tsg3
(tsssg13
S'e'
s."
AnchorPoint: "ogonek" 751 32 basechar 0
AnchorPoint: "top" 579 1001 basechar 0
LayerCount: 2
Fore
SplineSet
275 572 m 257
 288 732 386 890 580 890 c 256
 772 890 853 743 864 572 c 257
 275 572 l 257
583 -18 m 256
 769 -18 884 51 965 124 c 256
 985 142 993 162 993 181 c 256
 993 214 968 243 936 243 c 256
 924 243 911 239 898 229 c 256
 820 169 727 110 595 110 c 256
 419 112 275 220 272 461 c 257
 958 461 l 258
 1003 461 1022 492 1022 528 c 256
 1015 786 892 1013 570 1013 c 256
 264 1013 90 773 90 500 c 256
 90 177 304 -17 583 -18 c 256
EndSplineSet
EndChar

StartChar: eight
Encoding: 56 56 203
Width: 1175
VWidth: 0
GlyphClass: 2
Flags: W
PickledData: "(dp1
S'com.typemytype.robofont.layerData'
p2
(dp3
S'b'
(dp4
S'name'
p5
S'eight'
p6
sS'lib'
p7
(dp8
sS'unicodes'
p9
(tsS'width'
p10
I1160
sS'contours'
p11
(tsS'components'
p12
(tsS'anchors'
p13
(tsss."
LayerCount: 2
Fore
SplineSet
588 832 m 256
 418 832 308 913 308 1072 c 256
 308 1242 444 1305 588 1305 c 256
 733 1305 868 1242 868 1072 c 256
 868 913 759 832 588 832 c 256
588 130 m 256
 429 130 294 204 294 381 c 256
 294 563 427 653 588 653 c 256
 747 653 880 563 880 381 c 256
 880 204 747 130 588 130 c 256
587 -22 m 256
 867 -22 1082 120 1082 382 c 256
 1082 563 989 689 800 740 c 257
 968 780 1059 902 1059 1068 c 256
 1059 1321 848 1450 587 1450 c 256
 328 1450 117 1320 117 1068 c 256
 117 908 200 783 378 740 c 257
 191 702 94 557 94 382 c 256
 94 120 308 -22 587 -22 c 256
EndSplineSet
EndChar

StartChar: ellipsis
Encoding: 8230 8230 204
Width: 1780
VWidth: 0
GlyphClass: 2
Flags: W
LayerCount: 2
Fore
SplineSet
1483 -2 m 256
 1556 -2 1599 50 1599 106 c 256
 1599 161 1554 212 1483 212 c 256
 1410 212 1367 159 1367 106 c 256
 1367 50 1410 -2 1483 -2 c 256
890 -2 m 256
 963 -2 1005 50 1005 106 c 256
 1005 161 961 212 890 212 c 256
 816 212 773 159 773 106 c 256
 773 50 817 -2 890 -2 c 256
296 -2 m 256
 368 -2 412 50 412 106 c 256
 412 161 367 212 296 212 c 256
 223 212 180 159 180 106 c 256
 180 50 224 -2 296 -2 c 256
EndSplineSet
EndChar

StartChar: emdash
Encoding: 8212 8212 206
Width: 2048
VWidth: 0
GlyphClass: 2
Flags: W
LayerCount: 2
Fore
SplineSet
76 452 m 258
 1972 452 l 258
 2022 452 2046 490 2046 528 c 256
 2046 566 2022 606 1972 606 c 258
 76 606 l 258
 26 606 2 567 2 529 c 256
 2 490 26 452 76 452 c 258
EndSplineSet
EndChar

StartChar: emptyset
Encoding: 8709 8709 207
Width: 1745
VWidth: 0
GlyphClass: 2
Flags: W
LayerCount: 2
Fore
SplineSet
367 75 m 256
 367 46 392 12 426 12 c 256
 456 12 480 46 502 75 c 258
 583 181 l 257
 671 136 770 110 874 110 c 256
 1206 110 1478 370 1478 687 c 256
 1478 857 1404 1005 1289 1109 c 257
 1373 1220 l 258
 1389 1244 1412 1270 1412 1297 c 256
 1412 1327 1388 1356 1356 1356 c 256
 1337 1356 1320 1348 1304 1327 c 258
 1193 1180 l 257
 1099 1237 988 1269 874 1269 c 256
 526 1269 267 995 267 687 c 256
 267 506 352 349 483 245 c 257
 407 145 l 258
 390 124 367 95 367 75 c 256
550 333 m 257
 452 419 393 546 393 687 c 256
 393 956 602 1159 874 1159 c 256
 968 1159 1054 1134 1126 1092 c 257
 550 333 l 257
648 267 m 257
 1220 1019 l 257
 1304 934 1353 816 1353 687 c 256
 1353 410 1134 215 874 215 c 256
 791 215 714 234 648 267 c 257
EndSplineSet
EndChar

StartChar: endash
Encoding: 8211 8211 208
Width: 1024
VWidth: 0
GlyphClass: 2
Flags: W
LayerCount: 2
Fore
SplineSet
76 452 m 258
 947 452 l 258
 997 452 1021 490 1021 528 c 256
 1021 566 997 606 947 606 c 258
 76 606 l 258
 26 606 2 567 2 529 c 256
 2 490 26 452 76 452 c 258
EndSplineSet
EndChar

StartChar: eng
Encoding: 331 331 209
Width: 1168
VWidth: 0
GlyphClass: 2
Flags: W
PickledData: "(dp1
S'com.typemytype.robofont.layerData'
p2
(dp3
S'b'
(dp4
S'name'
p5
S'eng'
p6
sS'lib'
p7
(dp8
sS'unicodes'
p9
(tsS'width'
p10
I1158
sS'contours'
p11
(tsS'components'
p12
(tsS'anchors'
p13
(tsss."
LayerCount: 2
Fore
SplineSet
399 -290 m 256
 498 -321 588 -338 667 -338 c 256
 885 -338 1020 -212 1020 80 c 258
 1020 626 l 258
 1020 898 867 1013 659 1013 c 256
 509 1013 384 947 333 824 c 257
 333 911 l 258
 333 966 288 993 243 993 c 256
 198 993 152 965 152 908 c 258
 152 86 l 258
 152 28 196 0 241 0 c 256
 287 0 333 29 333 86 c 258
 333 585 l 257
 342 779 464 890 613 890 c 256
 756 890 840 800 840 628 c 258
 840 80 l 258
 840 -116 784 -199 649 -199 c 256
 591 -199 519 -184 430 -156 c 256
 422 -154 414 -152 407 -152 c 256
 368 -152 344 -185 344 -220 c 256
 344 -248 360 -278 399 -290 c 256
EndSplineSet
EndChar

StartChar: equal
Encoding: 61 61 211
Width: 1333
VWidth: 0
GlyphClass: 2
Flags: W
LayerCount: 2
Fore
SplineSet
228 625 m 258
 1099 625 l 258
 1143 625 1179 655 1179 697 c 256
 1179 742 1142 770 1099 770 c 258
 233 770 l 258
 189 770 153 742 153 697 c 256
 153 658 186 625 228 625 c 258
228 226 m 258
 1100 226 l 258
 1143 226 1179 255 1179 297 c 256
 1179 342 1143 370 1102 370 c 258
 233 370 l 258
 189 370 153 341 153 297 c 256
 153 258 187 226 228 226 c 258
EndSplineSet
EndChar

StartChar: estimated
Encoding: 8494 8494 212
Width: 1132
VWidth: 0
GlyphClass: 2
Flags: W
LayerCount: 2
Fore
SplineSet
317 562 m 257
 328 796 421 968 591 968 c 256
 764 968 825 817 836 562 c 257
 317 562 l 257
600 -12 m 256
 782 -12 888 35 982 115 c 256
 1008 137 1019 159 1019 177 c 256
 1019 199 1003 214 980 214 c 256
 955 214 938 201 921 183 c 256
 826 85 712 39 604 39 c 256
 428 39 327 159 315 491 c 257
 955 491 l 258
 1003 491 1020 541 1020 577 c 256
 1020 786 927 1013 577 1013 c 256
 231 1013 102 759 102 512 c 256
 102 183 268 -12 600 -12 c 256
EndSplineSet
EndChar

StartChar: eth
Encoding: 240 240 213
Width: 1186
VWidth: 0
GlyphClass: 2
Flags: W
PickledData: "(dp1
S'com.typemytype.robofont.layerData'
p2
(dp3
S'b'
(dp4
S'name'
p5
S'eth'
p6
sS'lib'
p7
(dp8
sS'unicodes'
p9
(tsS'width'
p10
I1230
sS'contours'
p11
(tsS'components'
p12
(tsS'anchors'
p13
(tsss."
LayerCount: 2
Fore
SplineSet
580 119 m 256
 390 119 286 247 286 432 c 256
 286 605 366 757 558 757 c 256
 761 757 871 616 871 424 c 256
 871 258 750 119 580 119 c 256
566 -33 m 256
 969 -33 1100 276 1100 624 c 256
 1100 756 1086 906 1050 1054 c 257
 1183 1054 l 258
 1226 1054 1248 1087 1248 1119 c 256
 1248 1151 1227 1183 1183 1183 c 258
 1009 1183 l 257
 946 1341 841 1534 742 1534 c 256
 693 1534 653 1496 653 1452 c 256
 653 1434 659 1416 674 1398 c 256
 725 1335 775 1255 805 1183 c 257
 628 1183 l 258
 583 1183 562 1150 562 1118 c 256
 562 1086 583 1054 628 1054 c 258
 849 1054 l 257
 881 944 893 814 893 718 c 258
 893 687 l 257
 827 827 688 893 530 893 c 256
 254 893 87 709 87 442 c 256
 87 169 268 -33 566 -33 c 256
EndSplineSet
EndChar

StartChar: exclam
Encoding: 33 33 214
Width: 791
VWidth: 0
GlyphClass: 2
Flags: W
LayerCount: 2
Fore
SplineSet
360 458 m 258
 363 420 387 400 412 400 c 256
 436 400 461 419 464 458 c 258
 519 1392 l 257
 519 1400 l 258
 519 1462 466 1492 413 1492 c 256
 360 1492 307 1462 307 1400 c 258
 307 1392 l 257
 360 458 l 258
EndSplineSet
Refer: 313 46 N 1 0 0 1 119 -3 2
EndChar

StartChar: f
Encoding: 102 102 216
Width: 704
VWidth: 0
GlyphClass: 2
Flags: W
PickledData: "(dp1
S'b'
(dp2
sS'anchors'
p3
(tsS'lib'
p4
(dp5
sS'unicodes'
p6
(tsS'width'
p7
I723
sS'contours'
p8
(tsS'components'
p9
(tsS'com.typemytype.robofont.layerData'
p10
(dp11
S'b'
(dp12
S'name'
p13
S'f'
sg4
(dp14
sg6
(tsg7
I696
sg8
(tsg9
(tsg3
(tsssg13
S'f'
s."
LayerCount: 2
Fore
SplineSet
326 0 m 256
 372 0 417 30 417 89 c 258
 417 866 l 257
 586 866 l 258
 633 866 650 891 650 924 c 256
 650 956 633 984 586 984 c 258
 417 984 l 257
 417 1062 l 258
 417 1276 453 1304 558 1304 c 258
 643 1304 l 258
 686 1304 706 1338 706 1372 c 256
 706 1407 685 1441 644 1441 c 258
 522 1441 l 258
 360 1441 236 1366 236 1111 c 258
 236 984 l 257
 105 984 l 258
 59 984 40 956 40 924 c 256
 40 893 59 866 105 866 c 258
 236 866 l 257
 236 89 l 258
 236 29 281 0 326 0 c 256
EndSplineSet
EndChar

StartChar: uniFB01
Encoding: 64257 64257 217
Width: 1184
VWidth: 0
GlyphClass: 2
Flags: W
LayerCount: 2
Fore
SplineSet
941 1238 m 256
 1013 1238 1058 1282 1058 1335 c 256
 1058 1389 1013 1433 941 1433 c 256
 870 1433 824 1388 824 1335 c 256
 824 1282 870 1238 941 1238 c 256
320 1 m 256
 366 1 411 31 411 90 c 258
 411 861 l 257
 851 861 l 257
 851 91 l 258
 851 29 894 0 940 0 c 256
 985 0 1032 31 1032 91 c 258
 1032 903 l 258
 1032 966 983 993 938 993 c 258
 411 993 l 257
 411 1025 l 258
 411 1250 419 1307 531 1307 c 256
 571 1307 602 1296 641 1296 c 256
 679 1296 701 1331 701 1365 c 256
 701 1393 686 1420 653 1429 c 256
 598 1444 545 1452 492 1452 c 256
 330 1452 230 1361 230 1098 c 258
 230 993 l 257
 99 993 l 258
 52 993 30 961 30 928 c 256
 30 895 53 861 99 861 c 258
 230 861 l 257
 230 90 l 258
 230 30 275 1 320 1 c 256
EndSplineSet
EndChar

StartChar: five
Encoding: 53 53 218
Width: 1175
VWidth: 0
GlyphClass: 2
Flags: W
PickledData: "(dp1
S'com.typemytype.robofont.layerData'
p2
(dp3
S'b'
(dp4
S'name'
p5
S'five'
p6
sS'lib'
p7
(dp8
sS'unicodes'
p9
(tsS'width'
p10
I1160
sS'contours'
p11
(tsS'components'
p12
(tsS'anchors'
p13
(tsss."
LayerCount: 2
Fore
SplineSet
607 -22 m 256
 890 -22 1092 160 1092 442 c 256
 1092 709 921 899 652 899 c 256
 437 899 340 784 340 784 c 257
 341 1267 l 257
 934 1267 l 258
 984 1267 1008 1303 1008 1342 c 256
 1008 1380 984 1418 934 1418 c 258
 278 1418 l 258
 213 1418 181 1386 181 1328 c 258
 181 675 l 258
 181 632 255 602 304 602 c 256
 321 602 336 606 343 614 c 256
 403 687 518 743 626 743 c 256
 791 743 900 624 900 447 c 256
 900 258 801 140 600 140 c 256
 464 140 359 193 282 260 c 256
 271 269 259 273 247 273 c 256
 205 273 162 224 162 181 c 256
 162 165 168 150 182 138 c 256
 298 35 425 -22 607 -22 c 256
EndSplineSet
EndChar

StartChar: uniFB02
Encoding: 64258 64258 220
Width: 1184
VWidth: 0
GlyphClass: 2
Flags: W
LayerCount: 2
Fore
SplineSet
320 1 m 256
 366 1 411 31 411 90 c 258
 411 861 l 257
 565 861 l 258
 612 861 635 895 635 928 c 256
 635 961 612 993 565 993 c 258
 411 993 l 257
 411 1029 l 258
 411 1251 430 1325 538 1325 c 258
 784 1325 l 257
 784 91 l 258
 784 29 827 0 872 0 c 256
 918 0 965 31 965 91 c 258
 965 1338 l 258
 965 1399 920 1428 875 1428 c 256
 833 1428 791 1402 785 1351 c 257
 775 1368 694 1449 487 1449 c 256
 340 1448 230 1358 230 1098 c 258
 230 993 l 257
 99 993 l 258
 52 993 30 961 30 928 c 256
 30 895 53 861 99 861 c 258
 230 861 l 257
 230 90 l 258
 230 30 275 1 320 1 c 256
EndSplineSet
EndChar

StartChar: florin
Encoding: 402 402 221
Width: 1186
VWidth: 0
GlyphClass: 2
Flags: W
LayerCount: 2
Fore
SplineSet
58 -537 m 256
 215 -537 385 -442 490 -10 c 256
 551 245 606 533 663 789 c 257
 863 789 l 258
 914 789 939 828 939 866 c 256
 939 904 914 943 863 943 c 258
 694 943 l 257
 768 1291 851 1428 986 1428 c 256
 1055 1428 1088 1462 1088 1495 c 256
 1088 1526 1060 1555 1003 1555 c 256
 793 1555 618 1384 537 943 c 257
 357 943 l 258
 306 943 280 905 280 867 c 256
 280 828 306 789 357 789 c 258
 506 789 l 257
 451 533 397 246 336 -8 c 256
 254 -346 145 -400 70 -402 c 256
 5 -404 -30 -442 -30 -477 c 256
 -30 -509 -4 -537 58 -537 c 256
EndSplineSet
EndChar

StartChar: foundryicon
Encoding: 65538 -1 222
Width: 1347
VWidth: 0
GlyphClass: 2
Flags: W
LayerCount: 2
Fore
SplineSet
280 2 m 257
 669 278 l 257
 1066 2 l 257
 922 461 l 257
 1313 755 l 257
 828 755 l 257
 669 1215 l 257
 519 755 l 257
 34 755 l 257
 423 461 l 257
 280 2 l 257
485 405 m 257
 485 672 l 257
 591 672 l 257
 761 523 l 257
 761 672 l 257
 867 672 l 257
 867 405 l 257
 761 405 l 257
 591 552 l 257
 591 405 l 257
 485 405 l 257
EndSplineSet
EndChar

StartChar: four
Encoding: 52 52 223
Width: 1175
VWidth: 0
GlyphClass: 2
Flags: W
PickledData: "(dp1
S'com.typemytype.robofont.layerData'
p2
(dp3
S'b'
(dp4
S'name'
p5
S'four'
p6
sS'lib'
p7
(dp8
sS'unicodes'
p9
(tsS'width'
p10
I1160
sS'contours'
p11
(tsS'components'
p12
(tsS'anchors'
p13
(tsss."
LayerCount: 2
Fore
SplineSet
265 456 m 257
 743 1224 l 257
 743 456 l 257
 265 456 l 257
841 -1 m 256
 888 -1 937 30 937 89 c 258
 937 310 l 257
 1083 310 l 258
 1132 310 1156 346 1156 383 c 256
 1156 420 1132 456 1083 456 c 258
 938 456 l 257
 938 1290 l 258
 938 1388 872 1429 798 1429 c 256
 733 1429 678 1401 635 1334 c 258
 89 476 l 258
 76 456 70 435 70 414 c 256
 70 360 110 310 173 310 c 258
 743 310 l 257
 743 89 l 258
 743 30 794 -1 841 -1 c 256
EndSplineSet
EndChar

StartChar: uni2074
Encoding: 8308 8308 224
Width: 731
VWidth: 0
GlyphClass: 2
Flags: W
LayerCount: 2
Fore
SplineSet
134 837 m 257
 437 1309 l 257
 437 837 l 257
 134 837 l 257
490 573 m 256
 516 573 542 591 542 626 c 258
 542 760 l 257
 630 760 l 258
 659 760 672 779 672 799 c 256
 672 819 657 837 630 837 c 258
 542 837 l 257
 542 1328 l 258
 542 1385 509 1411 467 1411 c 256
 429 1411 398 1396 373 1353 c 258
 47 854 l 258
 39 841 35 829 35 815 c 256
 35 785 58 760 96 760 c 258
 437 760 l 257
 437 626 l 258
 437 591 463 573 490 573 c 256
EndSplineSet
EndChar

StartChar: fraction
Encoding: 8260 8260 225
Width: 599
VWidth: 0
GlyphClass: 2
Flags: W
LayerCount: 2
Fore
SplineSet
57 -72 m 256
 86 -72 114 -56 127 -19 c 258
 611 1431 l 258
 614 1443 616 1452 616 1460 c 256
 616 1503 579 1529 541 1529 c 256
 510 1529 480 1514 468 1476 c 258
 -12 26 l 258
 -15 15 -17 5 -17 -2 c 256
 -17 -46 19 -72 57 -72 c 256
EndSplineSet
EndChar

StartChar: g
Encoding: 103 103 226
Width: 1178
VWidth: 0
GlyphClass: 2
Flags: W
PickledData: "(dp1
S'b'
(dp2
sS'anchors'
p3
(tsS'lib'
p4
(dp5
sS'unicodes'
p6
(tsS'width'
p7
I1207
sS'contours'
p8
(tsS'components'
p9
(tsS'com.typemytype.robofont.layerData'
p10
(dp11
S'b'
(dp12
S'name'
p13
S'g'
sg4
(dp14
sg6
(tsg7
I1167
sg8
(tsg9
(tsg3
(tsssg13
S'g'
s."
AnchorPoint: "top" 553 994 basechar 0
LayerCount: 2
Fore
SplineSet
569 120 m 256
 404 120 265 238 265 498 c 256
 265 711 357 890 569 890 c 256
 790 890 861 699 861 502 c 256
 861 253 733 120 569 120 c 256
561 -423 m 256
 846 -423 1037 -287 1037 6 c 258
 1037 909 l 258
 1037 965 996 994 952 994 c 256
 912 994 872 969 868 921 c 257
 868 820 l 257
 809 935 712 1013 536 1013 c 256
 245 1013 84 780 84 492 c 256
 84 219 246 0 541 0 c 256
 699 0 810 82 862 198 c 257
 862 0 l 258
 862 -190 758 -297 549 -297 c 256
 419 -297 328 -258 265 -235 c 256
 257 -232 249 -231 242 -231 c 256
 208 -231 182 -261 182 -293 c 256
 182 -314 193 -336 220 -351 c 256
 282 -384 402 -423 561 -423 c 256
EndSplineSet
EndChar

StartChar: germandbls
Encoding: 223 223 232
Width: 1298
VWidth: 0
GlyphClass: 2
Flags: W
LayerCount: 2
Fore
SplineSet
853 -27 m 256
 1053 -27 1225 95 1225 310 c 256
 1225 622 795 613 795 793 c 256
 795 889 1033 984 1033 1146 c 256
 1033 1350 838 1460 631 1460 c 256
 307 1460 162 1277 162 987 c 258
 162 87 l 258
 162 28 206 0 251 0 c 256
 297 0 343 29 343 87 c 258
 343 963 l 258
 346 1141 405 1329 612 1329 c 256
 727 1329 846 1272 846 1149 c 256
 846 1015 606 955 606 780 c 256
 606 522 1043 518 1043 302 c 256
 1043 170 964 107 845 107 c 256
 764 107 709 146 669 209 c 256
 654 231 633 240 612 240 c 256
 575 240 537 210 537 168 c 256
 537 156 540 144 547 131 c 256
 602 25 713 -27 853 -27 c 256
EndSplineSet
EndChar

StartChar: grave
Encoding: 96 96 233
Width: 569
VWidth: 0
GlyphClass: 4
Flags: W
AnchorPoint: "top" 446 1040 mark 0
LayerCount: 2
Fore
SplineSet
461 1194 m 256
 486 1194 502 1213 502 1236 c 256
 502 1248 498 1259 488 1271 c 258
 230 1569 l 258
 211 1591 193 1602 170 1602 c 256
 122 1602 73 1554 73 1508 c 256
 73 1491 81 1474 97 1461 c 258
 415 1213 l 258
 430 1201 447 1194 461 1194 c 256
EndSplineSet
EndChar

StartChar: greater
Encoding: 62 62 234
Width: 1333
VWidth: 0
GlyphClass: 2
Flags: W
PickledData: "(dp1
S'com.typemytype.robofont.layerData'
p2
(dp3
S'b'
(dp4
S'name'
p5
S'less'
p6
sS'lib'
p7
(dp8
sS'unicodes'
p9
(tsS'width'
p10
I1340
sS'contours'
p11
(tsS'components'
p12
(tsS'anchors'
p13
(tsss."
LayerCount: 2
Fore
SplineSet
230 31 m 258
 1109 419 l 258
 1143 434 1162 466 1162 497 c 256
 1162 527 1144 558 1104 575 c 258
 234 944 l 258
 228 947 221 948 215 948 c 256
 180 948 148 909 148 873 c 256
 148 853 158 834 183 823 c 258
 961 497 l 257
 180 152 l 258
 161 144 154 126 154 106 c 256
 154 70 180 27 213 27 c 256
 219 27 224 28 230 31 c 258
EndSplineSet
EndChar

StartChar: greaterequal
Encoding: 8805 8805 235
Width: 1182
VWidth: 0
GlyphClass: 2
Flags: W
LayerCount: 2
Fore
SplineSet
168 9 m 258
 1015 9 l 258
 1055 9 1074 38 1074 68 c 256
 1074 97 1055 127 1015 127 c 258
 168 127 l 258
 130 127 110 98 110 68 c 256
 110 39 130 9 168 9 c 258
164 240 m 256
 173 240 183 242 193 246 c 258
 1074 620 l 258
 1119 640 1139 670 1139 703 c 256
 1139 736 1119 767 1076 784 c 258
 191 1176 l 258
 181 1180 170 1182 161 1182 c 256
 122 1182 94 1147 94 1112 c 256
 94 1088 107 1066 136 1054 c 258
 928 704 l 257
 138 372 l 258
 108 360 95 336 95 312 c 256
 95 275 124 240 164 240 c 256
EndSplineSet
EndChar

StartChar: guillemotleft
Encoding: 171 171 236
Width: 1169
VWidth: 0
GlyphClass: 2
Flags: W
LayerCount: 2
Fore
SplineSet
876 100 m 258
 912 100 941 126 941 162 c 256
 941 172 938 181 935 189 c 258
 770 542 l 257
 934 891 l 258
 938 901 941 911 941 922 c 256
 941 957 912 983 876 983 c 256
 850 983 822 969 801 932 c 258
 582 542 l 257
 798 155 l 258
 819 116 847 100 874 100 c 258
 876 100 l 258
474 100 m 256
 510 100 538 125 538 161 c 256
 538 171 535 181 532 189 c 258
 367 542 l 257
 531 891 l 258
 536 902 538 913 538 922 c 256
 538 957 510 983 474 983 c 256
 447 983 419 968 398 932 c 258
 180 542 l 257
 396 155 l 258
 418 116 445 100 474 100 c 256
EndSplineSet
EndChar

StartChar: guillemotright
Encoding: 187 187 237
Width: 1169
VWidth: 0
GlyphClass: 2
Flags: W
LayerCount: 2
Fore
SplineSet
692 100 m 256
 719 100 747 115 769 155 c 258
 985 542 l 257
 769 927 l 258
 747 966 719 983 691 983 c 256
 656 983 626 957 626 922 c 256
 626 912 629 902 634 891 c 258
 798 542 l 257
 634 191 l 258
 629 180 626 169 626 160 c 256
 626 124 656 100 692 100 c 256
289 100 m 256
 316 100 344 115 366 155 c 258
 582 542 l 257
 366 927 l 258
 344 966 315 983 288 983 c 256
 253 983 223 957 223 922 c 256
 223 912 226 902 231 892 c 258
 395 542 l 257
 231 191 l 258
 226 180 223 169 223 160 c 256
 223 124 254 100 289 100 c 256
EndSplineSet
EndChar

StartChar: guilsinglleft
Encoding: 8249 8249 238
Width: 593
VWidth: 0
GlyphClass: 2
Flags: W
LayerCount: 2
Fore
SplineSet
397 101 m 256
 431 101 460 126 460 160 c 256
 460 170 458 179 455 187 c 258
 290 542 l 257
 455 896 l 258
 459 905 460 914 460 922 c 256
 460 957 431 982 397 982 c 256
 370 982 342 968 321 931 c 258
 103 542 l 257
 321 152 l 258
 342 114 370 101 397 101 c 256
EndSplineSet
EndChar

StartChar: guilsinglright
Encoding: 8250 8250 239
Width: 593
VWidth: 0
GlyphClass: 2
Flags: W
LayerCount: 2
Fore
SplineSet
197 101 m 256
 223 101 252 114 274 152 c 258
 492 542 l 257
 274 931 l 258
 252 968 222 982 197 982 c 256
 163 982 133 957 133 922 c 256
 133 913 135 905 139 896 c 258
 305 542 l 257
 139 187 l 258
 135 178 133 169 133 161 c 256
 133 127 163 101 197 101 c 256
EndSplineSet
EndChar

StartChar: h
Encoding: 104 104 240
Width: 1158
VWidth: 0
GlyphClass: 2
Flags: W
PickledData: "(dp1
S'b'
(dp2
sS'anchors'
p3
(tsS'lib'
p4
(dp5
sS'unicodes'
p6
(tsS'y'
I113
sS'width'
p7
I1195
sS'points'
p8
(dp9
sS'contours'
p10
(dp11
sS'components'
p12
(tsS'segmentType'
p13
S'curve'
p14
sS'x'
I137
sS'com.typemytype.robofont.layerData'
p15
(dp16
S'b'
(dp17
S'name'
p18
S'h'
sg4
(dp19
sg6
(tsg7
I1148
sg10
(tsg12
(tsg3
(tsssg18
S'h'
s."
LayerCount: 2
Fore
SplineSet
241 0 m 256
 287 0 333 29 333 86 c 258
 333 571 l 258
 333 776 469 879 624 879 c 256
 753 879 840 806 840 642 c 258
 840 86 l 258
 840 29 884 0 929 0 c 256
 975 0 1020 29 1020 86 c 258
 1020 632 l 258
 1020 905 853 1013 663 1013 c 256
 520 1013 388 950 333 838 c 257
 333 1345 l 258
 333 1401 289 1428 243 1428 c 256
 198 1428 152 1400 152 1345 c 258
 152 86 l 258
 152 29 196 0 241 0 c 256
EndSplineSet
EndChar

StartChar: hungarumlaut
Encoding: 733 733 243
Width: 569
VWidth: 0
GlyphClass: 4
Flags: W
AnchorPoint: "top" 174 1040 mark 0
LayerCount: 2
Fore
SplineSet
339 1106 m 256
 352 1106 365 1110 380 1123 c 258
 701 1372 l 258
 718 1385 725 1403 725 1420 c 256
 725 1466 676 1513 628 1513 c 256
 607 1513 588 1504 572 1484 c 258
 308 1180 l 258
 298 1169 296 1158 296 1147 c 256
 296 1125 313 1106 339 1106 c 256
8 1106 m 256
 21 1106 36 1110 51 1123 c 258
 371 1372 l 258
 388 1385 395 1402 395 1419 c 256
 395 1466 346 1513 298 1513 c 256
 278 1513 259 1504 243 1484 c 258
 -22 1180 l 258
 -31 1169 -34 1158 -34 1147 c 256
 -34 1124 -17 1106 8 1106 c 256
EndSplineSet
EndChar

StartChar: hyphen
Encoding: 45 45 244
Width: 683
VWidth: 0
GlyphClass: 2
Flags: W
LayerCount: 2
Fore
SplineSet
119 459 m 258
 564 459 l 258
 611 459 644 487 644 527 c 256
 644 570 612 598 564 598 c 258
 119 598 l 258
 72 598 39 570 39 527 c 256
 39 487 72 459 119 459 c 258
EndSplineSet
EndChar

StartChar: i
Encoding: 105 105 245
Width: 491
VWidth: 0
GlyphClass: 2
Flags: W
LayerCount: 2
Fore
SplineSet
253 1225 m 256
 323 1225 370 1269 370 1335 c 256
 370 1401 324 1446 254 1446 c 256
 184 1446 136 1401 136 1335 c 256
 136 1269 183 1225 253 1225 c 256
252 0 m 256
 297 0 344 31 344 91 c 258
 344 904 l 258
 344 963 299 994 255 994 c 256
 209 994 163 963 163 904 c 258
 163 91 l 258
 163 29 207 0 252 0 c 256
EndSplineSet
EndChar

StartChar: infinity
Encoding: 8734 8734 254
Width: 1615
VWidth: 0
GlyphClass: 2
Flags: W
LayerCount: 2
Fore
SplineSet
1197 366 m 256
 1088 366 1009 440 873 593 c 257
 945 669 1053 817 1191 817 c 258
 1194 817 l 258
 1310 817 1399 730 1399 589 c 256
 1399 481 1327 366 1197 366 c 256
432 366 m 258
 300 366 217 468 217 589 c 256
 217 713 293 817 420 817 c 256
 568 817 660 696 750 584 c 257
 666 494 565 366 435 366 c 258
 432 366 l 258
419 261 m 256
 587 261 700 379 810 505 c 257
 953 338 1062 261 1190 261 c 256
 1355 261 1511 389 1511 596 c 258
 1511 599 l 258
 1511 790 1382 920 1200 920 c 256
 1024 920 919 790 817 675 c 257
 707 807 590 920 434 920 c 256
 245 920 103 780 103 587 c 256
 103 401 250 261 419 261 c 256
EndSplineSet
EndChar

StartChar: integral
Encoding: 8747 8747 255
Width: 755
VWidth: 0
GlyphClass: 2
Flags: W
LayerCount: 2
Fore
SplineSet
167 -336 m 256
 325 -336 474 -241 474 192 c 256
 474 530 445 896 445 1218 c 256
 445 1513 495 1632 621 1632 c 256
 677 1632 710 1662 710 1696 c 256
 710 1727 679 1759 607 1759 c 256
 408 1759 287 1611 287 1235 c 256
 287 909 318 535 318 194 c 256
 318 -147 231 -201 149 -201 c 256
 86 -201 55 -232 55 -266 c 256
 55 -300 90 -336 167 -336 c 256
EndSplineSet
EndChar

StartChar: j
Encoding: 106 106 258
Width: 502
VWidth: 0
GlyphClass: 2
Flags: W
LayerCount: 2
Fore
SplineSet
256 1225 m 256
 326 1225 373 1269 373 1335 c 256
 373 1401 327 1446 257 1446 c 256
 186 1446 139 1401 139 1335 c 256
 139 1269 186 1225 256 1225 c 256
20 -378 m 256
 328 -378 351 -279 351 -27 c 258
 351 904 l 258
 351 963 306 994 262 994 c 256
 216 994 170 963 170 904 c 258
 170 -63 l 258
 170 -224 152 -240 17 -240 c 256
 -24 -240 -45 -275 -45 -309 c 256
 -45 -343 -24 -378 20 -378 c 256
EndSplineSet
EndChar

StartChar: k
Encoding: 107 107 260
Width: 999
VWidth: 0
GlyphClass: 2
Flags: W
PickledData: "(dp1
S'com.typemytype.robofont.layerData'
p2
(dp3
S'b'
(dp4
S'name'
p5
S'k'
sS'lib'
p6
(dp7
sS'unicodes'
p8
(tsS'width'
p9
I984
sS'contours'
p10
((dp11
S'points'
p12
((dp13
S'segmentType'
p14
S'line'
p15
sS'x'
I318
sS'smooth'
p16
I0
sS'y'
I536
s(dp17
g14
S'line'
p18
sS'x'
I793
sg16
I1
sS'y'
I27
s(dp19
S'y'
I9
sS'x'
I809
sg16
I0
s(dp20
S'y'
I1
sS'x'
I828
sg16
I0
s(dp21
g14
S'curve'
p22
sS'x'
I845
sg16
I1
sS'y'
I1
s(dp23
S'y'
I1
sS'x'
I883
sg16
I0
s(dp24
S'y'
I33
sS'x'
I922
sg16
I0
s(dp25
g14
S'curve'
p26
sS'x'
I922
sg16
I1
sS'y'
I71
s(dp27
S'y'
I84
sS'x'
I922
sg16
I0
s(dp28
S'y'
I99
sS'x'
I918
sg16
I0
s(dp29
g14
S'curve'
p30
sS'x'
I906
sg16
I1
sS'y'
I112
s(dp31
g14
S'line'
p32
sS'x'
I492
sg16
I0
sS'y'
I554
s(dp33
g14
S'line'
p34
sS'x'
I873
sg16
I1
sS'y'
I889
s(dp35
S'y'
I902
sS'x'
I888
sg16
I0
s(dp36
S'y'
I918
sS'x'
I894
sg16
I0
s(dp37
g14
S'curve'
p38
sS'x'
I894
sg16
I1
sS'y'
I933
s(dp39
S'y'
I968
sS'x'
I894
sg16
I0
s(dp40
S'y'
I1002
sS'x'
I858
sg16
I0
s(dp41
g14
S'curve'
p42
sS'x'
I821
sg16
I1
sS'y'
I1002
s(dp43
S'y'
I1002
sS'x'
I802
sg16
I0
s(dp44
S'y'
I994
sS'x'
I785
sg16
I0
s(dp45
g14
S'curve'
p46
sS'x'
I770
sg16
I0
sS'y'
I979
s(dp47
g14
S'line'
p48
sS'x'
I318
sg16
I0
sS'y'
I574
stp49
stp50
sS'components'
p51
(tsS'anchors'
p52
(tsss."
AnchorPoint: "bot" 531 0 basechar 0
LayerCount: 2
Fore
SplineSet
241 0 m 256
 287 0 333 31 333 91 c 258
 333 527 l 257
 803 27 l 258
 821 7 843 -1 863 -1 c 256
 907 -1 947 38 947 81 c 256
 947 98 941 116 925 133 c 258
 528 551 l 257
 891 876 l 258
 908 892 915 909 915 927 c 256
 915 969 876 1008 834 1008 c 256
 818 1008 802 1002 787 989 c 258
 333 573 l 257
 333 1338 l 258
 333 1398 288 1428 244 1428 c 256
 198 1428 152 1398 152 1338 c 258
 152 91 l 258
 152 29 196 0 241 0 c 256
EndSplineSet
EndChar

StartChar: kgreenlandic
Encoding: 312 312 262
Width: 1002
VWidth: 0
GlyphClass: 2
Flags: W
PickledData: "(dp1
S'com.typemytype.robofont.layerData'
p2
(dp3
S'b'
(dp4
S'name'
p5
S'kgreenlandic'
p6
sS'lib'
p7
(dp8
sS'unicodes'
p9
(tsS'width'
p10
I1047
sS'contours'
p11
(tsS'components'
p12
(tsS'anchors'
p13
(tsss."
LayerCount: 2
Fore
SplineSet
243 0 m 256
 289 0 335 31 335 91 c 258
 335 501 l 257
 806 27 l 258
 824 8 846 0 866 0 c 256
 911 0 951 39 951 81 c 256
 951 99 944 117 927 133 c 258
 531 524 l 257
 893 876 l 258
 909 892 916 910 916 928 c 256
 916 970 878 1010 837 1010 c 256
 821 1010 804 1004 789 989 c 258
 335 546 l 257
 335 916 l 258
 335 976 290 1006 246 1006 c 256
 200 1006 155 976 155 916 c 258
 155 91 l 258
 155 29 199 0 243 0 c 256
EndSplineSet
EndChar

StartChar: l
Encoding: 108 108 263
Width: 498
VWidth: 0
GlyphClass: 2
Flags: W
PickledData: "(dp1
S'com.typemytype.robofont.layerData'
p2
(dp3
S'b'
(dp4
S'name'
p5
S'l'
sS'lib'
p6
(dp7
sS'unicodes'
p8
(tsS'width'
p9
I511
sS'contours'
p10
(tsS'components'
p11
(tsS'anchors'
p12
(tsss."
AnchorPoint: "bot" 253 0 basechar 0
AnchorPoint: "caron.alt" 271 1005 basechar 0
AnchorPoint: "top" 282 1429 basechar 0
LayerCount: 2
Fore
SplineSet
254 0 m 256
 299 0 346 31 346 91 c 258
 346 1338 l 258
 346 1398 301 1428 257 1428 c 256
 211 1428 165 1398 165 1338 c 258
 165 91 l 258
 165 29 209 0 254 0 c 256
EndSplineSet
EndChar

StartChar: less
Encoding: 60 60 268
Width: 1333
VWidth: 0
GlyphClass: 2
Flags: W
PickledData: "(dp1
S'com.typemytype.robofont.layerData'
p2
(dp3
S'b'
(dp4
S'name'
p5
S'less'
p6
sS'lib'
p7
(dp8
sS'unicodes'
p9
(tsS'width'
p10
I1340
sS'contours'
p11
(tsS'components'
p12
(tsS'anchors'
p13
(tsss."
LayerCount: 2
Fore
SplineSet
1079 31 m 258
 1085 28 1091 27 1097 27 c 256
 1131 27 1156 69 1156 105 c 256
 1156 125 1148 144 1129 152 c 258
 348 497 l 257
 1127 823 l 258
 1152 834 1161 852 1161 872 c 256
 1161 908 1129 948 1094 948 c 256
 1088 948 1081 947 1075 944 c 258
 205 575 l 258
 165 558 148 527 148 497 c 256
 148 465 167 434 201 419 c 258
 1079 31 l 258
EndSplineSet
EndChar

StartChar: lessequal
Encoding: 8804 8804 269
Width: 1182
VWidth: 0
GlyphClass: 2
Flags: W
LayerCount: 2
Fore
SplineSet
160 9 m 258
 1007 9 l 258
 1046 9 1066 39 1066 68 c 256
 1066 98 1047 127 1007 127 c 258
 160 127 l 258
 121 127 102 98 102 68 c 256
 102 39 121 9 160 9 c 258
1032 230 m 256
 1071 230 1097 266 1097 301 c 256
 1097 325 1086 347 1057 359 c 258
 264 709 l 257
 1055 1041 l 258
 1085 1053 1097 1077 1097 1100 c 256
 1097 1137 1069 1173 1028 1173 c 256
 1019 1173 1009 1171 1000 1167 c 258
 119 793 l 258
 73 773 53 742 53 710 c 256
 53 677 73 647 116 629 c 258
 1001 237 l 258
 1011 232 1022 230 1032 230 c 256
EndSplineSet
EndChar

StartChar: logicalnot
Encoding: 172 172 270
Width: 1333
VWidth: 0
GlyphClass: 2
Flags: W
LayerCount: 2
Fore
SplineSet
1106 230 m 256
 1143 230 1180 254 1180 302 c 258
 1180 720 l 258
 1180 757 1143 795 1104 795 c 258
 222 795 l 258
 176 795 155 758 155 721 c 256
 155 684 176 648 222 648 c 258
 1032 648 l 257
 1032 302 l 258
 1032 254 1068 230 1106 230 c 256
EndSplineSet
EndChar

StartChar: lozenge
Encoding: 9674 9674 271
Width: 1219
VWidth: 0
GlyphClass: 2
Flags: W
LayerCount: 2
Fore
SplineSet
607 99 m 257
 273 721 l 257
 604 1334 l 257
 611 1334 l 257
 944 714 l 257
 613 99 l 257
 607 99 l 257
606 -90 m 256
 633 -90 660 -75 679 -41 c 258
 1101 716 l 257
 689 1468 l 258
 668 1505 642 1530 610 1530 c 256
 581 1530 555 1510 535 1474 c 258
 120 716 l 257
 530 -30 l 258
 549 -66 574 -90 606 -90 c 256
EndSplineSet
EndChar

StartChar: lslash
Encoding: 322 322 272
Width: 575
VWidth: 0
GlyphClass: 2
Flags: HW
LayerCount: 2
Fore
SplineSet
511 839 m 2
 531.418072438 852.548502677 539.906363326 872.104313624 539.906363326 891.705103462 c 0
 539.906363326 927.392045035 511.768457644 963.228087506 476.263477101 963.228087506 c 0
 465.338154994 963.228087506 453.715267336 959.834883395 442 952 c 2
 390 918.571428571 l 1
 390 1338 l 2
 390 1398 345 1428 301 1428 c 0
 255 1428 209 1398 209 1338 c 2
 209 802.214285714 l 1
 106 736 l 2
 83.6246084245 721.0359935 74.2462686364 699.304435283 74.2462686364 678.073083688 c 0
 74.2462686364 643.216664944 99.5238901941 609.708462835 134.066255624 609.708462835 c 0
 145.549682066 609.708462835 158.057043193 613.411771943 171 622 c 2
 209 646.252941176 l 1
 209 91 l 2
 209 29 253 0 298 0 c 0
 343 0 390 31 390 91 c 2
 390 761.773529412 l 1
 511 839 l 2
EndSplineSet
EndChar

StartChar: m
Encoding: 109 109 273
Width: 1846
VWidth: 0
GlyphClass: 2
Flags: W
PickledData: "(dp1
S'b'
(dp2
sS'anchors'
p3
(tsS'lib'
p4
(dp5
sS'unicodes'
p6
(tsS'width'
p7
I1877
sS'contours'
p8
(tsS'components'
p9
(tsS'com.typemytype.robofont.layerData'
p10
(dp11
S'b'
(dp12
S'name'
p13
S'm'
sg4
(dp14
sg6
(tsg7
I1838
sg8
(tsg9
(tsg3
(tsssg13
S'm'
s."
AnchorPoint: "top" 970 1002 basechar 0
LayerCount: 2
Fore
SplineSet
241 0 m 256
 287 0 334 28 334 85 c 258
 334 573 l 258
 334 776 449 890 620 890 c 256
 756 890 838 807 838 614 c 258
 838 86 l 258
 838 29 882 0 927 0 c 256
 973 0 1018 29 1018 86 c 258
 1018 568 l 258
 1018 789 1149 890 1305 890 c 256
 1443 890 1524 807 1524 639 c 258
 1524 85 l 258
 1524 28 1568 0 1613 0 c 256
 1658 0 1705 28 1705 85 c 258
 1705 632 l 258
 1705 903 1539 1013 1343 1013 c 256
 1171 1013 1042 938 985 780 c 257
 943 930 820 1013 656 1013 c 256
 513 1013 392 947 334 822 c 257
 334 915 l 258
 334 968 287 994 243 994 c 256
 198 994 152 965 152 910 c 258
 152 85 l 258
 152 28 196 0 241 0 c 256
EndSplineSet
EndChar

StartChar: macron
Encoding: 175 175 274
Width: 569
VWidth: 0
GlyphClass: 4
Flags: W
AnchorPoint: "mid" 291 1324 mark 0
AnchorPoint: "top" 289 1040 mark 0
LayerCount: 2
Fore
SplineSet
35 1264 m 258
 539 1264 l 258
 585 1264 606 1292 606 1329 c 256
 606 1363 585 1393 539 1393 c 258
 35 1393 l 258
 -12 1393 -34 1363 -34 1329 c 256
 -34 1292 -12 1264 35 1264 c 258
EndSplineSet
EndChar

StartChar: minus
Encoding: 8722 8722 276
Width: 715
VWidth: 0
GlyphClass: 2
Flags: W
LayerCount: 2
Fore
SplineSet
112 452 m 258
 598 452 l 258
 649 452 675 490 675 528 c 256
 675 566 649 606 598 606 c 258
 112 606 l 258
 60 606 35 567 35 529 c 256
 35 491 61 452 112 452 c 258
EndSplineSet
EndChar

StartChar: mu
Encoding: 181 181 277
Width: 1168
VWidth: 0
GlyphClass: 2
Flags: W
LayerCount: 2
Fore
SplineSet
238 -261 m 256
 284 -261 331 -231 331 -171 c 258
 331 42 l 257
 384 4 448 -11 518 -11 c 256
 648 -11 783 52 838 169 c 257
 838 84 l 258
 838 28 882 0 927 0 c 256
 973 0 1018 29 1018 85 c 258
 1018 908 l 258
 1018 966 974 993 929 993 c 256
 883 993 838 964 838 908 c 258
 838 384 l 257
 825 195 701 102 551 102 c 256
 436 102 331 180 331 348 c 258
 331 907 l 258
 331 965 286 993 240 993 c 256
 195 993 150 965 150 907 c 258
 150 -171 l 258
 150 -233 193 -261 238 -261 c 256
EndSplineSet
EndChar

StartChar: multiply
Encoding: 215 215 278
Width: 1333
VWidth: 0
GlyphClass: 2
Flags: W
LayerCount: 2
Fore
SplineSet
358 115 m 256
 376 115 393 122 408 137 c 258
 666 395 l 257
 914 147 l 258
 928 133 944 126 961 126 c 256
 1002 126 1038 163 1038 204 c 256
 1038 220 1032 237 1018 251 c 258
 770 499 l 257
 1028 758 l 258
 1044 774 1050 792 1050 808 c 256
 1050 847 1015 881 977 881 c 256
 958 881 941 874 926 859 c 258
 668 601 l 257
 419 850 l 258
 405 864 388 872 371 872 c 256
 331 872 293 833 293 794 c 256
 293 777 300 760 315 746 c 258
 564 496 l 257
 306 238 l 258
 291 223 284 205 284 188 c 256
 284 150 320 115 358 115 c 256
EndSplineSet
EndChar

StartChar: n
Encoding: 110 110 279
Width: 1161
VWidth: 0
GlyphClass: 2
Flags: W
PickledData: "(dp1
S'b'
(dp2
sS'anchors'
p3
(tsS'lib'
p4
(dp5
sS'unicodes'
p6
(tsS'y'
I113
sS'width'
p7
I1195
sS'points'
p8
(dp9
sS'contours'
p10
(dp11
sS'components'
p12
(tsS'segmentType'
p13
S'curve'
p14
sS'x'
I137
sS'com.typemytype.robofont.layerData'
p15
(dp16
S'b'
(dp17
S'name'
p18
S'n'
sg4
(dp19
sg6
(tsg7
I1152
sg10
(tsg12
(tsg3
(tsssg18
S'n'
s."
AnchorPoint: "bot" 587 0 basechar 0
AnchorPoint: "top" 617 991 basechar 0
LayerCount: 2
Fore
SplineSet
241 0 m 256
 287 0 333 29 333 86 c 258
 333 585 l 257
 342 779 464 890 613 890 c 256
 756 890 840 800 840 628 c 258
 840 86 l 258
 840 28 885 0 930 0 c 256
 975 0 1020 28 1020 86 c 258
 1020 626 l 258
 1020 898 867 1013 659 1013 c 256
 509 1013 384 947 333 824 c 257
 333 911 l 258
 333 966 288 993 243 993 c 256
 198 993 152 965 152 908 c 258
 152 86 l 258
 152 28 196 0 241 0 c 256
EndSplineSet
EndChar

StartChar: nine
Encoding: 57 57 284
Width: 1175
VWidth: 0
GlyphClass: 2
Flags: W
PickledData: "(dp1
S'com.typemytype.robofont.layerData'
p2
(dp3
S'b'
(dp4
S'name'
p5
S'nine'
p6
sS'lib'
p7
(dp8
sS'unicodes'
p9
(tsS'width'
p10
I1160
sS'contours'
p11
(tsS'components'
p12
(tsS'anchors'
p13
(tsss."
LayerCount: 2
Fore
SplineSet
555 666 m 256
 361 666 278 808 278 980 c 256
 278 1166 379 1292 575 1292 c 256
 768 1292 867 1149 867 983 c 256
 867 794 757 666 555 666 c 256
506 -22 m 256
 1013 -22 1090 431 1090 800 c 256
 1090 1138 969 1450 564 1450 c 256
 266 1450 83 1248 83 978 c 256
 83 711 258 524 535 523 c 256
 718 523 852 628 882 729 c 257
 882 394 830 140 510 140 c 256
 436 140 348 158 258 200 c 256
 249 204 241 206 233 206 c 256
 191 206 160 159 160 115 c 256
 160 89 171 65 197 52 c 256
 287 8 395 -22 506 -22 c 256
EndSplineSet
EndChar

StartChar: notequal
Encoding: 8800 8800 285
Width: 1170
VWidth: 0
GlyphClass: 2
Flags: W
LayerCount: 2
Fore
SplineSet
351 -11 m 256
 379 -11 404 2 420 36 c 258
 537 288 l 257
 1035 288 l 258
 1083 288 1107 323 1107 360 c 256
 1107 395 1083 431 1035 431 c 258
 600 431 l 257
 718 688 l 257
 1035 688 l 258
 1083 688 1106 724 1106 759 c 256
 1106 796 1082 831 1035 831 c 258
 781 831 l 257
 867 1016 l 258
 872 1028 875 1039 875 1052 c 256
 875 1093 838 1120 800 1120 c 256
 771 1120 744 1106 729 1073 c 258
 619 831 l 257
 157 831 l 258
 109 831 86 796 86 761 c 256
 86 724 110 688 157 688 c 258
 556 688 l 257
 438 431 l 257
 157 431 l 258
 109 431 86 396 86 360 c 256
 86 323 110 288 157 288 c 258
 376 288 l 257
 286 92 l 258
 279 80 277 68 278 57 c 256
 278 15 313 -11 351 -11 c 256
EndSplineSet
EndChar

StartChar: numbersign
Encoding: 35 35 287
Width: 1186
VWidth: 0
GlyphClass: 2
Flags: W
PickledData: "(dp1
S'com.typemytype.robofont.layerData'
p2
(dp3
S'b'
(dp4
S'name'
p5
S'numbersign'
p6
sS'lib'
p7
(dp8
sS'unicodes'
p9
(tsS'width'
p10
I1169
sS'contours'
p11
(tsS'components'
p12
(tsS'anchors'
p13
(tsss."
LayerCount: 2
Fore
SplineSet
453 592 m 257
 492 862 l 257
 750 862 l 257
 710 592 l 257
 453 592 l 257
296 -48 m 256
 328 -48 362 -27 368 16 c 258
 433 455 l 257
 691 455 l 257
 675 344 629 27 629 25 c 258
 629 16 l 258
 629 -29 665 -48 699 -48 c 256
 732 -48 764 -27 771 16 c 258
 836 455 l 257
 979 455 l 258
 1026 455 1048 489 1048 523 c 256
 1048 557 1025 592 979 592 c 258
 856 592 l 257
 896 862 l 257
 1036 862 l 258
 1083 862 1105 895 1105 930 c 256
 1105 965 1082 999 1036 999 c 258
 915 999 l 257
 931 1101 973 1391 973 1392 c 258
 973 1399 l 258
 973 1441 937 1461 902 1461 c 256
 868 1461 834 1440 827 1397 c 258
 769 999 l 257
 512 999 l 257
 527 1101 570 1391 570 1392 c 258
 570 1400 l 258
 570 1441 534 1461 499 1461 c 256
 465 1461 431 1440 424 1397 c 258
 366 999 l 257
 205 999 l 258
 159 999 137 966 137 931 c 256
 137 896 160 862 205 862 c 258
 346 862 l 257
 307 592 l 257
 149 592 l 258
 103 592 80 558 80 524 c 256
 80 490 104 455 149 455 c 258
 288 455 l 257
 272 344 226 27 226 26 c 256
 226 22 225 19 225 16 c 256
 225 -29 262 -48 296 -48 c 256
EndSplineSet
EndChar

StartChar: o
Encoding: 111 111 288
Width: 1158
VWidth: 0
GlyphClass: 2
Flags: W
PickledData: "(dp1
S'b'
(dp2
sS'anchors'
p3
(tsS'com.typemytype.robofont.layerData'
p4
(dp5
S'b'
(dp6
S'name'
p7
S'o'
sS'lib'
p8
(dp9
sS'unicodes'
p10
(tsS'width'
p11
I1144
sS'contours'
p12
(tsS'components'
p13
(tsg3
(tsssg10
(tsg7
S'o'
sg11
I1199
sg12
(tsg13
(tsg8
(dp14
sS'com.typemytype.robofont.guides'
p15
(ts."
AnchorPoint: "top" 579 998 basechar 0
LayerCount: 2
Fore
SplineSet
585 -18 m 256
 900 -18 1086 204 1086 497 c 256
 1086 794 897 1013 585 1013 c 256
 272 1013 84 792 84 497 c 256
 84 204 271 -18 585 -18 c 256
583 106 m 256
 382 106 264 259 264 497 c 256
 264 738 383 890 585 890 c 256
 787 890 906 736 906 497 c 256
 906 257 791 106 583 106 c 256
EndSplineSet
EndChar

StartChar: oe
Encoding: 339 339 293
Width: 1840
VWidth: 0
GlyphClass: 2
Flags: W
LayerCount: 2
Fore
SplineSet
1031 582 m 257
 1042 749 1130 892 1292 892 c 256
 1463 892 1549 763 1561 582 c 257
 1031 582 l 257
565 106 m 256
 356 106 272 311 272 496 c 256
 272 684 356 888 565 888 c 256
 773 888 851 680 851 492 c 256
 849 308 766 106 565 106 c 256
1287 -30 m 256
 1487 -30 1679 65 1679 164 c 256
 1679 195 1658 220 1627 220 c 256
 1615 220 1602 216 1588 207 c 256
 1524 161 1429 112 1330 112 c 256
 1113 112 1033 266 1030 461 c 257
 1671 461 l 258
 1717 461 1736 494 1736 527 c 256
 1729 808 1596 1024 1295 1024 c 256
 1129 1024 1008 934 938 805 c 257
 865 932 742 1022 565 1022 c 256
 238 1022 82 767 82 496 c 256
 82 229 238 -27 565 -27 c 256
 740 -27 862 64 935 195 c 257
 1002 60 1120 -30 1287 -30 c 256
EndSplineSet
EndChar

StartChar: ogonek
Encoding: 731 731 294
Width: 569
VWidth: 0
GlyphClass: 4
Flags: W
AnchorPoint: "ogonek" 243 0 mark 0
LayerCount: 2
Fore
SplineSet
437 -419 m 257
 437 -334 l 257
 333 -334 231 -304 231 -191 c 256
 231 -143 249 -81 293 0 c 257
 210 0 l 257
 117 -109 76 -205 76 -280 c 256
 76 -385 155 -448 278 -448 c 256
 325 -448 379 -439 437 -419 c 257
EndSplineSet
EndChar

StartChar: one
Encoding: 49 49 298
Width: 1175
VWidth: 0
GlyphClass: 2
Flags: W
PickledData: "(dp1
S'com.typemytype.robofont.layerData'
p2
(dp3
S'b'
(dp4
S'name'
p5
S'one'
p6
sS'lib'
p7
(dp8
sS'unicodes'
p9
(tsS'width'
p10
I1160
sS'contours'
p11
(tsS'components'
p12
(tsS'anchors'
p13
(tsss."
LayerCount: 2
Fore
SplineSet
658 0 m 256
 708 0 759 31 759 95 c 258
 758 1331 l 258
 758 1398 712 1429 663 1429 c 256
 645 1429 623 1424 608 1414 c 258
 265 1200 l 258
 241 1184 231 1163 231 1142 c 256
 231 1103 263 1068 304 1068 c 256
 317 1068 331 1072 343 1079 c 258
 559 1218 l 257
 559 95 l 258
 559 31 609 0 658 0 c 256
EndSplineSet
EndChar

StartChar: onehalf
Encoding: 189 189 299
Width: 1587
VWidth: 0
GlyphClass: 2
Flags: W
LayerCount: 2
Fore
SplineSet
518 -85 m 256
 543 -85 566 -71 576 -42 c 258
 1051 1356 l 258
 1054 1365 1055 1373 1055 1380 c 256
 1055 1416 1025 1438 993 1438 c 256
 968 1438 943 1424 934 1394 c 258
 461 -3 l 258
 458 -11 457 -20 457 -27 c 256
 457 -63 487 -85 518 -85 c 256
396 575 m 256
 423 575 451 592 451 627 c 258
 451 1332 l 258
 451 1371 426 1389 400 1389 c 256
 389 1389 379 1386 370 1380 c 258
 169 1254 l 258
 155 1246 149 1234 149 1220 c 256
 149 1199 167 1177 192 1177 c 256
 200 1177 207 1180 215 1185 c 258
 342 1266 l 257
 342 627 l 258
 342 592 369 575 396 575 c 256
993 0 m 258
 1427 0 l 258
 1458 0 1473 23 1473 46 c 256
 1473 69 1457 93 1427 93 c 258
 1056 93 l 257
 1210 226 1464 453 1464 634 c 256
 1464 768 1347 837 1209 837 c 256
 1114 837 965 780 965 725 c 256
 965 704 982 686 1007 686 c 256
 1018 686 1029 688 1039 695 c 256
 1079 717 1139 743 1199 743 c 256
 1274 743 1346 703 1346 625 c 256
 1346 500 1123 287 1007 177 c 256
 958 127 919 94 919 56 c 256
 919 25 941 0 993 0 c 258
EndSplineSet
EndChar

StartChar: onequarter
Encoding: 188 188 300
Width: 1568
VWidth: 0
GlyphClass: 2
Flags: W
PickledData: "(dp1
S'com.typemytype.robofont.layerData'
p2
(dp3
S'b'
(dp4
S'name'
p5
S'onequarter'
p6
sS'lib'
p7
(dp8
sS'unicodes'
p9
(tsS'width'
p10
I1543
sS'contours'
p11
(tsS'components'
p12
(tsS'anchors'
p13
(tsss."
LayerCount: 2
Fore
SplineSet
949 265 m 257
 1252 737 l 257
 1252 265 l 257
 949 265 l 257
521 -85 m 256
 546 -85 569 -71 579 -42 c 258
 1054 1356 l 258
 1057 1365 1059 1373 1059 1380 c 256
 1059 1416 1028 1438 996 1438 c 256
 972 1438 947 1424 937 1394 c 258
 464 -3 l 258
 461 -11 460 -20 460 -27 c 256
 460 -63 491 -85 521 -85 c 256
396 575 m 256
 423 575 451 592 451 627 c 258
 451 1332 l 258
 451 1371 426 1389 400 1389 c 256
 389 1389 379 1386 370 1380 c 258
 169 1254 l 258
 155 1246 149 1234 149 1220 c 256
 149 1199 167 1177 192 1177 c 256
 200 1177 207 1180 215 1185 c 258
 342 1266 l 257
 342 627 l 258
 342 592 369 575 396 575 c 256
1304 1 m 256
 1330 1 1357 19 1357 54 c 258
 1357 188 l 257
 1444 188 l 258
 1473 188 1486 207 1486 227 c 256
 1486 247 1472 266 1444 266 c 258
 1357 266 l 257
 1357 756 l 258
 1357 813 1324 839 1281 839 c 256
 1245 839 1212 825 1187 781 c 258
 861 282 l 258
 853 269 849 256 849 243 c 256
 849 213 872 188 910 188 c 258
 1252 188 l 257
 1252 54 l 258
 1252 19 1278 1 1304 1 c 256
EndSplineSet
EndChar

StartChar: uni00B9
Encoding: 185 185 301
Width: 691
VWidth: 0
GlyphClass: 2
Flags: W
LayerCount: 2
Fore
SplineSet
426 575 m 256
 452 575 480 592 480 627 c 258
 480 1332 l 258
 480 1371 456 1389 430 1389 c 256
 419 1389 409 1386 399 1380 c 258
 199 1254 l 258
 185 1246 179 1234 179 1220 c 256
 179 1199 197 1177 222 1177 c 256
 229 1177 237 1180 245 1185 c 258
 372 1266 l 257
 372 627 l 258
 372 592 399 575 426 575 c 256
EndSplineSet
EndChar

StartChar: ordfeminine
Encoding: 170 170 302
Width: 1053
VWidth: 0
GlyphClass: 2
Flags: W
LayerCount: 2
Fore
SplineSet
432 802 m 257
 343 805 272 848 272 943 c 256
 272 1090 454 1101 650 1101 c 257
 650 1033 l 257
 643 880 551 805 432 802 c 257
399 706 m 256
 504 706 610 758 652 852 c 257
 652 784 l 258
 652 746 684 727 714 727 c 256
 746 727 778 747 778 786 c 258
 779 1246 l 258
 779 1433 663 1511 485 1511 c 256
 358 1511 259 1476 199 1411 c 256
 190 1401 185 1391 185 1380 c 256
 185 1355 204 1334 231 1334 c 256
 240 1334 249 1335 257 1341 c 256
 319 1376 375 1405 480 1405 c 256
 582 1405 650 1367 650 1256 c 258
 650 1193 l 257
 623 1195 590 1196 565 1196 c 256
 309 1196 138 1126 138 939 c 256
 138 792 252 706 399 706 c 256
EndSplineSet
EndChar

StartChar: ordmasculine
Encoding: 186 186 303
Width: 1106
VWidth: 0
GlyphClass: 2
Flags: W
LayerCount: 2
Fore
SplineSet
536 717 m 256
 804 717 926 911 926 1113 c 256
 926 1315 804 1511 536 1511 c 256
 269 1511 148 1315 148 1113 c 256
 148 911 269 717 536 717 c 256
536 818 m 256
 365 818 296 977 296 1113 c 256
 296 1251 365 1408 536 1408 c 256
 708 1408 777 1251 777 1114 c 256
 777 977 708 818 536 818 c 256
EndSplineSet
EndChar

StartChar: oslash
Encoding: 248 248 304
Width: 1161
VWidth: 0
GlyphClass: 2
Flags: W
AnchorPoint: "top" 570 991 basechar 0
LayerCount: 2
Fore
SplineSet
144 -15 m 256
 144 -42 165 -65 196 -65 c 256
 211 -65 226 -59 238 -43 c 258
 312.167 52.4246 l 257
 387.015 7.42579 478.735 -18 585 -18 c 256
 900 -18 1086 204 1086 497 c 256
 1086 647.918 1037.2 778.695 948.256 870.833 c 257
 1023 967 l 258
 1032 979 1041 989 1041 1006 c 256
 1041 1034 1015 1057 984 1057 c 256
 969 1057 954 1051 942 1036 c 258
 865.979 937.678 l 257
 789.496 985.84 694.875 1013 585 1013 c 256
 272 1013 84 792 84 497 c 256
 84 342.928 135.707 208.489 230.398 115.637 c 257
 158 22 l 258
 150 12 144 1 144 -15 c 256
585 106 m 256
 511.111 105.634 448.328 125.873 398.412 163.39 c 257
 848.77 742.831 l 257
 886.103 678.245 906 594.728 906 497 c 256
 906 258 791 106 585 106 c 256
779.266 825.525 m 257
 327.505 241.232 l 257
 286.131 306.859 264 393.933 264 497 c 256
 264 738 383 890 585 890 c 256
 662.728 890 728.167 867.198 779.266 825.525 c 257
EndSplineSet
EndChar

StartChar: p
Encoding: 112 112 307
Width: 1190
VWidth: 0
GlyphClass: 2
Flags: W
PickledData: "(dp1
S'b'
(dp2
sS'anchors'
p3
(tsS'lib'
p4
(dp5
sS'unicodes'
p6
(tsS'width'
p7
I1207
sS'contours'
p8
(tsS'components'
p9
(tsS'com.typemytype.robofont.layerData'
p10
(dp11
S'b'
(dp12
S'name'
p13
S'p'
sg4
(dp14
sg6
(tsg7
I1181
sg8
(tsg9
(tsg3
(tsssg13
S'p'
s."
LayerCount: 2
Fore
SplineSet
635 106 m 256
 417 106 334 300 334 493 c 256
 334 717 406 890 644 890 c 256
 862 887 925 668 925 496 c 256
 925 315 853 106 635 106 c 256
242 -380 m 256
 288 -380 333 -351 333 -296 c 258
 333 169 l 257
 393 48 513 -18 660 -18 c 256
 945 -18 1106 208 1106 492 c 256
 1106 768 963 1013 676 1013 c 256
 526 1013 399 951 333 820 c 257
 333 909 l 258
 333 959 303 993 242 993 c 256
 197 993 152 965 152 909 c 258
 152 -296 l 258
 152 -351 197 -380 242 -380 c 256
EndSplineSet
EndChar

StartChar: paragraph
Encoding: 182 182 308
Width: 1322
VWidth: 0
GlyphClass: 2
Flags: W
LayerCount: 2
Fore
SplineSet
601 -253 m 256
 640 -253 679 -228 679 -178 c 258
 679 1298 l 257
 903 1298 l 257
 903 -178 l 258
 903 -228 942 -253 981 -253 c 256
 1020 -253 1059 -228 1059 -178 c 258
 1059 1308 l 258
 1059 1368 1051 1429 942 1429 c 258
 575 1429 l 258
 289 1429 124 1286 124 1051 c 256
 124 850 302 682 523 682 c 257
 523 -178 l 258
 523 -228 562 -253 601 -253 c 256
EndSplineSet
EndChar

StartChar: parenleft
Encoding: 40 40 309
Width: 606
VWidth: 0
GlyphClass: 2
Flags: W
LayerCount: 2
Fore
SplineSet
430 -225 m 256
 467 -225 500 -198 500 -157 c 256
 500 -144 496 -132 492 -121 c 256
 400 133 345 386 345 630 c 256
 345 875 401 1133 494 1388 c 256
 499 1400 501 1412 501 1423 c 256
 501 1464 467 1493 430 1493 c 256
 399 1493 370 1470 354 1430 c 256
 247 1170 154 901 154 629 c 256
 154 354 248 86 358 -174 c 256
 375 -211 403 -225 430 -225 c 256
EndSplineSet
EndChar

StartChar: parenright
Encoding: 41 41 310
Width: 606
VWidth: 0
GlyphClass: 2
Flags: W
LayerCount: 2
Fore
SplineSet
177 -226 m 256
 204 -226 233 -211 250 -174 c 256
 360 86 454 354 454 628 c 256
 454 901 361 1170 254 1430 c 256
 236 1470 209 1492 179 1492 c 256
 142 1492 107 1463 107 1423 c 256
 107 1411 110 1400 115 1388 c 256
 207 1132 263 875 263 630 c 256
 263 386 209 132 116 -121 c 256
 111 -134 108 -147 108 -158 c 256
 108 -198 140 -226 177 -226 c 256
EndSplineSet
EndChar

StartChar: partialdiff
Encoding: 8706 8706 311
Width: 1167
VWidth: 0
GlyphClass: 2
Flags: W
LayerCount: 2
Fore
SplineSet
535 120 m 258
 373 120 263 261 263 455 c 256
 263 668 401 841 569 841 c 256
 729 841 837 708 865 619 c 257
 839 360 719 120 537 120 c 258
 535 120 l 258
520 -24 m 256
 870 -24 1063 341 1063 823 c 256
 1063 1361 828 1609 510 1609 c 256
 384 1609 267 1574 163 1527 c 256
 132 1513 120 1490 120 1465 c 256
 120 1428 151 1389 190 1389 c 256
 199 1389 208 1391 216 1395 c 256
 306 1430 402 1460 500 1460 c 256
 730 1460 888 1281 888 858 c 256
 888 809 887 794 886 783 c 257
 879 791 732 982 536 982 c 256
 293 982 85 777 85 454 c 256
 85 223 223 -24 520 -24 c 256
EndSplineSet
EndChar

StartChar: percent
Encoding: 37 37 312
Width: 2067
VWidth: 0
GlyphClass: 2
Flags: W
LayerCount: 2
Fore
SplineSet
1515 -32 m 256
 1729 -32 1855 146 1855 359 c 256
 1855 551 1752 748 1515 748 c 256
 1302 748 1174 573 1174 359 c 256
 1174 139 1299 -32 1515 -32 c 256
1515 82 m 256
 1372 82 1324 217 1324 359 c 256
 1324 501 1372 636 1515 636 c 256
 1656 636 1705 500 1705 359 c 256
 1705 215 1655 82 1515 82 c 256
551 631 m 256
 764 631 893 805 893 1021 c 256
 893 1213 789 1411 551 1411 c 256
 337 1411 211 1235 211 1021 c 256
 211 799 336 631 551 631 c 256
551 743 m 256
 411 743 361 878 361 1021 c 256
 361 1163 411 1297 551 1297 c 256
 693 1297 743 1163 743 1021 c 256
 743 878 693 743 551 743 c 256
609 -70 m 256
 631 -70 650 -56 663 -32 c 258
 1442 1342 l 258
 1449 1356 1455 1371 1455 1384 c 256
 1455 1417 1428 1443 1398 1443 c 256
 1378 1443 1356 1432 1340 1404 c 258
 559 22 l 258
 552 10 547 -3 547 -13 c 256
 547 -45 577 -70 609 -70 c 256
EndSplineSet
EndChar

StartChar: period
Encoding: 46 46 313
Width: 593
VWidth: 0
GlyphClass: 2
Flags: W
LayerCount: 2
Fore
SplineSet
296 -2 m 256
 368 -2 412 50 412 106 c 256
 412 161 367 212 296 212 c 256
 223 212 180 159 180 106 c 256
 180 50 224 -2 296 -2 c 256
EndSplineSet
EndChar

StartChar: periodcentered
Encoding: 183 183 314
Width: 593
VWidth: 0
GlyphClass: 2
Flags: W
LayerCount: 2
Fore
SplineSet
282 411 m 256
 355 411 398 463 398 520 c 256
 398 575 355 627 282 627 c 256
 208 627 164 575 164 520 c 256
 164 463 208 411 282 411 c 256
EndSplineSet
EndChar

StartChar: perthousand
Encoding: 8240 8240 315
Width: 2309
VWidth: 0
GlyphClass: 2
Flags: W
LayerCount: 2
Fore
SplineSet
1905 -32 m 256
 2120 -32 2236 147 2236 357 c 256
 2236 567 2115 740 1910 740 c 256
 1693 740 1578 561 1578 352 c 256
 1578 140 1700 -32 1905 -32 c 256
1907 78 m 256
 1764 78 1717 216 1717 355 c 256
 1717 494 1766 631 1907 631 c 256
 2050 631 2097 492 2097 355 c 256
 2097 212 2048 78 1907 78 c 256
1158 -32 m 256
 1374 -32 1489 147 1489 357 c 256
 1489 568 1367 740 1163 740 c 256
 946 740 831 561 831 352 c 256
 831 141 953 -32 1158 -32 c 256
1160 78 m 256
 1017 78 971 216 971 355 c 256
 971 492 1017 631 1160 631 c 256
 1302 631 1350 492 1350 355 c 256
 1350 213 1301 78 1160 78 c 256
369 639 m 256
 585 639 700 818 700 1028 c 256
 700 1237 578 1411 374 1411 c 256
 157 1411 42 1232 42 1022 c 256
 42 812 163 639 369 639 c 256
371 748 m 256
 229 748 180 886 180 1025 c 256
 180 1162 229 1302 371 1302 c 256
 514 1302 561 1163 561 1025 c 256
 561 883 511 748 371 748 c 256
363 -70 m 256
 385 -70 403 -56 417 -32 c 258
 1196 1342 l 258
 1203 1356 1209 1371 1209 1384 c 256
 1209 1417 1183 1443 1152 1443 c 256
 1131 1443 1110 1432 1094 1404 c 258
 313 22 l 258
 307 10 301 -3 301 -13 c 256
 301 -45 331 -70 363 -70 c 256
EndSplineSet
EndChar

StartChar: pi
Encoding: 960 960 316
Width: 1222
VWidth: 0
GlyphClass: 2
Flags: W
PickledData: "(dp1
S'com.typemytype.robofont.layerData'
p2
(dp3
S'b'
(dp4
S'name'
p5
S'pi'
p6
sS'lib'
p7
(dp8
sS'unicodes'
p9
(tsS'width'
p10
I1285
sS'contours'
p11
(tsS'components'
p12
(tsS'anchors'
p13
(tsss."
LayerCount: 2
Fore
SplineSet
961 -20 m 256
 1023 -10 1042 10 1042 45 c 256
 1042 104 989 205 989 375 c 258
 989 922 l 257
 1070 922 l 258
 1120 922 1144 958 1144 996 c 256
 1144 1032 1120 1069 1070 1069 c 258
 211 1069 l 258
 150 1069 120 1032 120 996 c 256
 120 958 150 922 211 922 c 258
 286 922 l 257
 286 603 206 299 129 85 c 256
 124 71 122 58 122 47 c 256
 122 -1 162 -28 207 -28 c 256
 247 -28 292 -6 313 46 c 256
 388 233 445 654 456 922 c 257
 813 922 l 257
 813 340 l 258
 813 88 834 -23 933 -23 c 256
 942 -23 951 -22 961 -20 c 256
EndSplineSet
EndChar

StartChar: plus
Encoding: 43 43 317
Width: 1333
VWidth: 0
GlyphClass: 2
Flags: W
LayerCount: 2
Fore
SplineSet
666 4 m 256
 710 4 740 40 740 80 c 258
 740 426 l 257
 1101 426 l 258
 1144 426 1180 456 1180 498 c 256
 1180 542 1142 569 1101 569 c 258
 740 569 l 257
 740 918 l 258
 740 961 709 995 666 995 c 256
 620 995 592 959 592 918 c 258
 592 569 l 257
 232 569 l 258
 188 569 153 541 153 498 c 256
 153 455 190 426 232 426 c 258
 592 426 l 257
 592 80 l 258
 592 36 622 4 666 4 c 256
EndSplineSet
EndChar

StartChar: plusminus
Encoding: 177 177 318
Width: 1333
VWidth: 0
GlyphClass: 2
Flags: W
LayerCount: 2
Fore
SplineSet
228 0 m 258
 1105 0 l 258
 1153 0 1179 36 1179 71 c 256
 1179 109 1155 143 1105 143 c 258
 228 143 l 258
 179 143 155 109 155 71 c 256
 155 36 179 0 228 0 c 258
665 219 m 256
 702 219 740 243 740 289 c 258
 740 533 l 257
 1105 533 l 258
 1153 533 1178 569 1178 604 c 256
 1178 642 1154 676 1105 676 c 258
 740 676 l 257
 740 922 l 258
 740 969 704 993 666 993 c 256
 629 993 592 968 592 922 c 258
 592 676 l 257
 228 676 l 258
 179 676 156 641 156 605 c 256
 156 568 180 533 228 533 c 258
 592 533 l 257
 592 289 l 258
 592 242 627 219 665 219 c 256
EndSplineSet
EndChar

StartChar: product
Encoding: 8719 8719 319
Width: 1485
VWidth: 0
GlyphClass: 2
Flags: W
LayerCount: 2
Fore
SplineSet
372 0 m 256
 416 0 460 28 460 87 c 258
 460 1278 l 257
 1025 1278 l 257
 1025 86 l 258
 1025 28 1069 0 1113 0 c 256
 1157 0 1202 28 1202 86 c 258
 1203 1278 l 257
 1341 1278 l 258
 1387 1278 1410 1317 1410 1356 c 256
 1410 1396 1387 1434 1341 1434 c 258
 141 1434 l 258
 90 1434 64 1395 64 1356 c 256
 64 1317 90 1278 140 1278 c 258
 284 1278 l 257
 284 87 l 258
 284 29 328 0 372 0 c 256
EndSplineSet
EndChar

StartChar: q
Encoding: 113 113 320
Width: 1190
VWidth: 0
GlyphClass: 2
Flags: W
PickledData: "(dp1
S'b'
(dp2
sS'anchors'
p3
(tsS'lib'
p4
(dp5
sS'unicodes'
p6
(tsS'width'
p7
I1207
sS'contours'
p8
(tsS'components'
p9
(tsS'com.typemytype.robofont.layerData'
p10
(dp11
S'b'
(dp12
S'name'
p13
S'p'
sg4
(dp14
sg6
(tsg7
I1181
sg8
(tsg9
(tsg3
(tsssg13
S'p'
s."
LayerCount: 2
Fore
SplineSet
555 106 m 256
 337 106 265 315 265 496 c 256
 265 668 328 887 546 890 c 256
 783 890 856 717 856 493 c 256
 856 300 773 106 555 106 c 256
948 -380 m 256
 993 -380 1038 -351 1038 -296 c 258
 1038 909 l 258
 1038 965 993 993 948 993 c 256
 887 993 857 959 857 909 c 258
 857 820 l 257
 791 951 664 1013 514 1013 c 256
 227 1013 84 768 84 492 c 256
 84 208 245 -18 530 -18 c 256
 677 -18 797 48 857 169 c 257
 857 -296 l 258
 857 -351 902 -380 948 -380 c 256
EndSplineSet
EndChar

StartChar: question
Encoding: 63 63 321
Width: 1036
VWidth: 0
GlyphClass: 2
Flags: W
LayerCount: 2
Fore
SplineSet
425 -18 m 256
 497 -18 541 34 541 91 c 256
 541 146 496 196 425 196 c 256
 351 196 309 145 309 91 c 256
 309 34 352 -18 425 -18 c 256
333 447 m 258
 334 395 379 368 423 368 c 256
 466 368 508 393 508 443 c 258
 507 543 l 258
 506 702 900 788 900 1087 c 256
 900 1345 712 1445 488 1445 c 256
 395 1445 294 1429 200 1404 c 256
 152 1392 133 1357 133 1324 c 256
 133 1281 160 1242 204 1242 c 256
 246 1242 392 1277 443 1277 c 256
 571 1277 695 1243 695 1073 c 256
 695 834 339 770 334 568 c 258
 333 447 l 258
EndSplineSet
EndChar

StartChar: quotedbl
Encoding: 34 34 323
Width: 669
VWidth: 0
GlyphClass: 2
Flags: W
LayerCount: 2
Fore
SplineSet
471 985 m 256
 498 985 526 1002 530 1054 c 258
 558 1409 l 258
 560 1455 516 1479 472 1479 c 256
 428 1479 382 1455 385 1409 c 256
 385 1408 404 1152 413 1054 c 256
 417 1004 443 985 471 985 c 256
190 985 m 256
 217 985 245 1003 249 1054 c 258
 278 1409 l 258
 280 1456 235 1479 191 1479 c 256
 146 1479 101 1456 104 1405 c 256
 104 1404 123 1152 132 1054 c 256
 136 1003 163 985 190 985 c 256
EndSplineSet
EndChar

StartChar: quotedblbase
Encoding: 8222 8222 324
Width: 1150
VWidth: 0
GlyphClass: 2
Flags: W
PickledData: "(dp1
S'b'
(dp2
sS'anchors'
p3
(tsS'lib'
p4
(dp5
sS'unicodes'
p6
(tsS'width'
p7
I1161
sS'contours'
p8
(tsS'components'
p9
(tsS'com.typemytype.robofont.layerData'
p10
(dp11
S'b'
(dp12
S'name'
p13
S'quotedblbase'
p14
sg4
(dp15
sg6
(tsg7
I1146
sg8
(tsg9
(tsg3
(tsssg13
S'quotedblbase'
p16
s."
LayerCount: 2
Fore
SplineSet
673 -244 m 258
 729 -244 l 258
 756 -244 769 -232 782 -201 c 258
 930 166 l 258
 931 170 933 177 933 184 c 256
 933 200 925 220 896 222 c 258
 787 222 l 258
 755 221 722 213 714 166 c 258
 649 -201 l 258
 648 -204 648 -208 648 -213 c 256
 648 -226 652 -243 673 -244 c 258
270 -244 m 258
 326 -244 l 258
 353 -244 366 -232 379 -201 c 258
 527 166 l 258
 528 170 530 177 530 184 c 256
 530 200 522 220 493 222 c 258
 384 222 l 258
 352 221 319 213 311 166 c 258
 246 -201 l 258
 245 -204 245 -208 245 -213 c 256
 245 -226 249 -243 270 -244 c 258
EndSplineSet
EndChar

StartChar: quotedblleft
Encoding: 8220 8220 325
Width: 1150
VWidth: 0
GlyphClass: 2
Flags: W
PickledData: "(dp1
S'b'
(dp2
sS'anchors'
p3
(tsS'lib'
p4
(dp5
sS'unicodes'
p6
(tsS'width'
p7
I1161
sS'contours'
p8
(tsS'components'
p9
(tsS'com.typemytype.robofont.layerData'
p10
(dp11
S'b'
(dp12
S'name'
p13
S'quotedblleft'
p14
sg4
(dp15
sg6
(tsg7
I1146
sg8
(tsg9
(tsg3
(tsssg13
S'quotedblleft'
p16
s."
LayerCount: 2
Fore
SplineSet
639 964 m 258
 748 964 l 258
 780 965 813 973 821 1020 c 258
 886 1386 l 258
 887 1389 887 1393 887 1398 c 256
 887 1412 883 1429 862 1429 c 258
 809 1429 l 258
 780 1429 765 1418 753 1386 c 258
 605 1020 l 258
 603 1016 602 1009 602 1002 c 256
 602 985 610 964 639 964 c 258
251 964 m 258
 359 964 l 258
 391 965 424 973 432 1020 c 258
 498 1386 l 258
 500 1398 502 1429 474 1429 c 258
 420 1429 l 258
 391 1429 377 1418 364 1386 c 258
 217 1020 l 258
 215 1016 214 1009 214 1002 c 256
 214 985 222 964 251 964 c 258
EndSplineSet
EndChar

StartChar: quotedblright
Encoding: 8221 8221 326
Width: 1150
VWidth: 0
GlyphClass: 2
Flags: W
PickledData: "(dp1
S'b'
(dp2
sS'anchors'
p3
(tsS'lib'
p4
(dp5
sS'unicodes'
p6
(tsS'width'
p7
I1161
sS'contours'
p8
(tsS'components'
p9
(tsS'com.typemytype.robofont.layerData'
p10
(dp11
S'b'
(dp12
S'name'
p13
S'quotedblright'
p14
sg4
(dp15
sg6
(tsg7
I1146
sg8
(tsg9
(tsg3
(tsssg13
S'quotedblright'
p16
s."
LayerCount: 2
Fore
SplineSet
649 963 m 258
 703 963 l 258
 732 963 746 974 759 1006 c 258
 906 1373 l 258
 908 1377 909 1384 909 1391 c 256
 909 1408 901 1429 872 1429 c 258
 764 1429 l 258
 732 1428 699 1420 691 1373 c 258
 625 1006 l 258
 624 1003 624 999 624 994 c 256
 624 981 628 964 649 963 c 258
264 963 m 258
 318 963 l 258
 347 963 361 974 374 1006 c 258
 522 1373 l 258
 523 1377 525 1384 525 1391 c 256
 525 1408 517 1429 488 1429 c 258
 379 1429 l 258
 347 1428 314 1420 306 1373 c 258
 240 1006 l 258
 239 1003 239 999 239 994 c 256
 239 981 243 964 264 963 c 258
EndSplineSet
EndChar

StartChar: quoteleft
Encoding: 8216 8216 327
Width: 593
VWidth: 0
GlyphClass: 2
Flags: W
PickledData: "(dp1
S'b'
(dp2
sS'anchors'
p3
(tsS'lib'
p4
(dp5
sS'unicodes'
p6
(tsS'width'
p7
I615
sS'contours'
p8
(tsS'components'
p9
(tsS'com.typemytype.robofont.layerData'
p10
(dp11
S'b'
(dp12
S'name'
p13
S'quoteleft'
p14
sg4
(dp15
sg6
(tsg7
I584
sg8
(tsg9
(tsg3
(tsssg13
S'quoteleft'
p16
s."
LayerCount: 2
Fore
SplineSet
175 964 m 258
 283 964 l 258
 315 965 348 973 356 1020 c 258
 422 1386 l 258
 423 1389 423 1393 423 1398 c 256
 423 1412 419 1429 398 1429 c 258
 344 1429 l 258
 315 1429 301 1418 288 1386 c 258
 141 1020 l 258
 139 1016 138 1009 138 1002 c 256
 138 985 146 964 175 964 c 258
EndSplineSet
EndChar

StartChar: quoteright
Encoding: 8217 8217 328
Width: 593
VWidth: 0
GlyphClass: 2
Flags: W
PickledData: "(dp1
S'b'
(dp2
sS'anchors'
p3
(tsS'lib'
p4
(dp5
sS'unicodes'
p6
(tsS'width'
p7
I615
sS'contours'
p8
(tsS'components'
p9
(tsS'com.typemytype.robofont.layerData'
p10
(dp11
S'b'
(dp12
S'name'
p13
S'quoteright'
p14
sg4
(dp15
sg6
(tsg7
I584
sg8
(tsg9
(tsg3
(tsssg13
S'quoteright'
p16
s."
LayerCount: 2
Fore
SplineSet
187 964 m 258
 240 964 l 258
 269 964 283 975 296 1007 c 258
 444 1373 l 258
 445 1377 447 1384 447 1391 c 256
 447 1408 439 1429 410 1429 c 258
 301 1429 l 258
 269 1429 236 1420 228 1373 c 258
 163 1007 l 258
 162 1004 162 1000 162 995 c 256
 162 981 166 964 187 964 c 258
EndSplineSet
EndChar

StartChar: quotesinglbase
Encoding: 8218 8218 329
Width: 593
VWidth: 0
GlyphClass: 2
Flags: W
PickledData: "(dp1
S'com.typemytype.robofont.layerData'
p2
(dp3
S'b'
(dp4
S'name'
p5
S'quotesinglbase'
p6
sS'lib'
p7
(dp8
sS'unicodes'
p9
(tsS'width'
p10
I615
sS'contours'
p11
(tsS'components'
p12
(tsS'anchors'
p13
(tsss."
LayerCount: 2
Fore
SplineSet
187 -260 m 258
 240 -260 l 258
 270 -260 283 -249 296 -217 c 258
 444 150 l 258
 445 154 447 161 447 168 c 256
 447 185 439 206 410 206 c 258
 301 206 l 258
 269 206 236 197 228 150 c 258
 163 -217 l 258
 162 -220 162 -224 162 -229 c 256
 162 -242 166 -259 187 -260 c 258
EndSplineSet
EndChar

StartChar: quotesingle
Encoding: 39 39 330
Width: 593
VWidth: 0
GlyphClass: 2
Flags: W
LayerCount: 2
Fore
SplineSet
295 985 m 256
 323 985 351 997 355 1043 c 258
 383 1409 l 258
 383 1456 341 1479 297 1479 c 256
 252 1479 209 1455 209 1409 c 256
 209 1408 229 1140 238 1043 c 256
 241 997 268 985 295 985 c 256
EndSplineSet
EndChar

StartChar: r
Encoding: 114 114 331
Width: 728
VWidth: 0
GlyphClass: 2
Flags: W
PickledData: "(dp1
S'b'
(dp2
sS'anchors'
p3
(tsS'lib'
p4
(dp5
sS'unicodes'
p6
(tsS'width'
p7
I763
sS'contours'
p8
(tsS'components'
p9
(tsS'com.typemytype.robofont.layerData'
p10
(dp11
S'b'
(dp12
S'name'
p13
S'r'
sg4
(dp14
sg6
(tsg7
I715
sg8
(tsg9
(tsg3
(tsssg13
S'r'
s."
AnchorPoint: "bot" 243 0 basechar 0
AnchorPoint: "top" 372 1001 basechar 0
LayerCount: 2
Fore
SplineSet
243 0 m 256
 289 0 335 28 335 84 c 258
 335 599 l 258
 335 751 436 856 619 856 c 256
 664 856 685 892 685 929 c 256
 685 968 661 1009 616 1009 c 256
 469 1009 366 909 334 791 c 257
 335 911 l 258
 335 965 290 992 245 992 c 256
 200 992 154 965 154 909 c 258
 154 84 l 258
 154 27 198 0 243 0 c 256
EndSplineSet
EndChar

StartChar: radical
Encoding: 8730 8730 333
Width: 1310
VWidth: 0
GlyphClass: 2
Flags: W
LayerCount: 2
Fore
SplineSet
218 557 m 256
 162 557 113 512 113 461 c 256
 113 445 117 433 124 421 c 258
 341 18 l 257
 386 -79 431 -116 507 -116 c 256
 587 -116 643 -81 676 15 c 258
 1201 1438 l 258
 1205 1450 1207 1459 1207 1469 c 256
 1207 1520 1160 1556 1111 1556 c 256
 1076 1556 1035 1534 1017 1487 c 258
 508 110 l 257
 505 110 l 257
 303 504 l 258
 284 540 252 557 218 557 c 256
EndSplineSet
EndChar

StartChar: registered
Encoding: 174 174 336
Width: 1668
VWidth: 0
GlyphClass: 2
Flags: W
LayerCount: 2
Fore
SplineSet
839 87 m 256
 1227 87 1545 392 1545 761 c 256
 1545 1133 1227 1438 839 1438 c 256
 449 1438 130 1133 130 761 c 256
 130 392 449 87 839 87 c 256
839 202 m 256
 504 202 260 438 260 761 c 256
 260 1082 504 1318 839 1318 c 256
 1172 1318 1415 1082 1415 761 c 256
 1415 438 1172 202 839 202 c 256
700 826 m 257
 700 1040 l 257
 892 1040 l 258
 984 1040 1062 1025 1062 939 c 256
 1062 831 980 826 891 826 c 258
 700 826 l 257
639 388 m 256
 670 388 700 407 700 444 c 258
 700 728 l 257
 843 728 l 257
 1044 413 l 258
 1055 395 1072 387 1088 387 c 256
 1118 387 1148 414 1148 444 c 256
 1148 453 1146 461 1140 470 c 258
 960 729 l 257
 1090 743 1188 788 1188 934 c 256
 1188 1072 1116 1141 909 1141 c 258
 657 1141 l 258
 603 1141 581 1101 581 1062 c 258
 581 444 l 258
 581 406 610 388 639 388 c 256
EndSplineSet
EndChar

StartChar: ring
Encoding: 730 730 337
Width: 569
VWidth: 0
GlyphClass: 4
Flags: W
AnchorPoint: "top" 285 1040 mark 0
LayerCount: 2
Fore
SplineSet
285 1184 m 256
 402 1184 479 1259 479 1373 c 256
 479 1486 402 1560 285 1560 c 256
 167 1560 90 1486 90 1373 c 256
 90 1259 167 1184 285 1184 c 256
285 1268 m 256
 219 1268 176 1309 176 1373 c 256
 176 1436 219 1478 285 1478 c 256
 351 1478 394 1436 394 1373 c 256
 394 1309 351 1268 285 1268 c 256
EndSplineSet
EndChar

StartChar: s
Encoding: 115 115 338
Width: 1006
VWidth: 0
GlyphClass: 2
Flags: W
PickledData: "(dp1
S'b'
(dp2
sS'anchors'
p3
(tsS'lib'
p4
(dp5
sS'unicodes'
p6
(tsS'width'
p7
F1006.76
sS'contours'
p8
(tsS'components'
p9
(tsS'com.typemytype.robofont.layerData'
p10
(dp11
S'b'
(dp12
S'name'
p13
S's'
sg4
(dp14
sg6
(tsg7
I1007
sg8
(tsg9
(tsg3
(tsssg13
S's'
s."
AnchorPoint: "bot" 510 0 basechar 0
AnchorPoint: "top" 490 1002 basechar 0
LayerCount: 2
Fore
SplineSet
145 90 m 256
 216 38 359 -19 513 -19 c 256
 736 -19 909 76 909 286 c 256
 909 424 838 519 629 570 c 258
 456 613 l 258
 314 648 281 667 281 749 c 256
 281 852 382 892 517 892 c 256
 636 892 733 847 780 830 c 256
 791 826 802 824 811 824 c 256
 847 824 868 851 868 880 c 256
 868 902 856 925 829 939 c 256
 772 970 651 1015 507 1015 c 256
 299 1015 113 939 113 742 c 256
 113 560 230 519 415 472 c 258
 592 428 l 258
 709 399 756 354 756 274 c 256
 756 158 651 103 511 103 c 256
 390 104 292 145 221 189 c 256
 205 199 189 203 175 203 c 256
 139 203 115 175 115 144 c 256
 115 125 124 105 145 90 c 256
EndSplineSet
EndChar

StartChar: section
Encoding: 167 167 344
Width: 1186
VWidth: 0
GlyphClass: 2
Flags: W
LayerCount: 2
Fore
SplineSet
599 586 m 257
 521 619 395 661 395 752 c 256
 395 847 475 884 555 934 c 257
 642 892 781 865 781 767 c 256
 781 673 680 631 599 586 c 257
667 1374 m 256
 732 1374 819 1341 855 1341 c 256
 891 1341 923 1374 923 1411 c 256
 923 1437 909 1462 875 1472 c 256
 798 1493 717 1511 635 1511 c 256
 426 1511 250 1432 250 1228 c 256
 250 1103 334 1050 439 983 c 257
 329 941 218 848 218 731 c 256
 218 415 753 490 753 285 c 256
 753 153 626 105 512 105 c 256
 419 105 351 117 294 138 c 256
 284 141 275 143 267 143 c 256
 226 143 204 108 204 74 c 256
 204 48 218 24 252 13 c 256
 344 -18 447 -32 547 -32 c 256
 764 -32 953 68 953 281 c 256
 953 417 858 488 738 535 c 257
 849 582 956 671 956 793 c 256
 956 1067 451 1036 451 1233 c 256
 451 1345 573 1374 667 1374 c 256
EndSplineSet
EndChar

StartChar: semicolon
Encoding: 59 59 345
Width: 593
VWidth: 0
GlyphClass: 2
Flags: W
LayerCount: 2
Fore
SplineSet
323 813 m 256
 396 813 440 864 440 921 c 256
 440 976 395 1026 323 1026 c 256
 250 1026 207 975 207 921 c 256
 207 863 251 813 323 813 c 256
EndSplineSet
Refer: 177 44 N 1 0 0 1 8 113 2
EndChar

StartChar: seven
Encoding: 55 55 346
Width: 1175
VWidth: 0
GlyphClass: 2
Flags: W
PickledData: "(dp1
S'com.typemytype.robofont.layerData'
p2
(dp3
S'b'
(dp4
S'name'
p5
S'seven'
p6
sS'lib'
p7
(dp8
sS'unicodes'
p9
(tsS'width'
p10
I1160
sS'contours'
p11
(tsS'components'
p12
(tsS'anchors'
p13
(tsss."
LayerCount: 2
Fore
SplineSet
437 0 m 256
 471 0 506 16 523 56 c 258
 1035 1241 l 258
 1047 1269 1053 1301 1053 1327 c 256
 1053 1383 1015 1421 941 1421 c 258
 175 1421 l 258
 120 1421 94 1380 94 1341 c 256
 94 1301 120 1261 175 1261 c 258
 834 1261 l 257
 344 136 l 258
 338 121 334 106 334 93 c 256
 334 38 384 0 437 0 c 256
EndSplineSet
EndChar

StartChar: six
Encoding: 54 54 347
Width: 1175
VWidth: 0
GlyphClass: 2
Flags: W
PickledData: "(dp1
S'com.typemytype.robofont.layerData'
p2
(dp3
S'b'
(dp4
S'name'
p5
S'nine'
p6
sS'lib'
p7
(dp8
sS'unicodes'
p9
(tsS'width'
p10
I1160
sS'contours'
p11
(tsS'components'
p12
(tsS'anchors'
p13
(tsss."
LayerCount: 2
Fore
SplineSet
623 762 m 256
 816 762 900 620 900 448 c 256
 900 262 798 136 603 136 c 256
 409 136 310 279 310 445 c 256
 310 634 421 762 623 762 c 256
613 -22 m 256
 911 -22 1095 180 1095 450 c 256
 1095 717 919 904 642 905 c 256
 459 905 325 800 296 699 c 257
 296 1034 348 1288 668 1288 c 256
 741 1288 829 1270 920 1228 c 256
 929 1224 937 1222 945 1222 c 256
 987 1222 1018 1269 1018 1313 c 256
 1018 1339 1007 1363 981 1376 c 256
 891 1420 782 1450 672 1450 c 256
 165 1450 88 997 88 628 c 256
 88 290 209 -22 613 -22 c 256
EndSplineSet
EndChar

StartChar: slash
Encoding: 47 47 348
Width: 747
VWidth: 0
GlyphClass: 2
Flags: W
LayerCount: 2
Fore
SplineSet
131 -166 m 256
 160 -166 188 -150 201 -114 c 258
 685 1337 l 258
 688 1348 690 1358 690 1366 c 256
 690 1410 653 1435 615 1435 c 256
 584 1435 554 1420 542 1383 c 258
 62 -69 l 258
 59 -80 57 -89 57 -97 c 256
 57 -141 94 -166 131 -166 c 256
EndSplineSet
EndChar

StartChar: slashbar
Encoding: 65541 -1 349
Width: 600
VWidth: 0
GlyphClass: 2
Flags: W
LayerCount: 2
Fore
SplineSet
80 625 m 258
 691 826 l 258
 725 837 740 864 740 891 c 256
 740 928 713 966 672 966 c 256
 664 966 655 964 646 961 c 258
 36 762 l 258
 -1 750 -17 721 -17 692 c 256
 -17 656 9 620 52 620 c 256
 61 620 70 622 80 625 c 258
EndSplineSet
EndChar

StartChar: sterling
Encoding: 163 163 351
Width: 1366
VWidth: 0
GlyphClass: 2
Flags: W
PickledData: "(dp1
S'com.typemytype.robofont.layerData'
p2
(dp3
S'b'
(dp4
S'name'
p5
S'sterling'
p6
sS'lib'
p7
(dp8
sS'unicodes'
p9
(tsS'width'
p10
I1361
sS'contours'
p11
(tsS'components'
p12
(tsS'anchors'
p13
(tsss."
LayerCount: 2
Fore
SplineSet
228 -1 m 258
 1082 -1 l 258
 1110 -1 1124 38 1124 76 c 256
 1124 114 1110 152 1082 152 c 258
 510 152 l 257
 510 748 l 257
 871 748 l 258
 898 748 911 781 911 814 c 256
 911 848 897 882 872 882 c 258
 510 882 l 257
 510 999 l 258
 510 1222 535 1301 740 1301 c 256
 826 1301 900 1285 976 1272 c 257
 980 1272 l 258
 1010 1272 1028 1327 1028 1365 c 256
 1028 1384 1024 1398 1015 1401 c 256
 929 1426 815 1445 718 1445 c 256
 483 1445 324 1343 324 1082 c 258
 324 882 l 257
 193 882 l 258
 168 882 156 851 156 818 c 256
 156 784 169 748 193 748 c 258
 324 748 l 257
 324 151 l 257
 225 151 l 258
 199 151 186 114 186 77 c 256
 186 38 200 -1 228 -1 c 258
EndSplineSet
EndChar

StartChar: summation
Encoding: 8721 8721 352
Width: 1175
VWidth: 0
GlyphClass: 2
Flags: W
LayerCount: 2
Fore
SplineSet
107 -199 m 258
 1131 -199 l 258
 1183 -199 1208 -158 1208 -118 c 256
 1208 -77 1183 -37 1131 -37 c 258
 281 -37 l 257
 810 638 l 257
 321 1286 l 257
 1097 1286 l 258
 1146 1286 1170 1322 1170 1360 c 256
 1170 1397 1146 1434 1097 1434 c 258
 138 1434 l 258
 78 1434 57 1402 57 1368 c 256
 57 1347 64 1328 75 1314 c 258
 604 615 l 257
 50 -87 l 258
 39 -100 33 -117 33 -136 c 256
 33 -167 52 -199 107 -199 c 258
EndSplineSet
EndChar

StartChar: t
Encoding: 116 116 353
Width: 740
VWidth: 0
GlyphClass: 2
Flags: W
PickledData: "(dp1
S'b'
(dp2
sS'anchors'
p3
(tsS'lib'
p4
(dp5
sS'unicodes'
p6
(tsS'width'
p7
I768
sS'contours'
p8
(tsS'components'
p9
(tsS'com.typemytype.robofont.layerData'
p10
(dp11
S'b'
(dp12
S'name'
p13
S't'
sg4
(dp14
sg6
(tsg7
I706
sg8
((dp15
S'points'
p16
((dp17
S'segmentType'
p18
S'curve'
p19
sS'x'
I317
sS'smooth'
p20
I1
sS'y'
I0
s(dp21
S'y'
I0
sS'x'
I358
sg20
I0
s(dp22
S'y'
I27
sS'x'
I398
sg20
I0
s(dp23
g18
S'curve'
p24
sS'x'
I398
sg20
I1
sS'y'
I79
s(dp25
g18
S'line'
p26
sS'x'
I398
sg20
I0
sS'y'
I876
s(dp27
g18
S'line'
p28
sS'x'
I578
sg20
I1
sS'y'
I876
s(dp29
S'y'
I876
sS'x'
I621
sg20
I0
s(dp30
S'y'
I897
sS'x'
I634
sg20
I0
s(dp31
g18
S'curve'
p32
sS'x'
I634
sg20
I1
sS'y'
I928
s(dp33
S'y'
I957
sS'x'
I634
sg20
I0
s(dp34
S'y'
I981
sS'x'
I621
sg20
I0
s(dp35
g18
S'curve'
p36
sS'x'
I578
sg20
I1
sS'y'
I981
s(dp37
g18
S'line'
p38
sS'x'
I398
sg20
I0
sS'y'
I981
s(dp39
g18
S'line'
p40
sS'x'
I398
sg20
I1
sS'y'
I1053
s(dp41
S'y'
I1285
sS'x'
I398
sg20
I0
s(dp42
S'y'
I1318
sS'x'
I432
sg20
I0
s(dp43
g18
S'curve'
p44
sS'x'
I544
sg20
I1
sS'y'
I1318
s(dp45
g18
S'line'
p46
sS'x'
I629
sg20
I1
sS'y'
I1318
s(dp47
S'y'
I1318
sS'x'
I706
sg20
I0
s(dp48
S'y'
I1438
sS'x'
I703
sg20
I0
s(dp49
g18
S'curve'
p50
sS'x'
I630
sg20
I1
sS'y'
I1438
s(dp51
g18
S'line'
p52
sS'x'
I510
sg20
I1
sS'y'
I1438
s(dp53
S'y'
I1438
sS'x'
I357
sg20
I0
s(dp54
S'y'
I1371
sS'x'
I238
sg20
I0
s(dp55
g18
S'curve'
p56
sS'x'
I238
sg20
I1
sS'y'
I1112
s(dp57
g18
S'line'
p58
sS'x'
I238
sg20
I0
sS'y'
I981
s(dp59
g18
S'line'
p60
sS'x'
I98
sg20
I1
sS'y'
I981
s(dp61
S'y'
I981
sS'x'
I55
sg20
I0
s(dp62
S'y'
I957
sS'x'
I39
sg20
I0
s(dp63
g18
S'curve'
p64
sS'x'
I39
sg20
I1
sS'y'
I928
s(dp65
S'y'
I899
sS'x'
I39
sg20
I0
s(dp66
S'y'
I876
sS'x'
I55
sg20
I0
s(dp67
g18
S'curve'
p68
sS'x'
I98
sg20
I1
sS'y'
I876
s(dp69
g18
S'line'
p70
sS'x'
I238
sg20
I0
sS'y'
I876
s(dp71
g18
S'line'
p72
sS'x'
I238
sg20
I1
sS'y'
I79
s(dp73
S'y'
I26
sS'x'
I238
sg20
I0
s(dp74
S'y'
I0
sS'x'
I278
sg20
I0
stp75
stp76
sg9
(tsg3
(tsssg13
S't'
s."
AnchorPoint: "bot" 449 8 basechar 0
AnchorPoint: "caron.alt" 354 1058 basechar 0
LayerCount: 2
Fore
SplineSet
475 -14 m 258
 534 -14 l 258
 615 -14 682 -8 682 60 c 256
 682 95 658 130 611 130 c 258
 605 130 l 257
 537 127 l 257
 526 127 l 258
 442 127 405 183 405 321 c 258
 405 866 l 257
 589 866 l 258
 636 866 655 890 655 923 c 256
 655 957 635 984 589 984 c 258
 405 984 l 257
 405 1274 l 258
 405 1324 372 1346 335 1346 c 256
 293 1346 251 1311 248 1268 c 258
 224 984 l 257
 101 984 l 258
 55 984 34 958 34 925 c 256
 34 891 56 866 102 866 c 258
 224 866 l 257
 224 290 l 258
 224 74 330 -14 475 -14 c 258
EndSplineSet
EndChar

StartChar: thorn
Encoding: 254 254 358
Width: 1172
VWidth: 0
GlyphClass: 2
Flags: W
LayerCount: 2
Fore
SplineSet
628 107 m 256
 388 107 316 291 316 514 c 256
 316 711 397 886 614 886 c 256
 826 886 896 694 896 508 c 256
 896 332 845 107 628 107 c 256
223 -343 m 256
 267 -343 311 -313 311 -253 c 258
 311 176 l 257
 398 39 526 -27 672 -27 c 256
 960 -27 1086 239 1086 502 c 256
 1086 778 956 1022 667 1022 c 256
 531 1022 387 956 316 830 c 257
 316 1345 l 258
 316 1401 272 1428 226 1428 c 256
 181 1428 135 1400 135 1345 c 258
 135 -253 l 258
 135 -313 178 -343 223 -343 c 256
EndSplineSet
EndChar

StartChar: three
Encoding: 51 51 359
Width: 1175
VWidth: 0
GlyphClass: 2
Flags: W
PickledData: "(dp1
S'com.typemytype.robofont.layerData'
p2
(dp3
S'b'
(dp4
S'name'
p5
S'three'
p6
sS'lib'
p7
(dp8
sS'unicodes'
p9
(tsS'width'
p10
I1160
sS'contours'
p11
(tsS'components'
p12
(tsS'anchors'
p13
(tsss."
LayerCount: 2
Fore
SplineSet
558 -22 m 256
 811 -22 1047 98 1047 378 c 256
 1047 566 941 704 771 746 c 257
 908 791 1013 895 1013 1063 c 256
 1013 1325 803 1450 548 1450 c 256
 397 1450 237 1395 186 1364 c 256
 163 1351 153 1329 153 1306 c 256
 153 1262 188 1215 229 1215 c 256
 237 1215 245 1216 253 1220 c 256
 305 1246 409 1288 545 1288 c 256
 684 1288 811 1212 811 1059 c 256
 811 892 682 811 502 811 c 258
 437 811 l 258
 389 811 366 774 366 736 c 256
 366 699 389 664 437 664 c 258
 510 664 l 258
 701 664 847 555 847 377 c 256
 847 222 720 140 549 140 c 256
 432 140 337 177 274 206 c 256
 265 209 257 211 249 211 c 256
 207 211 172 171 172 128 c 256
 172 100 187 72 224 53 c 256
 309 8 433 -22 558 -22 c 256
EndSplineSet
EndChar

StartChar: threequarters
Encoding: 190 190 360
Width: 1636
VWidth: 0
GlyphClass: 2
Flags: W
PickledData: "(dp1
S'com.typemytype.robofont.layerData'
p2
(dp3
S'b'
(dp4
S'name'
p5
S'threequarters'
p6
sS'lib'
p7
(dp8
sS'unicodes'
p9
(tsS'width'
p10
I1603
sS'contours'
p11
(tsS'components'
p12
(tsS'anchors'
p13
(tsss."
LayerCount: 2
Fore
SplineSet
973 265 m 257
 1276 737 l 257
 1276 265 l 257
 973 265 l 257
560 -85 m 256
 585 -85 608 -71 618 -42 c 258
 1093 1356 l 258
 1096 1364 1097 1373 1097 1380 c 256
 1097 1416 1066 1438 1035 1438 c 256
 1010 1438 985 1424 975 1394 c 258
 503 -3 l 258
 500 -11 499 -20 499 -27 c 256
 499 -63 530 -85 560 -85 c 256
1329 1 m 256
 1355 1 1381 19 1381 54 c 258
 1381 188 l 257
 1469 188 l 258
 1498 188 1511 207 1511 227 c 256
 1511 247 1497 266 1469 266 c 258
 1381 266 l 257
 1381 756 l 258
 1381 813 1348 839 1305 839 c 256
 1269 839 1237 825 1212 781 c 258
 886 282 l 258
 878 270 874 257 874 243 c 256
 874 213 897 188 935 188 c 258
 1276 188 l 257
 1276 54 l 258
 1276 19 1302 1 1329 1 c 256
302 549 m 256
 451 549 580 623 580 778 c 256
 580 890 509 970 405 993 c 257
 470 1036 564 1083 564 1185 c 256
 564 1339 434 1414 293 1414 c 256
 206 1414 61 1383 61 1327 c 256
 61 1303 78 1282 107 1282 c 256
 125 1282 214 1320 297 1320 c 256
 383 1320 458 1271 458 1183 c 256
 458 1083 372 1037 277 1035 c 258
 239 1034 l 258
 210 1033 196 1012 196 989 c 256
 196 967 210 946 239 946 c 258
 284 946 l 258
 384 946 471 884 471 780 c 256
 471 689 406 642 304 642 c 256
 232 642 162 667 128 680 c 256
 123 681 118 682 113 682 c 256
 86 682 70 660 70 639 c 256
 70 583 223 549 302 549 c 256
EndSplineSet
EndChar

StartChar: uni00B3
Encoding: 179 179 361
Width: 797
VWidth: 0
GlyphClass: 2
Flags: W
PickledData: "(dp1
S'com.typemytype.robofont.layerData'
p2
(dp3
S'b'
(dp4
S'name'
p5
S'threesuperior'
p6
sS'lib'
p7
(dp8
sS'unicodes'
p9
(tsS'width'
p10
I818
sS'contours'
p11
(tsS'components'
p12
(tsS'anchors'
p13
(tsss."
LayerCount: 2
Fore
SplineSet
397 542 m 256
 547 542 675 617 675 771 c 256
 675 883 607 963 503 987 c 257
 600 1015 659 1075 659 1177 c 256
 659 1333 532 1407 391 1407 c 256
 304 1407 156 1376 156 1321 c 256
 156 1298 174 1275 202 1275 c 256
 221 1275 306 1315 393 1315 c 256
 479 1315 553 1265 553 1176 c 256
 553 1076 467 1030 372 1028 c 258
 333 1027 l 258
 304 1026 291 1005 291 982 c 256
 291 960 305 938 334 938 c 258
 380 938 l 258
 480 938 566 877 566 773 c 256
 566 681 501 634 399 634 c 256
 323 634 256 660 222 675 c 256
 217 677 212 677 208 677 c 256
 184 677 165 654 165 632 c 256
 165 577 318 542 397 542 c 256
EndSplineSet
EndChar

StartChar: tilde
Encoding: 732 732 362
Width: 569
VWidth: 0
GlyphClass: 4
Flags: W
AnchorPoint: "top" 293 1040 mark 0
LayerCount: 2
Fore
SplineSet
537 1386 m 256
 489 1386 463 1310 414 1310 c 256
 348 1310 259 1382 162 1382 c 256
 67 1382 11 1325 -15 1241 c 256
 -18 1235 -19 1230 -19 1224 c 256
 -19 1198 1 1184 25 1184 c 256
 46 1184 66 1194 82 1216 c 256
 104 1244 128 1259 158 1259 c 256
 228 1259 317 1185 402 1185 c 256
 485 1185 577 1247 577 1334 c 256
 577 1343 573 1351 568 1354 c 257
 567 1373 556 1386 537 1386 c 256
EndSplineSet
EndChar

StartChar: trademark
Encoding: 8482 8482 363
Width: 1944
VWidth: 0
GlyphClass: 2
Flags: W
LayerCount: 2
Fore
SplineSet
366 653 m 256
 400 653 435 675 435 719 c 258
 435 1278 l 257
 618 1278 l 258
 651 1278 668 1303 668 1328 c 256
 668 1354 651 1379 618 1379 c 258
 114 1379 l 258
 79 1379 63 1354 63 1329 c 256
 63 1303 80 1278 114 1278 c 258
 297 1278 l 257
 297 719 l 258
 297 675 331 653 366 653 c 256
887 652 m 256
 921 652 955 674 955 718 c 258
 955 1189 l 257
 1190 700 l 258
 1202 670 1226 657 1251 657 c 256
 1277 657 1301 673 1314 700 c 258
 1549 1189 l 257
 1549 718 l 258
 1549 674 1582 652 1616 652 c 256
 1650 652 1684 675 1684 718 c 258
 1684 1262 l 258
 1684 1343 1636 1378 1581 1378 c 256
 1541 1378 1499 1355 1472 1297 c 258
 1253 845 l 257
 1033 1297 l 258
 1005 1356 962 1379 923 1379 c 256
 868 1379 820 1343 820 1262 c 258
 820 718 l 258
 820 674 853 652 887 652 c 256
EndSplineSet
EndChar

StartChar: two
Encoding: 50 50 364
Width: 1179
VWidth: 0
GlyphClass: 2
Flags: W
PickledData: "(dp1
S'com.typemytype.robofont.layerData'
p2
(dp3
S'b'
(dp4
S'name'
p5
S'two'
p6
sS'lib'
p7
(dp8
sS'unicodes'
p9
(tsS'width'
p10
I1160
sS'contours'
p11
(tsS'components'
p12
(tsS'anchors'
p13
(tsss."
LayerCount: 2
Fore
SplineSet
1043 1038 m 256
 1043 1260 859 1440 606 1440 c 256
 411 1440 301 1382 194 1317 c 256
 166 1300 155 1278 155 1255 c 256
 155 1213 194 1172 235 1172 c 256
 245 1172 254 1174 264 1179 c 256
 343 1221 403 1283 592 1283 c 256
 736 1283 856 1181 856 1020 c 256
 856 925 806 837 699 728 c 258
 179 201 l 258
 146 168 132 134 132 103 c 256
 132 45 183 0 263 0 c 258
 951 0 l 258
 1004 0 1030 38 1030 76 c 256
 1030 114 1003 152 951 152 c 258
 349 152 l 257
 806 597 l 257
 977 755 1043 886 1043 1038 c 256
EndSplineSet
EndChar

StartChar: uni00B2
Encoding: 178 178 365
Width: 748
VWidth: 0
GlyphClass: 2
Flags: W
LayerCount: 2
Fore
SplineSet
163 575 m 258
 597 575 l 258
 627 575 642 598 642 620 c 256
 642 643 626 667 597 667 c 258
 224 667 l 257
 380 799 634 1028 634 1208 c 256
 634 1342 516 1412 378 1412 c 256
 283 1412 134 1356 134 1300 c 256
 134 1278 151 1260 177 1260 c 256
 188 1260 198 1263 209 1269 c 256
 249 1292 309 1317 368 1317 c 256
 443 1317 515 1276 515 1199 c 256
 515 1076 294 859 176 751 c 256
 126 701 87 669 87 631 c 256
 87 599 110 575 163 575 c 258
EndSplineSet
EndChar

StartChar: u
Encoding: 117 117 366
Width: 1161
VWidth: 0
GlyphClass: 2
Flags: W
PickledData: "(dp1
S'b'
(dp2
sS'anchors'
p3
(tsS'lib'
p4
(dp5
sS'unicodes'
p6
(tsS'width'
p7
I1195
sS'contours'
p8
(tsS'components'
p9
(tsS'com.typemytype.robofont.layerData'
p10
(dp11
S'b'
(dp12
S'name'
p13
S'u'
sg4
(dp14
sg6
(tsg7
I1152
sg8
((dp15
S'points'
p16
((dp17
S'segmentType'
p18
S'curve'
p19
sS'x'
I915
sS'smooth'
p20
I1
sS'y'
I991
s(dp21
S'y'
I991
sS'x'
I875
sg20
I0
s(dp22
S'y'
I965
sS'x'
I834
sg20
I0
s(dp23
g18
S'curve'
p24
sS'x'
I834
sg20
I1
sS'y'
I916
s(dp25
g18
S'line'
p26
sS'x'
I834
sg20
I0
sS'y'
I395
s(dp27
S'y'
I198
sS'x'
I821
sg20
I0
s(dp28
S'y'
I90
sS'x'
I698
sg20
I0
s(dp29
g18
S'curve'
p30
sS'x'
I542
sg20
I1
sS'y'
I90
s(dp31
S'y'
I90
sS'x'
I385
sg20
I0
s(dp32
S'y'
I187
sS'x'
I306
sg20
I0
s(dp33
g18
S'curve'
p34
sS'x'
I306
sg20
I1
sS'y'
I367
s(dp35
g18
S'line'
p36
sS'x'
I306
sg20
I1
sS'y'
I916
s(dp37
S'y'
I967
sS'x'
I306
sg20
I0
s(dp38
S'y'
I991
sS'x'
I266
sg20
I0
s(dp39
g18
S'curve'
p40
sS'x'
I226
sg20
I1
sS'y'
I991
s(dp41
S'y'
I991
sS'x'
I186
sg20
I0
s(dp42
S'y'
I967
sS'x'
I146
sg20
I0
s(dp43
g18
S'curve'
p44
sS'x'
I146
sg20
I1
sS'y'
I916
s(dp45
g18
S'line'
p46
sS'x'
I146
sg20
I1
sS'y'
I369
s(dp47
S'y'
I96
sS'x'
I146
sg20
I0
s(dp48
S'y'
S'-20'
p49
sS'x'
I294
sg20
I0
s(dp50
g18
S'curve'
p51
sS'x'
I507
sg20
I1
sS'y'
S'-20'
p52
s(dp53
S'y'
S'-20'
p54
sS'x'
I656
sg20
I0
s(dp55
S'y'
I49
sS'x'
I786
sg20
I0
s(dp56
g18
S'curve'
p57
sS'x'
I834
sg20
I0
sS'y'
I179
s(dp58
g18
S'line'
p59
sS'x'
I834
sg20
I1
sS'y'
I73
s(dp60
S'y'
I24
sS'x'
I834
sg20
I0
s(dp61
S'y'
I0
sS'x'
I874
sg20
I0
s(dp62
g18
S'curve'
p63
sS'x'
I913
sg20
I1
sS'y'
I0
s(dp64
S'y'
I0
sS'x'
I953
sg20
I0
s(dp65
S'y'
I24
sS'x'
I994
sg20
I0
s(dp66
g18
S'curve'
p67
sS'x'
I994
sg20
I1
sS'y'
I75
s(dp68
g18
S'line'
p69
sS'x'
I994
sg20
I1
sS'y'
I916
s(dp70
S'y'
I967
sS'x'
I994
sg20
I0
s(dp71
S'y'
I991
sS'x'
I955
sg20
I0
stp72
stp73
sg9
(tsg3
(tsssg13
S'u'
s."
AnchorPoint: "ogonek" 911 20 basechar 0
AnchorPoint: "top" 574 998 basechar 0
LayerCount: 2
Fore
SplineSet
502 -18 m 256
 652 -18 778 48 829 171 c 257
 829 82 l 258
 829 27 873 0 918 0 c 256
 964 0 1009 28 1009 85 c 258
 1009 908 l 258
 1009 966 965 994 920 994 c 256
 874 994 829 964 829 908 c 258
 829 411 l 257
 819 216 695 106 546 106 c 256
 403 106 322 195 322 367 c 258
 322 908 l 258
 322 966 277 994 232 994 c 256
 186 994 141 966 141 908 c 258
 141 369 l 258
 141 98 296 -18 502 -18 c 256
EndSplineSet
EndChar

StartChar: underscore
Encoding: 95 95 374
Width: 1024
VWidth: 0
GlyphClass: 2
Flags: W
LayerCount: 2
Fore
SplineSet
56 -254 m 258
 964 -254 l 258
 1003 -254 1023 -224 1023 -194 c 256
 1023 -163 1003 -133 964 -133 c 258
 56 -133 l 258
 19 -133 -1 -163 -1 -194 c 256
 -1 -224 19 -254 56 -254 c 258
EndSplineSet
EndChar

StartChar: uni00AD
Encoding: 173 173 376
Width: 710
VWidth: 0
GlyphClass: 2
Flags: W
LayerCount: 2
Fore
SplineSet
119 461 m 258
 588 461 l 258
 639 461 670 487 670 527 c 256
 670 570 639 596 588 596 c 258
 122 596 l 258
 72 596 39 570 39 527 c 256
 39 487 70 461 119 461 c 258
EndSplineSet
EndChar

StartChar: uni02C9
Encoding: 713 713 440
Width: 569
VWidth: 0
GlyphClass: 4
Flags: W
AnchorPoint: "top" 288 1040 mark 0
LayerCount: 2
Fore
SplineSet
47 1310 m 258
 528 1310 l 258
 573 1310 595 1338 595 1375 c 256
 595 1409 573 1439 528 1439 c 258
 47 1439 l 258
 0 1439 -23 1409 -23 1375 c 256
 -23 1338 0 1310 47 1310 c 258
EndSplineSet
EndChar

StartChar: uni0307
Encoding: 775 775 441
Width: 600
VWidth: 0
GlyphClass: 2
Flags: W
LayerCount: 2
Fore
SplineSet
322 411 m 256
 396 411 440 463 440 520 c 256
 440 576 395 628 322 628 c 256
 248 628 204 575 204 520 c 256
 204 463 248 411 322 411 c 256
EndSplineSet
EndChar

StartChar: uni03A9
Encoding: 937 937 442
Width: 1537
VWidth: 0
GlyphClass: 2
Flags: W
LayerCount: 2
Fore
SplineSet
266 0 m 258
 744 0 l 257
 547 298 351 638 351 891 c 256
 351 1117 484 1273 835 1273 c 256
 1187 1273 1320 1118 1320 891 c 256
 1320 639 1124 299 927 0 c 257
 1405 0 l 258
 1442 0 1461 37 1461 75 c 256
 1461 111 1442 148 1405 148 c 258
 1137 148 l 257
 1350 394 1515 688 1515 930 c 256
 1515 1220 1375 1460 835 1460 c 256
 341 1460 156 1217 156 930 c 256
 156 688 318 401 533 148 c 257
 266 148 l 258
 228 148 210 111 210 75 c 256
 210 37 228 0 266 0 c 258
EndSplineSet
EndChar

StartChar: uni03BC
Encoding: 956 956 443
Width: 1163
VWidth: 0
GlyphClass: 2
Flags: W
LayerCount: 2
Fore
SplineSet
230 -274 m 256
 281 -274 323 -237 323 -175 c 258
 323 501 l 257
 141 501 l 257
 141 -175 l 258
 141 -243 181 -274 230 -274 c 256
EndSplineSet
Refer: 366 117 N 1 0 0 1 0 0 2
EndChar

StartChar: afii61289
Encoding: 8467 8467 462
Width: 742
VWidth: 0
GlyphClass: 2
Flags: W
LayerCount: 2
Fore
SplineSet
487 1348 m 256
 528 1348 569 1316 569 1249 c 256
 569 1149 512 1067 402 981 c 257
 402 1203 l 258
 402 1314 445 1348 487 1348 c 256
487 1494 m 256
 361 1494 225 1410 224 1186 c 258
 223 859 l 257
 46 720 l 258
 31 708 24 694 24 681 c 256
 24 660 41 642 63 642 c 256
 73 642 82 644 95 654 c 258
 223 754 l 257
 223 289 l 258
 223 60 334 -17 476 -17 c 256
 541 -17 599 -15 626 -10 c 256
 660 -4 677 23 677 52 c 256
 677 87 653 118 610 118 c 258
 606 118 l 257
 541 115 l 257
 530 115 l 258
 445 115 402 163 402 314 c 258
 402 876 l 257
 627 1042 704 1127 704 1261 c 256
 704 1374 643 1494 487 1494 c 256
EndSplineSet
EndChar

StartChar: v
Encoding: 118 118 471
Width: 1039
VWidth: 0
GlyphClass: 2
Flags: W
PickledData: "(dp1
S'com.typemytype.robofont.layerData'
p2
(dp3
S'b'
(dp4
S'name'
p5
S'v'
sS'lib'
p6
(dp7
sS'unicodes'
p8
(tsS'width'
p9
I1027
sS'contours'
p10
((dp11
S'points'
p12
((dp13
S'segmentType'
p14
S'line'
p15
sS'x'
I518
sS'smooth'
p16
I0
sS'y'
I0
s(dp17
S'y'
I0
sS'x'
I589
sg16
I0
s(dp18
S'y'
I36
sS'x'
I618
sg16
I0
s(dp19
g14
S'curve'
p20
sS'x'
I654
sg16
I1
sS'y'
I121
s(dp21
g14
S'line'
p22
sS'x'
I979
sg16
I1
sS'y'
I890
s(dp23
S'y'
I940
sS'x'
I1000
sg16
I0
s(dp24
S'y'
I991
sS'x'
I968
sg16
I0
s(dp25
g14
S'curve'
p26
sS'x'
I907
sg16
I1
sS'y'
I991
s(dp27
S'y'
I991
sS'x'
I878
sg16
I0
s(dp28
S'y'
I975
sS'x'
I850
sg16
I0
s(dp29
g14
S'curve'
p30
sS'x'
I836
sg16
I1
sS'y'
I940
s(dp31
g14
S'line'
p32
sS'x'
I518
sg16
I0
sS'y'
I166
stp33
s(dp34
g12
((dp35
g14
S'curve'
p36
sS'x'
I518
sg16
I0
sS'y'
I0
s(dp37
g14
S'line'
p38
sS'x'
I518
sg16
I0
sS'y'
I166
s(dp39
g14
S'line'
p40
sS'x'
I200
sg16
I1
sS'y'
I940
s(dp41
S'y'
I975
sS'x'
I186
sg16
I0
s(dp42
S'y'
I991
sS'x'
I158
sg16
I0
s(dp43
g14
S'curve'
p44
sS'x'
I129
sg16
I1
sS'y'
I991
s(dp45
S'y'
I991
sS'x'
I68
sg16
I0
s(dp46
S'y'
I940
sS'x'
I36
sg16
I0
s(dp47
g14
S'curve'
p48
sS'x'
I57
sg16
I1
sS'y'
I890
s(dp49
g14
S'line'
p50
sS'x'
I382
sg16
I1
sS'y'
I121
s(dp51
S'y'
I36
sS'x'
I418
sg16
I0
s(dp52
S'y'
I0
sS'x'
I447
sg16
I0
stp53
stp54
sS'components'
p55
(tsS'anchors'
p56
(tsss."
LayerCount: 2
Fore
SplineSet
524 -1 m 256
 603 -1 638 40 677 134 c 258
 989 881 l 258
 993 890 995 900 995 909 c 256
 995 955 948 994 903 994 c 256
 874 994 845 978 829 937 c 258
 524 184 l 257
 218 937 l 258
 202 978 173 994 144 994 c 256
 99 994 52 955 52 909 c 256
 52 900 54 890 58 881 c 258
 370 134 l 258
 409 40 444 -1 524 -1 c 256
EndSplineSet
EndChar

StartChar: w
Encoding: 119 119 472
Width: 1700
VWidth: 0
GlyphClass: 2
Flags: W
PickledData: "(dp1
S'b'
(dp2
sS'anchors'
p3
(tsS'lib'
p4
(dp5
sS'unicodes'
p6
(tsS'width'
p7
I1742
sS'contours'
p8
(tsS'components'
p9
(tsS'com.typemytype.robofont.layerData'
p10
(dp11
S'b'
(dp12
S'name'
p13
S'w'
sg4
(dp14
sg6
(tsg7
I1699
sg8
((dp15
S'points'
p16
((dp17
S'segmentType'
p18
S'curve'
p19
sS'x'
I477
sS'smooth'
p20
I1
sS'y'
I0
s(dp21
S'y'
I0
sS'x'
I524
sg20
I0
s(dp22
S'y'
I30
sS'x'
I564
sg20
I0
s(dp23
g18
S'curve'
p24
sS'x'
I588
sg20
I0
sS'y'
I96
s(dp25
g18
S'line'
p26
sS'x'
I859
sg20
I0
sS'y'
I839
s(dp27
g18
S'line'
p28
sS'x'
I859
sg20
I0
sS'y'
I991
s(dp29
S'y'
I991
sS'x'
I808
sg20
I0
s(dp30
S'y'
I959
sS'x'
I771
sg20
I0
s(dp31
g18
S'curve'
p32
sS'x'
I750
sg20
I1
sS'y'
I899
s(dp33
g18
S'line'
p34
sS'x'
I488
sg20
I0
sS'y'
I173
s(dp35
g18
S'line'
p36
sS'x'
I223
sg20
I1
sS'y'
I936
s(dp37
S'y'
I974
sS'x'
I210
sg20
I0
s(dp38
S'y'
I991
sS'x'
I183
sg20
I0
s(dp39
g18
S'curve'
p40
sS'x'
I152
sg20
I1
sS'y'
I991
s(dp41
S'y'
I991
sS'x'
I112
sg20
I0
s(dp42
S'y'
I962
sS'x'
I79
sg20
I0
s(dp43
g18
S'curve'
p44
sS'x'
I79
sg20
I1
sS'y'
I916
s(dp45
S'y'
I909
sS'x'
I79
sg20
I0
s(dp46
S'y'
I899
sS'x'
I81
sg20
I0
s(dp47
g18
S'curve'
p48
sS'x'
I84
sg20
I0
sS'y'
I888
s(dp49
g18
S'line'
p50
sS'x'
I372
sg20
I1
sS'y'
I88
s(dp51
S'y'
I26
sS'x'
I394
sg20
I0
s(dp52
S'y'
I0
sS'x'
I433
sg20
I0
stp53
s(dp54
g16
((dp55
g18
S'curve'
p56
sS'x'
I1241
sg20
I1
sS'y'
I0
s(dp57
S'y'
I0
sS'x'
I1285
sg20
I0
s(dp58
S'y'
I26
sS'x'
I1324
sg20
I0
s(dp59
g18
S'curve'
p60
sS'x'
I1346
sg20
I1
sS'y'
I88
s(dp61
g18
S'line'
p62
sS'x'
I1634
sg20
I0
sS'y'
I888
s(dp63
S'y'
I899
sS'x'
I1637
sg20
I0
s(dp64
S'y'
I909
sS'x'
I1639
sg20
I0
s(dp65
g18
S'curve'
p66
sS'x'
I1639
sg20
I1
sS'y'
I916
s(dp67
S'y'
I962
sS'x'
I1639
sg20
I0
s(dp68
S'y'
I991
sS'x'
I1606
sg20
I0
s(dp69
g18
S'curve'
p70
sS'x'
I1566
sg20
I1
sS'y'
I991
s(dp71
S'y'
I991
sS'x'
I1535
sg20
I0
s(dp72
S'y'
I974
sS'x'
I1508
sg20
I0
s(dp73
g18
S'curve'
p74
sS'x'
I1495
sg20
I1
sS'y'
I936
s(dp75
g18
S'line'
p76
sS'x'
I1230
sg20
I0
sS'y'
I173
s(dp77
g18
S'line'
p78
sS'x'
I968
sg20
I1
sS'y'
I899
s(dp79
S'y'
I959
sS'x'
I947
sg20
I0
s(dp80
S'y'
I991
sS'x'
I910
sg20
I0
s(dp81
g18
S'curve'
p82
sS'x'
I859
sg20
I0
sS'y'
I991
s(dp83
g18
S'line'
p84
sS'x'
I859
sg20
I0
sS'y'
I839
s(dp85
g18
S'line'
p86
sS'x'
I1130
sg20
I0
sS'y'
I96
s(dp87
S'y'
I30
sS'x'
I1154
sg20
I0
s(dp88
S'y'
I0
sS'x'
I1194
sg20
I0
stp89
stp90
sg9
(tsg3
(tsssg13
S'w'
s."
AnchorPoint: "top" 859 1004 basechar 0
LayerCount: 2
Fore
SplineSet
1241 0 m 256
 1291 0 1335 29 1359 100 c 258
 1632 882 l 258
 1636 893 1638 904 1638 914 c 256
 1638 962 1596 992 1554 992 c 256
 1521 992 1488 974 1475 933 c 258
 1227 192 l 257
 979 894 l 258
 956 960 914 994 858 994 c 256
 803 994 761 960 738 894 c 258
 490 192 l 257
 242 933 l 258
 229 974 196 992 163 992 c 256
 121 992 79 962 79 914 c 256
 79 904 81 893 85 882 c 258
 358 100 l 258
 382 29 426 0 476 0 c 256
 529 0 575 30 604 110 c 258
 858 822 l 257
 1113 110 l 258
 1141 30 1188 0 1241 0 c 256
EndSplineSet
EndChar

StartChar: x
Encoding: 120 120 477
Width: 1045
VWidth: 0
GlyphClass: 2
Flags: W
PickledData: "(dp1
S'com.typemytype.robofont.layerData'
p2
(dp3
S'b'
(dp4
S'name'
p5
S'x'
sS'lib'
p6
(dp7
sS'unicodes'
p8
(tsS'width'
p9
I1039
sS'contours'
p10
(tsS'components'
p11
(tsS'anchors'
p12
(tsss."
LayerCount: 2
Fore
SplineSet
870 0 m 256
 919 0 959 40 959 85 c 256
 959 102 953 118 941 133 c 258
 634 514 l 257
 921 873 l 258
 932 888 938 902 938 918 c 256
 938 959 899 994 857 994 c 256
 834 994 812 984 794 960 c 258
 535 636 l 257
 277 956 l 258
 255 983 230 994 206 994 c 256
 157 994 117 954 117 907 c 256
 117 891 122 875 135 859 c 258
 417 510 l 257
 102 122 l 258
 91 109 86 94 86 80 c 256
 86 38 126 0 171 0 c 256
 194 0 215 11 232 33 c 258
 515 389 l 257
 799 37 l 258
 819 11 845 0 870 0 c 256
EndSplineSet
EndChar

StartChar: y
Encoding: 121 121 478
Width: 1042
VWidth: 0
GlyphClass: 2
Flags: W
PickledData: "(dp1
S'com.typemytype.robofont.layerData'
p2
(dp3
S'b'
(dp4
S'name'
p5
S'y'
sS'lib'
p6
(dp7
sS'unicodes'
p8
(tsS'width'
p9
I1029
sS'contours'
p10
((dp11
S'points'
p12
((dp13
S'segmentType'
p14
S'line'
p15
sS'x'
I502
sS'smooth'
p16
I0
sS'y'
I10
s(dp17
g14
S'line'
p18
sS'x'
I585
sg16
I0
sS'y'
I181
s(dp19
g14
S'line'
p20
sS'x'
I241
sg16
I1
sS'y'
I931
s(dp21
S'y'
I966
sS'x'
I225
sg16
I0
s(dp22
S'y'
I984
sS'x'
I201
sg16
I0
s(dp23
g14
S'curve'
p24
sS'x'
I171
sg16
I1
sS'y'
I984
s(dp25
S'y'
I984
sS'x'
I117
sg16
I0
s(dp26
S'y'
I936
sS'x'
I64
sg16
I0
s(dp27
g14
S'curve'
p28
sS'x'
I91
sg16
I0
sS'y'
I887
stp29
s(dp30
g12
((dp31
g14
S'curve'
p32
sS'x'
I365
sg16
I1
sS'y'
S'-388'
p33
s(dp34
S'y'
S'-388'
p35
sS'x'
I396
sg16
I0
s(dp36
S'y'
S'-373'
p37
sS'x'
I424
sg16
I0
s(dp38
g14
S'curve'
p39
sS'x'
I442
sg16
I1
sS'y'
S'-334'
p40
s(dp41
g14
S'line'
p42
sS'x'
I1009
sg16
I1
sS'y'
I888
s(dp43
S'y'
I898
sS'x'
I1013
sg16
I0
s(dp44
S'y'
I908
sS'x'
I1016
sg16
I0
s(dp45
g14
S'curve'
p46
sS'x'
I1016
sg16
I1
sS'y'
I918
s(dp47
S'y'
I962
sS'x'
I1018
sg16
I0
s(dp48
S'y'
I990
sS'x'
I978
sg16
I0
s(dp49
g14
S'curve'
p50
sS'x'
I938
sg16
I1
sS'y'
I990
s(dp51
S'y'
I990
sS'x'
I910
sg16
I0
s(dp52
S'y'
I977
sS'x'
I883
sg16
I0
s(dp53
g14
S'curve'
p54
sS'x'
I866
sg16
I0
sS'y'
I941
s(dp55
g14
S'line'
p56
sS'x'
I299
sg16
I1
sS'y'
S'-286'
p57
s(dp58
S'y'
S'-344'
p59
sS'x'
I272
sg16
I0
s(dp60
S'y'
S'-388'
p61
sS'x'
I316
sg16
I0
stp62
stp63
sS'components'
p64
(tsS'anchors'
p65
(tsss."
AnchorPoint: "top" 566 1009 basechar 0
LayerCount: 2
Fore
SplineSet
438 -341 m 258
 1016 878 l 258
 1021 890 1023 901 1023 912 c 256
 1023 959 980 995 935 995 c 256
 905 995 875 979 856 940 c 258
 550 292 l 257
 246 937 l 258
 228 975 198 990 168 990 c 256
 123 990 78 955 78 906 c 256
 78 894 80 880 87 866 c 258
 459 99 l 257
 280 -280 l 258
 274 -293 271 -306 271 -318 c 256
 271 -364 313 -397 357 -397 c 256
 388 -397 419 -380 438 -341 c 258
EndSplineSet
EndChar

StartChar: yen
Encoding: 165 165 482
Width: 1200
VWidth: 0
GlyphClass: 2
Flags: W
LayerCount: 2
Fore
SplineSet
200 543 m 258
 1064 543 l 258
 1105 543 1125 573 1125 605 c 256
 1125 636 1105 668 1064 668 c 258
 200 668 l 258
 158 668 139 636 139 607 c 256
 139 575 159 543 200 543 c 258
200 298 m 258
 1064 298 l 258
 1105 298 1125 328 1125 360 c 256
 1125 391 1105 423 1064 423 c 258
 200 423 l 258
 158 423 139 391 139 362 c 256
 139 330 159 298 200 298 c 258
EndSplineSet
Refer: 124 89 N 1 0 0 1 0 0 2
EndChar

StartChar: z
Encoding: 122 122 484
Width: 941
VWidth: 0
GlyphClass: 2
Flags: W
AnchorPoint: "top" 481 1001 basechar 0
LayerCount: 2
Fore
SplineSet
173 0 m 258
 777 0 l 258
 826 0 850 35 850 71 c 256
 850 105 826 141 777 141 c 258
 295 141 l 257
 830 846 l 258
 848 870 856 894 856 915 c 256
 856 960 822 994 758 994 c 258
 167 994 l 258
 119 994 95 958 95 923 c 256
 95 888 119 854 167 854 c 258
 639 854 l 257
 105 148 l 258
 88 126 81 103 81 82 c 256
 81 37 115 0 173 0 c 258
EndSplineSet
EndChar

StartChar: zero
Encoding: 48 48 488
Width: 1186
VWidth: 0
GlyphClass: 2
Flags: W
LayerCount: 2
Fore
SplineSet
593 -22 m 256
 990 -22 1095 335 1095 713 c 256
 1095 1107 986 1450 593 1450 c 256
 200 1450 90 1109 90 713 c 256
 90 333 196 -22 593 -22 c 256
593 140 m 256
 329 140 298 466 298 713 c 256
 298 975 331 1288 593 1288 c 256
 855 1288 889 973 889 713 c 256
 889 468 858 140 593 140 c 256
EndSplineSet
EndChar

StartChar: uni0358
Encoding: 856 856 491
Width: 600
VWidth: 0
GlyphClass: 2
Flags: W
LayerCount: 2
Fore
SplineSet
322 411 m 256
 396 411 440 463 440 520 c 256
 440 576 395 628 322 628 c 256
 248 628 204 575 204 520 c 256
 204 463 248 411 322 411 c 256
EndSplineSet
EndChar

